<?xml version="1.0" standalone="no"?>
<!DOCTYPE svg PUBLIC "-//W3C//DTD SVG 20010904//EN"
 "http://www.w3.org/TR/2001/REC-SVG-20010904/DTD/svg10.dtd">
<svg version="1.0" xmlns="http://www.w3.org/2000/svg"
 width="160.000000pt" height="240.000000pt" viewBox="0 0 160.000000 240.000000"
 preserveAspectRatio="xMidYMid meet">

<g transform="translate(0.000000,240.000000) scale(0.100000,-0.100000)"
fill="#000000" stroke="none">
<path d="M0 1200 l0 -1200 800 0 800 0 0 1200 0 1200 -800 0 -800 0 0 -1200z
m870 506 c75 -4 128 -15 136 -27 3 -5 13 -9 23 -9 23 0 139 -78 152 -102 18
-34 35 -123 31 -160 -3 -22 -7 -26 -20 -19 -62 31 -105 40 -238 52 -82 7 -154
16 -161 21 -6 5 -14 5 -17 -1 -7 -11 -45 -9 -65 3 -8 5 -16 3 -21 -4 -14 -23
-31 1 -28 38 2 31 0 37 -22 42 -15 4 -24 13 -21 21 2 8 4 19 5 24 1 6 5 16 10
23 5 8 3 12 -6 10 -7 -2 -13 4 -13 13 0 18 -23 49 -36 49 -5 0 -9 -7 -9 -15 0
-8 -2 -15 -4 -15 -2 0 -13 -3 -23 -6 -16 -5 -17 -5 -1 6 9 6 15 17 12 25 -5
12 2 15 29 15 20 0 47 5 60 11 20 9 30 8 51 -6 15 -10 29 -15 33 -11 3 3 0 6
-8 7 -8 1 4 7 26 14 22 6 45 11 50 9 6 -2 39 -6 75 -8z m-335 -36 c-3 -5 -13
-10 -21 -10 -8 0 -12 5 -9 10 3 6 13 10 21 10 8 0 12 -4 9 -10z m-55 -15 c-7
-9 -15 -13 -17 -11 -7 7 7 26 19 26 6 0 6 -6 -2 -15z m-20 -65 c0 -5 -2 -10
-4 -10 -3 0 -8 5 -11 10 -3 6 -1 10 4 10 6 0 11 -4 11 -10z m64 -11 c-3 -6 -1
-15 6 -19 7 -4 10 -15 6 -25 -5 -15 -7 -15 -21 -1 -12 12 -14 20 -5 36 6 11
13 20 16 20 3 0 2 -5 -2 -11z m-64 -74 c0 -8 -2 -15 -4 -15 -2 0 -6 7 -10 15
-3 8 -1 15 4 15 6 0 10 -7 10 -15z m161 -7 c17 -21 28 -50 12 -35 -3 4 -12 2
-19 -4 -7 -6 -18 -8 -24 -4 -17 11 -11 65 8 65 2 0 12 -10 23 -22z m-227 -33
c-8 -19 -12 -35 -9 -35 4 0 3 -5 0 -10 -4 -6 -11 -8 -16 -4 -6 4 -6 11 2 20 6
7 8 21 5 31 -4 9 -1 20 6 25 24 15 27 8 12 -27z m122 15 c0 -10 -5 -16 -10
-13 -5 3 -15 -2 -22 -12 -19 -25 -30 -11 -15 18 15 28 47 33 47 7z m-66 -25
c0 -7 -11 -17 -25 -23 -27 -13 -30 -10 -16 17 11 20 41 24 41 6z m-113 -47
c-3 -8 -6 -5 -6 6 -1 11 2 17 5 13 3 -3 4 -12 1 -19z m658 -469 c125 -24 158
-35 179 -58 16 -17 15 -19 -14 -31 -17 -7 -33 -17 -37 -23 -9 -15 59 0 70 16
11 16 -3 -73 -16 -98 -9 -19 -32 -37 -49 -41 -5 -1 -10 -3 -13 -4 -3 -1 -9 -3
-14 -4 -5 0 -13 -4 -17 -8 -17 -18 -36 -8 -30 16 4 16 0 28 -12 37 -15 12 -16
12 -4 -2 10 -14 10 -18 -3 -23 -8 -3 -15 0 -15 7 -1 7 -6 5 -14 -5 -7 -10 -20
-18 -29 -18 -9 0 -19 -5 -22 -10 -4 -6 -12 -7 -18 -3 -7 4 -25 8 -42 9 -51 4
-73 14 -68 33 2 10 -3 23 -11 30 -13 11 -16 11 -16 1 0 -17 -13 -4 -16 15 -1
8 4 15 12 15 9 0 12 5 9 10 -3 6 -40 10 -82 10 l-76 0 22 -24 c13 -14 29 -22
35 -20 18 7 36 -38 22 -52 -8 -8 -16 -3 -29 18 -9 16 -22 26 -27 23 -6 -4 -17
10 -26 31 -11 26 -18 33 -24 25 -5 -9 -13 -10 -26 -3 -11 5 -45 10 -76 10 -55
0 -58 -1 -58 -25 0 -13 -7 -32 -16 -40 -12 -12 -13 -18 -3 -24 10 -6 10 -11 1
-22 -7 -7 -9 -17 -5 -20 3 -4 1 -7 -5 -7 -20 0 -85 64 -98 97 -30 70 -9 143
41 143 11 0 26 5 31 10 6 6 67 17 135 25 149 16 315 10 454 -16z m-255 -159
c0 -4 -12 -5 -26 -2 -17 3 -22 7 -13 12 13 9 39 2 39 -10z m-230 -19 c0 -17
-4 -33 -10 -36 -5 -3 -9 9 -8 30 2 42 18 48 18 6z m113 -12 c4 -16 3 -18 -9
-8 -7 6 -11 15 -8 20 8 13 11 11 17 -12z m392 -99 c-3 -5 -12 -10 -18 -10 -7
0 -6 4 3 10 19 12 23 12 15 0z"/>
<path d="M635 1660 c3 -5 8 -10 11 -10 2 0 4 5 4 10 0 6 -5 10 -11 10 -5 0 -7
-4 -4 -10z"/>
<path d="M660 1583 c0 -13 5 -23 10 -23 13 0 13 11 0 30 -8 12 -10 11 -10 -7z"/>
<path d="M796 1531 c-8 -12 14 -71 26 -71 6 0 5 6 -2 15 -7 8 -9 15 -4 15 4 0
3 5 -3 11 -6 6 -9 18 -6 25 6 15 -3 19 -11 5z"/>
<path d="M705 1519 c-4 -6 0 -18 9 -27 15 -15 16 -15 16 5 0 25 -15 38 -25 22z"/>
<path d="M400 796 c0 -13 -5 -26 -12 -28 -13 -5 -2 -28 12 -28 5 0 17 14 26
31 13 26 14 33 2 40 -21 14 -28 10 -28 -15z"/>
<path d="M920 801 c8 -6 17 -8 21 -5 4 2 15 -6 24 -18 l17 -23 -5 22 c-3 12 0
24 7 27 6 2 -9 5 -34 5 -31 0 -40 -2 -30 -8z"/>
<path d="M882 780 c14 -22 24 -19 15 5 -4 8 -11 15 -17 15 -6 0 -6 -7 2 -20z"/>
<path d="M410 710 c0 -5 5 -10 10 -10 6 0 10 5 10 10 0 6 -4 10 -10 10 -5 0
-10 -4 -10 -10z"/>
</g>
</svg>
