<?xml version="1.0" standalone="no"?>
<!DOCTYPE svg PUBLIC "-//W3C//DTD SVG 20010904//EN"
 "http://www.w3.org/TR/2001/REC-SVG-20010904/DTD/svg10.dtd">
<svg version="1.0" xmlns="http://www.w3.org/2000/svg"
 width="240.000000pt" height="240.000000pt" viewBox="0 0 240.000000 240.000000"
 preserveAspectRatio="xMidYMid meet">

<g transform="translate(0.000000,240.000000) scale(0.100000,-0.100000)"
fill="#000000" stroke="none">
<path d="M0 1200 l0 -1200 1200 0 1200 0 0 1200 0 1200 -1200 0 -1200 0 0
-1200z m1165 1090 c3 -4 27 -6 53 -4 60 6 178 -18 240 -49 67 -34 130 -95 136
-132 6 -36 9 -82 7 -112 l-1 -21 -47 23 c-58 27 -329 78 -407 76 -28 0 -28 1
-22 38 5 33 3 39 -15 44 -17 5 -19 11 -13 41 4 22 2 36 -4 36 -6 0 -8 8 -5 19
5 20 -15 40 -26 25 -3 -5 -14 -15 -23 -22 -15 -12 -16 -11 -5 12 9 20 21 26
52 28 22 2 48 4 57 5 10 1 20 -2 23 -7z m-135 -14 c0 -11 -19 -15 -25 -6 -3 5
1 10 9 10 9 0 16 -2 16 -4z m-49 -19 c-6 -8 -9 -17 -6 -21 3 -3 0 -2 -6 3 -12
10 -4 31 13 31 7 0 7 -4 -1 -13z m-40 -60 c-10 -9 -11 -8 -5 6 3 10 9 15 12
12 3 -3 0 -11 -7 -18z m82 -37 c-4 -17 -23 -29 -23 -16 0 2 -3 11 -6 20 -4 11
0 16 14 16 15 0 19 -5 15 -20z m-76 -32 c-3 -8 -6 -5 -6 6 -1 11 2 17 5 13 3
-3 4 -12 1 -19z m133 -2 c0 -7 7 -19 16 -27 14 -12 13 -14 -7 -21 -29 -11 -43
4 -35 36 7 27 26 36 26 12z m-180 -5 c0 -12 -20 -25 -27 -18 -7 7 6 27 18 27
5 0 9 -4 9 -9z m93 -18 c-3 -7 -10 -10 -16 -6 -6 4 -8 0 -5 -8 4 -10 -1 -15
-13 -16 -11 -1 -18 1 -16 5 2 4 7 15 10 24 3 9 15 16 25 15 12 0 18 -6 15 -14z
m-74 -29 c-17 -21 -31 -17 -17 5 7 11 16 17 20 14 5 -2 4 -11 -3 -19z m-39 -4
c0 -5 -8 -10 -17 -10 -15 0 -16 2 -3 10 19 12 20 12 20 0z m221 -155 c0 -5
-10 -12 -22 -15 l-23 -6 24 -22 c13 -12 29 -22 34 -22 6 0 4 5 -4 10 -12 8
-10 10 10 10 29 0 53 -31 43 -56 -4 -12 -14 -14 -36 -10 -16 3 -36 6 -44 6 -8
0 -12 4 -9 8 3 5 -8 6 -25 4 -32 -5 -83 22 -76 41 10 27 -13 46 -53 44 -22 -1
-45 4 -51 10 -7 7 24 10 110 9 73 -1 121 -5 122 -11z m331 -11 c10 -10 -24
-95 -36 -91 -6 2 -18 1 -27 -4 -13 -7 -18 -3 -21 16 -3 13 0 29 5 34 8 8 1 11
-22 11 -19 0 -30 -4 -26 -10 4 -6 -12 -10 -42 -10 l-48 0 30 20 c21 14 47 20
87 20 31 0 60 5 63 10 7 11 28 13 37 4z m-515 -81 c24 -6 30 -12 24 -21 -7
-12 -12 -12 -32 0 -13 7 -27 17 -30 22 -4 5 -11 6 -16 3 -5 -3 -15 -1 -23 4
-16 11 16 8 77 -8z m426 -11 c3 -15 -2 -27 -13 -34 -10 -7 -16 -18 -13 -25 3
-8 -3 -13 -18 -13 -31 0 -53 15 -45 29 4 6 2 11 -3 11 -6 0 -11 -4 -11 -10 0
-5 -10 -9 -21 -7 -12 1 -24 -4 -27 -12 -3 -10 2 -11 19 -6 22 7 23 6 8 -9 -11
-12 -24 -14 -47 -10 -18 4 -32 11 -32 16 0 5 9 6 20 3 11 -4 20 -2 20 4 0 17
-57 13 -64 -4 -3 -8 -1 -15 5 -15 6 0 7 -5 4 -10 -4 -6 -10 -8 -15 -5 -4 3
-11 -1 -14 -7 -3 -7 -4 2 -3 21 1 19 9 37 17 41 8 4 30 15 48 25 19 9 51 18
72 19 21 0 35 5 32 10 -3 5 2 7 11 3 10 -3 17 -3 17 1 0 4 11 7 24 7 18 0 26
-7 29 -23z m249 -11 c3 -1 5 -9 4 -18 -3 -18 33 -53 53 -53 6 0 15 -9 22 -21
10 -19 9 -20 -11 -14 -35 11 -54 13 -65 6 -24 -14 -47 -10 -52 9 -3 11 -10 20
-15 20 -6 0 -8 -6 -5 -14 4 -9 -4 -13 -26 -13 -18 0 -24 2 -14 4 21 6 22 19 1
27 -14 5 -14 9 -3 22 7 8 20 14 29 11 10 -3 16 2 16 14 0 19 -8 19 -53 2 -13
-5 -18 9 -8 18 4 4 94 4 127 0z m-703 -18 c20 -8 21 -11 8 -16 -26 -10 -20
-25 8 -19 14 2 25 8 25 12 0 17 32 40 56 40 25 0 32 -14 13 -25 -7 -5 -6 -12
4 -23 32 -39 27 -47 -25 -43 -31 2 -54 -2 -61 -9 -9 -10 -8 -12 6 -7 10 4 16
3 13 -2 -3 -4 -19 -8 -35 -9 -26 -1 -29 3 -28 26 1 18 -2 26 -12 24 -9 -2 -11
3 -7 13 4 10 -2 19 -17 25 -12 5 -16 9 -9 9 7 1 11 5 8 9 -6 11 21 8 53 -5z
m351 -73 c0 -5 -8 -10 -18 -10 -10 0 -23 -5 -30 -12 -9 -9 -12 -8 -12 4 0 15
15 24 48 27 6 0 12 -3 12 -9z m204 -11 c-3 -5 -19 -9 -35 -9 -39 0 -30 15 10
16 17 1 28 -3 25 -7z m-34 -34 c14 -8 19 -14 12 -15 -8 0 -24 -8 -37 -19 -18
-13 -21 -21 -12 -30 16 -16 37 -14 37 5 0 8 5 12 11 8 6 -3 9 -15 6 -25 -4
-14 0 -19 15 -19 17 0 19 5 13 30 -6 25 -3 31 17 39 15 6 30 4 45 -6 14 -10
23 -11 28 -3 11 18 23 2 17 -26 -3 -16 1 -29 9 -35 23 -14 30 -10 23 15 -3 13
-1 27 4 30 13 8 22 -17 17 -44 -4 -19 0 -20 43 -15 38 4 43 3 27 -7 -30 -17
-30 -17 -6 -34 12 -9 20 -22 17 -29 -3 -8 2 -19 10 -25 8 -7 14 -18 14 -25 0
-16 -53 -27 -62 -12 -4 7 -11 7 -22 -2 -14 -12 -16 -10 -16 7 0 12 -4 24 -10
27 -5 3 -10 2 -10 -4 0 -7 -8 -7 -27 0 -20 7 -28 6 -35 -3 -6 -10 -8 -8 -8 5
0 9 -5 17 -12 17 -6 0 -4 8 7 20 18 20 35 22 47 5 5 -6 8 -3 8 7 0 9 12 21 28
27 20 8 21 10 5 7 -13 -2 -23 1 -23 6 0 6 -6 5 -15 -2 -9 -8 -27 -10 -46 -6
-29 6 -31 4 -26 -19 3 -17 0 -24 -7 -22 -6 2 -10 11 -8 21 2 9 -2 16 -8 16 -5
0 -10 -4 -10 -9 0 -5 -10 -7 -22 -3 -14 3 -19 2 -14 -6 4 -7 2 -12 -3 -12 -6
0 -11 -5 -11 -11 0 -5 4 -8 9 -4 14 8 31 -28 24 -53 -3 -12 -11 -22 -18 -22
-7 0 -15 -6 -18 -12 -3 -10 -8 -8 -18 4 -8 9 -32 24 -54 32 -40 16 -40 16 -17
-3 12 -11 22 -23 22 -27 0 -4 -8 0 -17 8 -28 24 -59 30 -72 15 -7 -9 -22 -12
-38 -9 -24 5 -25 6 -8 12 11 4 23 3 27 -3 4 -7 12 0 19 15 10 23 16 26 43 21
27 -5 29 -4 14 8 -9 8 -18 25 -20 38 -5 38 -26 36 -49 -4 -22 -36 -44 -42 -44
-12 0 33 -22 41 -51 18 -30 -24 -53 -29 -35 -7 13 15 4 49 -10 40 -5 -3 -9 0
-9 6 0 6 -4 9 -8 6 -9 -5 -9 -47 0 -62 3 -5 -3 -17 -13 -28 -17 -18 -18 -18
-12 3 5 19 2 20 -24 15 -20 -4 -35 -1 -45 10 -17 17 -74 34 -65 20 3 -5 -1
-22 -8 -39 -11 -24 -14 -26 -15 -10 -1 11 -2 26 -1 33 2 13 -17 16 -36 4 -10
-6 -9 -14 2 -36 17 -33 20 -66 5 -66 -5 0 -10 10 -10 23 0 36 -14 51 -30 33
-7 -9 -10 -22 -7 -30 7 -18 -17 -28 -32 -13 -19 19 -13 44 11 43 14 -1 24 6
26 18 3 13 0 16 -10 10 -7 -5 -19 -9 -27 -11 -8 -1 -18 -8 -22 -15 -5 -8 -9
-9 -9 -2 0 6 7 17 15 24 9 7 13 20 10 29 -5 13 -4 14 6 4 28 -28 73 -7 49 22
-7 8 -9 22 -6 31 5 13 9 14 21 4 8 -7 15 -21 15 -32 0 -18 1 -18 17 -3 11 12
13 19 5 24 -6 4 -7 12 -3 20 6 10 11 9 24 -3 21 -22 25 -20 29 12 2 20 8 27
24 25 14 -1 24 6 31 25 l11 27 7 -32 c4 -18 12 -33 17 -33 5 0 7 4 3 9 -3 6 2
16 10 23 9 7 22 19 30 26 18 16 24 15 21 -4 -1 -9 -11 -23 -21 -31 -19 -13
-19 -14 0 -33 11 -11 36 -22 55 -26 33 -6 34 -5 15 9 -18 13 -18 18 -6 41 14
24 15 25 33 9 10 -9 18 -23 18 -31 0 -11 3 -12 14 -3 17 14 30 -11 14 -27 -6
-6 -8 -22 -3 -39 l7 -28 15 29 c10 19 12 31 4 35 -7 5 -6 15 4 34 7 14 15 37
17 49 4 24 6 25 50 14 18 -4 31 -1 40 9 16 18 17 18 48 0z m-220 -185 c0 -5
-5 -10 -11 -10 -5 0 -7 5 -4 10 3 6 8 10 11 10 2 0 4 -4 4 -10z m-195 -10 c-3
-5 -15 -10 -26 -10 -10 0 -19 5 -19 10 0 6 12 10 26 10 14 0 23 -4 19 -10z
m55 -47 c0 -14 -6 -23 -15 -23 -16 0 -20 26 -9 55 5 13 8 14 15 3 5 -7 9 -23
9 -35z m140 33 c0 -3 -4 -8 -10 -11 -5 -3 -10 -1 -10 4 0 6 5 11 10 11 6 0 10
-2 10 -4z m363 -49 c7 4 6 -1 -2 -11 -16 -19 -38 -6 -25 15 6 10 9 10 12 1 2
-7 9 -9 15 -5z m54 -11 c-4 -9 -13 -13 -22 -10 -20 8 -19 22 3 26 22 5 26 2
19 -16z m-447 -17 c0 -5 -7 -9 -15 -9 -15 0 -20 12 -9 23 8 8 24 -1 24 -14z
m382 -15 c15 -3 30 -14 33 -25 7 -19 17 -24 28 -12 4 3 1 13 -6 21 -10 13 -9
14 11 3 12 -6 22 -16 22 -21 0 -25 -148 -40 -182 -18 -7 4 -9 8 -5 8 4 0 -4
11 -20 24 -27 23 -43 25 -43 5 0 -5 7 -9 16 -7 10 2 19 -2 21 -9 2 -6 -4 -10
-14 -8 -10 1 -24 -2 -30 -8 -15 -11 -15 -11 -18 23 -1 14 2 28 9 33 11 7 128
2 178 -9z m-552 -23 c0 -5 -11 -8 -25 -6 -14 1 -25 -2 -25 -7 0 -6 -7 -8 -15
-4 -8 3 -18 -1 -22 -8 -5 -8 -17 -15 -28 -18 -11 -2 -20 -10 -20 -18 0 -8 6
-14 14 -12 8 2 21 0 30 -3 13 -5 11 -9 -9 -20 -27 -14 -24 -17 33 -29 33 -8
84 3 67 14 -9 5 -9 9 -1 14 6 4 11 2 11 -3 0 -17 26 -13 51 9 l24 20 -37 -4
c-22 -2 -36 1 -35 7 1 6 -6 13 -16 15 -15 3 -18 0 -13 -16 6 -17 3 -19 -14
-15 -32 8 -27 51 8 59 15 4 37 13 50 21 25 15 53 10 76 -13 36 -36 -67 -124
-145 -124 -63 0 -128 41 -129 81 0 20 34 44 81 57 44 13 89 14 89 3z m200 -11
c8 5 24 9 35 9 11 0 14 -3 8 -6 -18 -7 -16 -20 3 -27 8 -3 12 -2 9 4 -3 6 0
10 7 10 16 0 21 -37 7 -46 -5 -3 -33 -8 -62 -10 -29 -3 -58 -7 -64 -9 -7 -3
-13 1 -13 8 0 7 6 19 13 26 10 11 10 13 0 7 -16 -9 -16 -4 -1 29 10 22 13 24
27 11 11 -10 21 -12 31 -6z m123 -7 c8 -7 -11 -33 -23 -33 -5 0 -6 9 -3 20 5
20 15 25 26 13z m-433 -37 c0 -3 -4 -8 -10 -11 -5 -3 -10 -1 -10 4 0 6 5 11
10 11 6 0 10 -2 10 -4z m683 -79 c29 -19 58 -98 38 -105 -6 -2 -11 -10 -11
-18 0 -17 -12 -18 -29 -1 -10 10 -11 9 -6 -5 7 -16 -3 -23 -27 -19 -4 0 -4 -7
-1 -16 5 -13 2 -15 -11 -10 -10 4 -25 3 -34 -2 -9 -4 -33 -11 -52 -14 -19 -3
-29 -3 -22 0 6 2 9 10 5 16 -4 7 -8 17 -8 22 0 18 -41 16 -56 -2 -13 -16 -12
-17 3 -5 14 11 18 10 27 -7 15 -26 14 -31 -5 -31 -8 0 -12 -4 -9 -10 4 -6 -8
-10 -29 -10 -20 0 -36 5 -36 11 0 5 -4 8 -9 4 -6 -3 -33 15 -61 40 -28 25 -61
45 -73 46 -12 0 -78 6 -147 13 -134 13 -170 11 -170 -10 0 -8 -4 -14 -10 -14
-5 0 -10 -5 -10 -11 0 -5 5 -7 10 -4 6 3 10 2 10 -4 0 -6 7 -8 15 -5 11 5 15
-1 15 -22 -1 -26 -2 -27 -14 -11 -16 21 -23 22 -23 2 0 -9 11 -18 24 -21 18
-5 22 -9 13 -18 -8 -8 -13 -7 -19 3 -5 7 -14 10 -20 7 -7 -5 -11 3 -11 21 0
16 -5 34 -11 40 -17 17 17 70 60 92 51 26 143 47 276 61 61 6 119 13 130 14
11 1 74 2 141 2 96 -1 126 -5 147 -19z m-620 -202 c-3 -16 -10 -37 -15 -45 -8
-12 -8 -11 -4 3 3 10 6 37 6 60 0 30 3 38 9 27 6 -8 7 -28 4 -45z m283 31 c17
-13 17 -14 1 -12 -19 2 -47 26 -31 26 6 0 19 -6 30 -14z m302 -102 c19 -13 23
-23 20 -61 -4 -54 -26 -75 -58 -55 -25 15 -33 15 -25 0 4 -7 -5 1 -20 17 -14
17 -30 29 -36 27 -6 -1 -9 13 -7 35 2 30 8 39 28 44 43 12 75 10 98 -7z m-520
-36 c4 -22 -30 -25 -47 -4 -7 9 -29 12 -68 11 -36 -2 -51 0 -42 6 8 5 45 8 84
7 57 -3 70 -6 73 -20z m237 8 c19 -8 35 -21 35 -29 0 -9 15 -17 38 -21 62 -11
71 -16 69 -36 -1 -10 -4 -17 -7 -15 -3 2 -27 -2 -53 -9 -63 -16 -107 -10 -107
15 0 23 -16 32 -57 34 -41 2 -43 -11 -3 -20 30 -7 38 -19 20 -30 -6 -4 -8 -10
-6 -14 3 -4 -25 -4 -62 0 -37 4 -75 3 -84 -2 -24 -13 -65 -11 -74 3 -4 6 -3
13 3 15 6 2 32 18 57 35 34 22 55 29 76 26 26 -4 30 -1 30 18 0 43 60 57 125
30z m-315 -142 c0 -13 -46 -43 -65 -43 -14 0 -11 4 13 14 17 8 32 17 32 21 0
9 -79 -1 -115 -15 -23 -10 -26 -14 -15 -21 8 -6 11 -10 5 -10 -18 0 -40 19
-31 27 16 17 73 32 124 32 28 1 52 -2 52 -5z m410 -26 c19 -9 69 -20 111 -26
89 -11 151 -37 147 -61 -2 -11 -15 -17 -43 -18 -34 -1 -36 0 -11 5 l30 7 -29
13 c-17 8 -61 17 -98 21 -38 4 -72 12 -76 19 -9 15 -51 4 -51 -14 0 -12 -4
-12 -20 -2 -26 16 -26 28 1 28 11 0 17 5 14 10 -3 6 -31 10 -61 10 -36 0 -53
-4 -49 -10 4 -7 -3 -8 -22 -4 -36 9 -37 10 -29 30 5 14 18 16 79 12 39 -3 88
-12 107 -20z m-195 -25 c30 -14 55 -30 55 -34 0 -4 -14 -10 -30 -14 -17 -4
-28 -11 -24 -16 3 -5 -2 -9 -10 -9 -9 0 -16 4 -16 9 0 4 -15 13 -32 18 -28 9
-24 10 26 5 46 -4 58 -2 54 8 -7 21 -67 38 -136 39 -48 1 -61 -2 -56 -11 4 -7
-2 -5 -12 5 -17 15 -17 19 -4 28 25 16 126 1 185 -28z m-114 -125 c7 -16 19
-28 30 -28 12 0 16 -5 13 -15 -5 -13 -9 -13 -21 -3 -23 19 -53 21 -46 2 5 -13
2 -14 -28 -1 -23 9 -35 21 -37 37 -4 22 -3 22 13 7 22 -23 26 -21 21 6 -6 35
40 31 55 -5z m379 8 c0 -9 -7 -12 -21 -9 -16 4 -17 8 -7 14 19 13 28 11 28 -5z
m-544 -31 c40 -38 49 -42 58 -22 3 6 3 -2 0 -19 -6 -37 11 -48 46 -29 23 12
60 9 60 -5 0 -4 8 -7 17 -6 13 1 21 -10 27 -38 9 -33 7 -40 -9 -52 -17 -12
-17 -14 -2 -14 9 0 17 -6 17 -13 0 -7 13 -20 28 -29 44 -26 190 -9 246 29 l41
28 -112 3 c-62 1 -113 6 -113 10 0 27 330 -2 393 -34 l30 -16 -32 -20 c-39
-25 -33 -36 8 -15 l31 15 -6 -41 c-9 -59 -25 -80 -78 -99 -44 -16 -57 -13 -36
8 8 8 6 15 -6 25 -12 9 -15 9 -10 2 4 -7 2 -21 -3 -30 -10 -17 -10 -17 -11 -1
0 16 -2 16 -32 -2 -23 -14 -36 -16 -50 -9 -11 6 -18 6 -18 0 0 -5 -16 -5 -39
1 -25 6 -38 15 -35 22 3 7 -3 19 -12 27 -12 9 -15 10 -10 2 4 -7 3 -13 -3 -13
-18 0 -21 18 -5 34 14 15 12 16 -20 16 -27 0 -34 -3 -30 -15 8 -20 -23 -20
-42 0 -22 22 -37 19 -24 -5 6 -11 19 -20 29 -20 10 0 24 -6 30 -14 13 -15 5
-46 -12 -46 -6 0 -7 3 -4 7 9 9 -23 44 -35 37 -4 -3 -14 8 -21 25 -7 17 -16
28 -20 25 -4 -4 -39 -6 -78 -5 -68 2 -71 1 -66 -18 3 -12 1 -24 -5 -27 -5 -3
-7 -15 -5 -26 7 -25 -1 -48 -17 -48 -7 0 -28 17 -48 38 -41 42 -64 111 -44
136 15 20 92 52 146 61 25 3 53 9 63 11 19 6 24 26 5 23 -21 -3 -68 20 -74 36
-11 27 -42 12 -57 -27 -3 -10 -11 -18 -16 -18 -6 0 -8 7 -5 15 4 8 4 22 0 30
-5 13 -9 13 -25 3 -18 -11 -25 -8 -56 22 -19 19 -33 40 -31 47 3 6 0 13 -6 15
-11 4 29 55 44 57 4 1 23 -15 44 -34z m323 19 c5 3 11 2 13 -2 1 -5 29 -6 61
-2 50 5 57 4 57 -11 0 -10 -5 -19 -12 -21 -7 -3 -9 -12 -5 -22 5 -12 13 -15
27 -11 10 3 29 1 41 -5 17 -10 20 -9 13 2 -5 7 -7 22 -5 33 3 17 1 18 -16 5
-17 -14 -17 -14 0 7 18 21 19 21 38 2 23 -23 55 -25 63 -3 4 11 13 13 27 9 18
-6 21 -4 16 9 -4 9 -2 16 3 16 6 0 10 -5 10 -11 0 -6 9 -9 20 -6 11 3 20 4 20
2 0 -6 -86 -45 -98 -45 -7 0 -12 -4 -12 -10 0 -5 4 -10 10 -10 5 0 7 -7 4 -15
-4 -8 -16 -15 -27 -15 -12 0 -32 -12 -44 -27 -17 -20 -23 -22 -23 -10 0 10 5
17 10 17 18 0 10 19 -14 35 -23 15 -27 15 -50 0 -14 -10 -26 -14 -26 -11 0 4
-5 4 -11 0 -8 -4 -7 -9 2 -15 9 -5 5 -7 -13 -5 -14 1 -33 10 -43 19 -9 9 -21
17 -26 17 -6 0 -8 4 -5 9 3 4 -1 17 -9 27 -14 18 -14 18 -10 -3 2 -15 -4 -28
-17 -37 -22 -16 -39 -13 -37 7 0 9 2 9 6 0 3 -10 8 -10 19 1 18 19 18 26 -1
26 -18 0 -18 -1 -4 39 9 25 14 29 25 20 7 -6 17 -8 23 -5z m311 -74 c0 -5 -4
-10 -10 -10 -5 0 -10 5 -10 10 0 6 5 10 10 10 6 0 10 -4 10 -10z m-500 -295
c0 -14 -2 -25 -4 -25 -2 0 -6 11 -8 25 -3 14 -1 25 3 25 5 0 9 -11 9 -25z m97
3 c-3 -8 -6 -5 -6 6 -1 11 2 17 5 13 3 -3 4 -12 1 -19z"/>
<path d="M1132 2190 c0 -14 2 -19 5 -12 2 6 2 18 0 25 -3 6 -5 1 -5 -13z"/>
<path d="M1160 2123 c1 -18 18 -35 24 -24 4 6 4 16 1 21 -7 12 -25 13 -25 3z"/>
<path d="M1240 2116 c0 -22 11 -46 21 -46 5 0 4 11 -1 24 -6 17 -5 26 3 30 7
2 4 5 -5 5 -10 1 -18 -5 -18 -13z"/>
<path d="M1120 1829 c0 -5 5 -7 10 -4 6 3 10 8 10 11 0 2 -4 4 -10 4 -5 0 -10
-5 -10 -11z"/>
<path d="M1200 1791 c-8 -6 -18 -7 -22 -5 -4 3 -8 0 -8 -5 0 -15 13 -14 36 4
21 16 17 20 -6 6z"/>
<path d="M1270 1760 c0 -5 5 -10 11 -10 5 0 7 5 4 10 -3 6 -8 10 -11 10 -2 0
-4 -4 -4 -10z"/>
<path d="M1280 1631 c0 -6 5 -13 10 -16 6 -3 10 1 10 9 0 9 -4 16 -10 16 -5 0
-10 -4 -10 -9z"/>
<path d="M1483 1615 c-9 -24 1 -27 15 -5 8 13 8 20 2 20 -6 0 -13 -7 -17 -15z"/>
<path d="M1361 1551 c-11 -7 -9 -10 8 -16 26 -8 49 4 30 16 -17 11 -21 11 -38
0z"/>
<path d="M960 1540 c-9 -6 -10 -10 -3 -10 6 0 15 5 18 10 8 12 4 12 -15 0z"/>
<path d="M1385 1480 c-3 -5 -1 -10 4 -10 6 0 11 5 11 10 0 6 -2 10 -4 10 -3 0
-8 -4 -11 -10z"/>
<path d="M1034 1309 c-4 -7 -1 -10 7 -7 8 3 22 1 32 -4 12 -6 17 -5 17 7 0 18
-45 21 -56 4z"/>
<path d="M1150 1292 c0 -12 19 -26 26 -19 2 2 -2 10 -11 17 -9 8 -15 8 -15 2z"/>
<path d="M1195 1280 c-3 -5 -2 -10 4 -10 5 0 13 5 16 10 3 6 2 10 -4 10 -5 0
-13 -4 -16 -10z"/>
<path d="M1490 1146 c0 -2 9 -6 20 -9 11 -3 20 -1 20 4 0 5 -9 9 -20 9 -11 0
-20 -2 -20 -4z"/>
<path d="M1440 1120 c-12 -8 -10 -9 7 -7 12 2 26 6 29 10 11 11 -19 8 -36 -3z"/>
<path d="M1425 1040 c-3 -5 1 -10 10 -10 9 0 13 5 10 10 -3 6 -8 10 -10 10 -2
0 -7 -4 -10 -10z"/>
<path d="M1220 840 c0 -5 4 -10 9 -10 6 0 13 5 16 10 3 6 -1 10 -9 10 -9 0
-16 -4 -16 -10z"/>
<path d="M996 795 c-20 -15 -20 -15 0 -15 12 0 21 7 21 15 0 8 -1 15 -1 15 -1
0 -10 -7 -20 -15z"/>
<path d="M800 520 c0 -14 25 -18 37 -5 9 10 6 13 -13 13 -13 0 -24 -4 -24 -8z"/>
<path d="M1365 283 c11 -3 25 -12 32 -20 10 -13 12 -12 10 6 -1 17 -7 21 -32
20 -20 -1 -24 -3 -10 -6z"/>
<path d="M1320 273 c0 -4 5 -15 10 -23 8 -13 10 -13 10 2 0 9 -4 20 -10 23 -5
3 -10 3 -10 -2z"/>
<path d="M896 238 c-3 -17 -2 -36 2 -40 11 -11 36 47 27 61 -11 20 -22 12 -29
-21z"/>
<path d="M915 170 c3 -5 8 -10 11 -10 2 0 4 5 4 10 0 6 -5 10 -11 10 -5 0 -7
-4 -4 -10z"/>
<path d="M1228 545 c6 -36 19 -40 14 -4 -2 16 -8 29 -12 29 -4 0 -5 -11 -2
-25z"/>
<path d="M1265 539 c4 -35 14 -52 13 -23 0 11 3 27 7 37 5 12 3 17 -8 17 -12
0 -15 -8 -12 -31z"/>
</g>
</svg>
