<?xml version="1.0" standalone="no"?>
<!DOCTYPE svg PUBLIC "-//W3C//DTD SVG 20010904//EN"
 "http://www.w3.org/TR/2001/REC-SVG-20010904/DTD/svg10.dtd">
<svg version="1.0" xmlns="http://www.w3.org/2000/svg"
 width="368.000000pt" height="469.000000pt" viewBox="0 0 368.000000 469.000000"
 preserveAspectRatio="xMidYMid meet">

<g transform="translate(0.000000,469.000000) scale(0.100000,-0.100000)"
fill="#000000" stroke="none">
<path d="M0 2345 l0 -2345 1840 0 1840 0 0 2345 0 2345 -1840 0 -1840 0 0
-2345z m2049 1311 c-3 -3 -23 -7 -45 -9 -21 -1 -44 -5 -49 -8 -6 -3 -22 -5
-37 -4 -19 1 -28 -3 -28 -13 0 -8 -6 -12 -14 -9 -11 4 -13 1 -9 -11 6 -15 5
-15 -10 -3 -15 12 -17 11 -17 -5 1 -28 27 -57 45 -50 13 5 14 2 5 -15 -9 -15
-8 -24 0 -35 7 -7 10 -21 6 -29 -4 -11 0 -16 12 -14 9 1 35 0 57 -1 31 -1 36
-3 20 -10 -11 -4 -33 -5 -48 -3 -20 4 -27 2 -25 -8 2 -8 -3 -12 -12 -10 -39
10 -98 8 -127 -4 -18 -8 -33 -12 -33 -9 0 3 -6 2 -12 -3 -13 -8 -18 -9 -51
-11 -10 -1 -15 -7 -12 -12 4 -6 11 -8 16 -5 5 4 9 1 9 -5 0 -7 -7 -10 -15 -7
-8 4 -17 2 -20 -3 -4 -6 3 -10 15 -10 11 0 23 -7 26 -15 4 -8 12 -15 19 -15
14 0 29 -29 20 -38 -3 -3 -5 -1 -5 5 0 12 -31 13 -46 1 -7 -5 -10 -18 -7 -28
3 -11 0 -20 -6 -20 -6 0 -11 9 -11 20 0 11 -4 20 -10 20 -19 0 -10 -27 18 -51
15 -13 30 -23 33 -22 4 1 10 -9 13 -23 6 -22 9 -24 22 -13 10 8 12 15 4 23 -5
5 -10 15 -10 20 0 6 5 4 10 -6 6 -10 20 -15 35 -13 24 2 32 -5 18 -18 -3 -4
-12 -2 -20 4 -8 7 -13 8 -13 1 0 -19 28 -20 48 -1 20 18 48 27 39 12 -3 -5 1
-13 8 -20 10 -10 14 -9 19 2 3 8 0 15 -6 15 -6 0 -9 2 -6 5 9 9 38 -7 32 -17
-8 -13 33 -1 64 18 12 8 22 10 22 4 0 -27 -52 -42 -172 -49 -139 -7 -240 0
-264 20 -26 21 -116 52 -156 53 -20 1 -40 5 -44 8 -12 13 -14 92 -3 123 25 66
41 96 55 102 8 3 14 10 14 17 1 20 35 53 63 60 15 3 27 10 27 15 0 5 24 17 53
27 28 9 57 20 62 24 6 4 33 13 60 20 28 7 55 17 61 21 5 5 19 6 31 3 11 -3 23
-2 26 3 3 5 63 10 134 12 70 1 125 0 122 -3z m41 -16 c-12 -22 -30 -18 -30 6
0 8 9 14 20 14 18 0 19 -3 10 -20z m65 0 c3 -6 -1 -7 -9 -4 -18 7 -21 14 -7
14 6 0 13 -4 16 -10z m65 -32 c0 -6 -6 -5 -15 2 -8 7 -15 14 -15 16 0 2 7 1
15 -2 8 -4 15 -11 15 -16z m-290 -119 c0 -11 -4 -17 -10 -14 -5 3 -10 13 -10
21 0 8 5 14 10 14 6 0 10 -9 10 -21z m110 -49 c0 -6 20 -15 44 -22 40 -11 43
-13 28 -26 -16 -12 -15 -13 3 -7 16 5 17 4 8 -6 -10 -10 -16 -9 -29 2 -15 12
-16 12 -11 -6 4 -11 2 -27 -4 -35 -8 -11 -9 -9 -3 10 6 23 6 24 -12 10 -18
-15 -18 -14 0 14 15 23 16 30 5 37 -8 5 -17 3 -21 -4 -6 -9 -8 -8 -8 3 0 13
-1 13 -10 0 -8 -11 -9 -9 -8 13 2 25 18 40 18 17z m-80 -31 c0 -14 -17 -10
-23 5 -4 10 -1 13 9 9 7 -3 14 -9 14 -14z m50 12 c0 -5 -6 -12 -12 -14 -7 -3
2 -8 20 -12 17 -4 32 -12 32 -17 0 -5 -9 -7 -19 -3 -11 3 -23 0 -27 -6 -4 -7
-3 -9 3 -6 12 8 49 -30 40 -40 -4 -3 -7 -1 -7 5 0 7 -9 12 -19 12 -19 0 -35
25 -26 40 3 5 1 11 -4 15 -6 3 -8 12 -4 20 6 16 23 20 23 6z m-214 -22 c4 -6
20 -8 39 -5 22 5 35 2 38 -6 4 -10 7 -10 15 0 7 11 10 11 15 -2 4 -9 2 -16 -4
-16 -5 0 2 -12 16 -27 24 -27 33 -52 18 -54 -5 0 -23 -2 -41 -4 -29 -2 -33 0
-29 17 4 16 3 17 -9 7 -10 -8 -14 -8 -14 0 0 6 2 11 4 11 2 0 12 3 22 7 14 5
16 3 11 -11 -6 -14 -2 -17 16 -14 12 2 20 8 17 13 -3 6 -9 9 -14 7 -5 -2 -6 3
-3 10 2 7 -3 20 -11 28 -14 13 -15 12 -10 -2 4 -10 1 -19 -9 -22 -12 -5 -14
-1 -11 18 4 21 2 24 -12 16 -12 -6 -23 -5 -36 5 -23 17 -38 19 -28 3 5 -8 0
-9 -14 -6 -16 4 -22 2 -22 -9 0 -9 6 -13 13 -10 8 3 14 -1 14 -9 0 -13 -34
-13 -56 0 -12 8 -21 46 -10 46 5 0 9 -6 9 -12 1 -9 5 -8 13 3 7 9 17 14 24 12
6 -2 14 1 18 6 8 14 22 14 31 0z m544 1 c0 -5 -4 -10 -10 -10 -5 0 -10 5 -10
10 0 6 5 10 10 10 6 0 10 -4 10 -10z m-130 -9 l25 -7 -30 -6 c-16 -4 -32 -3
-35 1 -3 5 -12 11 -20 14 -22 8 30 6 60 -2z m-260 -9 c0 -13 -12 -22 -22 -16
-10 6 -1 24 13 24 5 0 9 -4 9 -8z m337 -22 c37 -19 37 -20 10 -20 -15 0 -27 4
-27 10 0 5 -6 7 -13 4 -8 -3 -14 2 -14 11 0 19 0 19 44 -5z m-487 -4 c0 -3 -4
-8 -10 -11 -5 -3 -10 -1 -10 4 0 6 5 11 10 11 6 0 10 -2 10 -4z m166 -11 c4
-8 11 -15 18 -15 6 -1 25 -7 41 -16 l30 -14 -28 5 c-16 3 -35 0 -44 -6 -8 -7
-13 -8 -12 -3 4 22 -2 35 -13 28 -7 -5 -8 -3 -3 6 6 10 4 12 -8 7 -17 -6 -23
4 -10 16 11 11 23 8 29 -8z m-138 -12 c-3 -19 -28 -31 -28 -13 0 6 5 8 12 4 8
-5 9 -2 5 9 -3 10 -2 17 4 17 6 0 9 -8 7 -17z m526 -5 c-4 -7 -2 -8 5 -4 17
11 41 -12 41 -40 0 -19 -24 -44 -43 -44 -6 0 -2 35 7 49 9 14 -8 31 -33 31
-11 0 -11 3 -1 15 14 16 34 10 24 -7z m-201 -4 c-8 -21 -31 -25 -26 -5 2 10
10 18 18 18 7 0 11 -6 8 -13z m60 1 c-3 -9 -8 -14 -10 -11 -3 3 -2 9 2 15 9
16 15 13 8 -4z m57 0 c7 -9 19 -14 25 -11 7 2 18 0 26 -5 10 -6 11 -9 1 -9 -9
0 -8 -7 4 -25 13 -20 13 -25 3 -25 -11 0 -11 -3 1 -11 13 -9 13 -10 0 -6 -8 2
-14 14 -14 25 2 26 -8 28 -26 7 -20 -24 -31 -17 -18 11 11 23 9 28 -12 45 -14
10 -20 19 -14 19 6 0 17 -7 24 -15z m-97 -10 c-3 -9 -8 -14 -10 -11 -3 3 -2 9
2 15 9 16 15 13 8 -4z m-409 -11 c3 -8 2 -12 -4 -9 -6 3 -10 10 -10 16 0 14 7
11 14 -7z m476 2 c0 -3 -4 -8 -10 -11 -5 -3 -10 -1 -10 4 0 6 5 11 10 11 6 0
10 -2 10 -4z m-417 -23 c-3 -7 -9 -10 -14 -7 -6 3 -17 0 -26 -8 -15 -12 -15
-11 -4 7 14 23 52 29 44 8z m298 0 c13 -16 12 -17 -3 -4 -10 7 -18 15 -18 17
0 8 8 3 21 -13z m-157 -2 c3 -5 -3 -11 -14 -14 -20 -5 -26 3 -13 16 9 10 21 9
27 -2z m56 -1 c0 -5 -5 -10 -11 -10 -5 0 -7 5 -4 10 3 6 8 10 11 10 2 0 4 -4
4 -10z m227 -17 c-3 -3 -11 -2 -17 2 -9 6 -9 10 1 16 14 8 27 -7 16 -18z
m-519 0 c7 -7 20 -13 28 -13 8 0 14 -4 14 -10 0 -15 -19 -12 -37 6 -13 13 -17
13 -24 2 -5 -7 -9 -10 -9 -6 0 3 -3 14 -6 23 -7 18 13 17 34 -2z m448 -18 c1
-8 -5 -15 -13 -15 -13 0 -13 3 -3 15 10 12 10 15 -4 15 -9 0 -16 -5 -16 -11 0
-5 -5 -7 -11 -4 -6 5 -4 12 8 20 19 15 35 6 39 -20z m-116 19 c0 -8 -19 -13
-24 -6 -3 5 1 9 9 9 8 0 15 -2 15 -3z m-263 -19 c0 -8 -4 -12 -9 -9 -5 3 -6
10 -3 15 9 13 12 11 12 -6z m203 -5 c-13 -8 -12 -10 2 -10 12 0 15 -5 11 -17
-6 -16 -5 -16 10 -4 14 11 18 11 23 -4 5 -13 9 -14 15 -3 5 8 9 9 9 2 0 -19
-29 -37 -50 -31 -11 3 -18 1 -14 -4 3 -5 -4 -9 -15 -9 -18 0 -19 3 -9 25 8 18
8 28 -1 39 -10 11 -9 16 6 24 22 13 33 5 13 -8z m224 -1 c-30 -12 -37 -10 -24
5 6 8 19 12 27 9 14 -6 14 -8 -3 -14z m-324 7 c0 -2 -7 -7 -16 -10 -8 -3 -12
-2 -9 4 6 10 25 14 25 6z m49 -22 c6 4 11 1 11 -7 0 -8 -8 -17 -17 -19 -13 -4
-18 2 -20 20 -1 16 2 20 7 12 4 -7 13 -9 19 -6z m183 -3 c2 -6 24 -5 56 0 82
15 96 5 18 -13 -52 -12 -76 -13 -93 -5 -17 8 -20 13 -11 19 17 10 26 10 30 -1z
m-19 -136 c28 -18 37 -38 13 -29 -8 3 -17 0 -22 -7 -5 -8 -3 -10 6 -4 9 5 11
4 6 -3 -4 -7 -13 -12 -20 -12 -7 0 -21 -9 -31 -19 -15 -18 -16 -25 -4 -71 12
-48 12 -52 -9 -72 -20 -21 -23 -21 -38 -6 -17 17 -19 39 -9 109 7 45 6 46 -34
78 -23 19 -48 31 -56 27 -9 -3 -15 0 -15 9 0 18 31 24 115 21 47 -2 80 -9 98
-21z m-330 -2 c-4 -11 -8 -12 -11 -5 -2 7 -7 12 -12 12 -14 0 -5 -25 18 -50
30 -32 28 -46 -8 -62 -16 -7 -30 -16 -30 -20 0 -5 -7 -8 -15 -8 -8 0 -15 5
-15 11 0 5 5 7 12 3 6 -4 8 -3 4 4 -3 5 -2 12 3 14 16 6 20 65 5 65 -8 0 -14
-9 -14 -20 0 -13 -5 -17 -16 -13 -10 4 -13 2 -7 -7 10 -15 11 -77 1 -70 -5 2
-8 -3 -8 -11 0 -9 -7 -16 -15 -16 -9 0 -12 6 -8 17 4 11 3 14 -6 9 -7 -4 -29
-9 -49 -11 -20 -1 -46 -6 -57 -10 -38 -14 -45 -14 -45 -5 0 19 -28 10 -33 -11
-4 -14 -10 -18 -19 -13 -7 4 -10 4 -6 -1 5 -5 -1 -14 -12 -22 -11 -8 -20 -21
-20 -29 0 -8 -10 -14 -22 -15 l-23 0 22 -9 c15 -6 21 -15 17 -24 -4 -12 -11
-13 -24 -6 -17 9 -30 57 -30 113 0 63 73 150 138 165 20 5 56 13 79 19 23 6
40 7 38 3 -3 -5 2 -10 10 -14 8 -3 19 2 23 11 7 11 18 14 38 11 16 -3 38 -2
49 2 35 15 55 12 48 -7z m64 -3 c-1 -11 -4 -20 -8 -20 -3 0 -14 9 -24 20 -18
20 -17 20 8 20 20 0 25 -5 24 -20z m3 -100 c0 -20 -27 -40 -54 -40 -14 0 -14
3 -4 20 7 11 15 15 19 9 3 -6 9 -1 12 10 7 27 27 27 27 1z m404 -51 c-3 -6 0
-17 8 -26 11 -14 11 -16 -1 -11 -8 2 -18 16 -22 30 -5 20 -4 25 7 21 8 -3 11
-9 8 -14z m67 -16 c13 -16 12 -17 -3 -4 -10 7 -18 15 -18 17 0 8 8 3 21 -13z
m-727 -12 c17 -19 17 -19 -3 -14 -12 3 -21 12 -21 19 0 18 4 18 24 -5z m621
-9 c-3 -3 -11 0 -18 7 -9 10 -8 11 6 5 10 -3 15 -9 12 -12z m-708 -17 c0 -8
-6 -15 -13 -15 -8 0 -11 6 -8 15 4 8 9 15 13 15 4 0 8 -7 8 -15z m813 5 c0 -5
-4 -10 -10 -10 -5 0 -10 5 -10 10 0 6 5 10 10 10 6 0 10 -4 10 -10z m-775
-120 c3 -5 1 -10 -4 -10 -6 0 -11 5 -11 10 0 6 2 10 4 10 3 0 8 -4 11 -10z
m715 -141 c0 -4 -7 -6 -15 -3 -8 4 -15 10 -15 15 0 4 7 6 15 3 8 -4 15 -10 15
-15z m-65 2 c3 -5 1 -12 -5 -16 -5 -3 -10 1 -10 9 0 18 6 21 15 7z m160 -4
c17 -13 16 -14 -5 -12 -13 1 -26 7 -28 13 -5 16 10 15 33 -1z m-213 -33 c-4
-36 -10 -43 -22 -24 -8 12 -8 27 -1 58 1 2 7 2 14 -1 7 -2 11 -16 9 -33z
m-542 -3 c0 -4 11 -6 25 -3 l25 4 -16 -37 c-14 -35 -14 -39 2 -54 9 -9 14 -10
10 -3 -9 16 13 84 25 77 5 -4 9 -1 9 6 0 10 3 10 12 1 15 -15 32 -16 23 -2 -3
6 0 10 7 11 7 0 34 3 61 5 41 4 47 2 47 -15 0 -10 10 -26 23 -34 17 -13 19
-18 8 -25 -7 -6 -11 -18 -7 -29 4 -12 -2 -28 -16 -43 -17 -18 -18 -22 -5 -17
11 4 22 -1 32 -16 17 -24 20 -57 5 -57 -5 0 -10 13 -10 29 0 25 -4 29 -27 28
-16 0 -35 3 -44 7 -16 7 -24 -8 -35 -64 -2 -8 -8 -16 -13 -18 -6 -2 -11 -12
-11 -23 0 -16 -3 -17 -25 -7 -29 13 -32 23 -9 32 13 5 14 9 4 21 -10 12 -10
18 -1 29 10 11 8 15 -6 19 -14 4 -13 5 5 6 12 0 22 5 22 10 0 15 29 21 55 11
21 -8 27 -6 41 15 26 40 12 50 -26 19 -23 -20 -32 -23 -27 -12 6 16 4 16 -28
1 -19 -9 -35 -20 -35 -25 0 -4 -6 -8 -14 -8 -10 0 -12 7 -8 22 4 17 2 20 -11
15 -12 -4 -24 4 -40 28 -18 26 -26 32 -35 23 -9 -9 -12 -9 -12 0 0 7 -5 12
-10 12 -6 0 -8 -10 -4 -24 5 -20 1 -24 -23 -29 -15 -3 -36 -1 -47 5 -13 7 -17
7 -14 -2 2 -6 7 -11 12 -10 5 1 13 -5 18 -14 13 -23 -9 -59 -33 -53 -10 3 -22
1 -25 -4 -9 -14 -24 -10 -24 7 0 8 5 12 10 9 6 -3 10 1 10 9 0 16 -11 20 -39
16 -9 -1 -12 4 -7 15 3 9 6 22 6 28 0 7 5 6 11 -3 9 -12 10 -11 6 6 -4 19 -1
21 24 17 24 -3 29 -1 29 16 0 15 6 21 21 21 11 0 18 4 14 9 -3 5 -1 12 5 16 6
4 7 12 3 18 -4 7 1 5 12 -3 16 -13 19 -13 29 3 11 18 36 24 36 8z m486 0 c-10
-15 13 -63 26 -55 7 4 8 3 4 -4 -4 -7 -1 -12 6 -13 10 0 10 -2 1 -6 -7 -2 -13
-11 -13 -19 0 -8 -6 -14 -13 -14 -7 0 -18 -9 -25 -20 -15 -25 -30 -26 -28 -2
1 12 -5 16 -19 14 -18 -2 -18 -1 -4 10 21 17 32 48 30 77 -2 13 3 28 11 32 17
11 31 11 24 0z m174 4 c0 -2 -9 -9 -20 -15 -16 -9 -18 -8 -14 5 5 13 34 22 34
10z m-872 -52 c7 -10 9 -11 5 -3 -6 13 -5 13 11 0 10 -8 14 -15 10 -16 -5 -1
-21 -5 -36 -8 -25 -6 -41 -36 -20 -36 5 0 14 -11 20 -25 9 -19 9 -25 -1 -25
-6 0 2 -11 18 -24 l30 -24 -27 5 c-21 4 -34 -2 -59 -26 -17 -17 -29 -38 -26
-45 3 -8 -1 -20 -10 -27 -13 -11 -18 -10 -34 10 -11 13 -19 30 -19 37 0 8 -6
23 -12 34 -11 17 -10 22 0 29 10 6 11 18 3 50 -8 36 -6 43 10 55 10 7 16 16
12 19 -3 4 5 7 18 7 15 0 33 12 48 31 21 26 26 29 35 16 6 -8 17 -24 24 -34z
m942 12 c-7 -9 -15 -13 -17 -11 -6 6 20 36 26 30 2 -2 -2 -10 -9 -19z m147 11
c0 -8 -8 -11 -19 -8 -10 2 -15 8 -12 13 8 14 31 11 31 -5z m-527 -46 c10 0 9
-4 -1 -17 -12 -14 -12 -16 0 -8 10 5 12 4 7 -4 -4 -6 -13 -11 -19 -10 -7 1
-22 1 -35 0 -19 -1 -22 -5 -17 -23 5 -18 4 -20 -4 -7 -6 8 -7 25 -4 37 4 18 8
20 19 11 11 -9 14 -5 14 22 1 30 2 32 14 17 7 -10 19 -18 26 -18z m20 20 c0
-5 -4 -10 -10 -10 -5 0 -10 5 -10 10 0 6 5 10 10 10 6 0 10 -4 10 -10z m514
-25 c-3 -13 -1 -26 5 -29 6 -4 11 -2 11 4 0 23 18 -1 22 -29 6 -38 -19 -51
-28 -16 -5 21 -11 24 -33 20 -23 -5 -24 -5 -4 4 16 7 20 16 16 31 -3 12 -12
24 -19 27 -21 8 -7 22 16 16 15 -4 18 -11 14 -28z m-466 -6 c-3 -8 -7 -3 -11
10 -4 17 -3 21 5 13 5 -5 8 -16 6 -23z m314 9 c-7 -7 -12 -8 -12 -2 0 6 3 14
7 17 3 4 9 5 12 2 2 -3 -1 -11 -7 -17z m48 18 c0 -3 -4 -8 -10 -11 -5 -3 -10
-1 -10 4 0 6 5 11 10 11 6 0 10 -2 10 -4z m-170 -30 c0 -3 -4 -8 -10 -11 -5
-3 -10 -1 -10 4 0 6 5 11 10 11 6 0 10 -2 10 -4z m245 -6 c-3 -5 -12 -7 -20
-3 -21 7 -19 13 6 13 11 0 18 -4 14 -10z m-279 -16 c-5 -12 -1 -14 17 -9 22 7
22 7 2 -9 -20 -17 -20 -17 3 -11 22 6 22 6 -3 -19 -15 -15 -23 -31 -19 -38 4
-7 3 -8 -5 -4 -6 4 -10 15 -9 24 2 13 -3 16 -20 14 -20 -3 -22 0 -19 25 2 17
10 28 20 28 8 0 19 4 23 8 12 12 17 8 10 -9z m-612 -23 c7 -11 -22 -23 -36
-15 -6 4 -5 10 3 15 18 11 26 11 33 0z m81 -21 c-4 -6 -12 -10 -20 -10 -16 0
-28 -27 -15 -35 6 -4 10 -11 10 -16 0 -6 -5 -7 -11 -3 -7 4 -7 -1 1 -16 11
-20 10 -21 -9 -10 -21 11 -29 40 -11 40 5 0 7 7 4 15 -4 8 -10 12 -15 9 -12
-7 -12 9 1 22 12 12 72 16 65 4z m917 -6 c-5 -9 -8 -26 -5 -38 3 -20 3 -20 -6
-1 -8 18 2 55 15 55 3 0 1 -7 -4 -16z m-82 -9 c0 -9 -6 -12 -16 -8 -13 5 -13
7 -2 14 17 11 18 11 18 -6z m-360 -26 c0 -5 -9 -4 -19 3 -11 7 -17 16 -14 20
5 10 33 -10 33 -23z m171 4 c-8 -15 -10 -15 -11 -2 0 17 10 32 18 25 2 -3 -1
-13 -7 -23z m-623 5 c-2 -6 -10 -14 -16 -16 -7 -2 -10 2 -6 12 7 18 28 22 22
4z m409 -14 c-3 -3 -12 -4 -19 -1 -8 3 -5 6 6 6 11 1 17 -2 13 -5z m-549 -59
c7 3 10 0 7 -6 -4 -5 -1 -17 6 -25 13 -16 0 -39 -24 -39 -7 0 -11 -8 -11 -18
2 -14 -1 -15 -12 -6 -20 16 -17 36 6 42 25 7 26 33 1 40 -10 2 -24 15 -31 27
-7 13 -8 20 -2 16 6 -3 14 -1 19 6 5 9 10 5 17 -15 6 -17 15 -26 24 -22z m142
25 c0 -5 -4 -10 -10 -10 -5 0 -10 5 -10 10 0 6 5 10 10 10 6 0 10 -4 10 -10z
m341 -4 c-9 -11 -8 -15 4 -20 13 -4 14 -10 5 -26 -13 -24 -26 -26 -34 -5 -7
20 10 65 25 65 9 0 9 -3 0 -14z m508 -2 c4 3 8 -4 8 -15 1 -10 -2 -19 -8 -19
-5 0 -9 4 -9 9 0 5 -2 15 -3 23 -2 7 -2 10 0 5 3 -4 8 -5 12 -3z m-697 -43
c-13 -31 -19 -36 -24 -23 -10 26 -9 32 6 32 8 0 16 7 20 15 3 8 7 15 10 15 2
0 -3 -18 -12 -39z m283 10 c-3 -6 -11 -11 -17 -11 -6 0 -6 6 2 15 14 17 26 13
15 -4z m-488 -27 c-3 -3 -12 -4 -19 -1 -8 3 -5 6 6 6 11 1 17 -2 13 -5z m119
-26 c16 -17 16 -20 3 -15 -9 3 -28 -1 -43 -8 -21 -11 -26 -11 -26 -1 0 8 9 16
21 19 12 3 18 10 14 16 -12 20 12 11 31 -11z m-282 -3 c-4 -8 -8 -15 -10 -15
-2 0 -4 7 -4 15 0 8 4 15 10 15 5 0 7 -7 4 -15z m153 -17 c-3 -8 -6 -5 -6 6
-1 11 2 17 5 13 3 -3 4 -12 1 -19z m866 -89 c33 -59 25 -69 -89 -109 l-52 -18
6 41 c8 69 18 84 64 100 24 8 45 15 48 16 3 0 13 -13 23 -30z m-756 -26 c-53
-5 -55 -23 -1 -23 20 0 34 -5 34 -12 0 -9 3 -9 8 -2 10 15 54 13 48 -3 -4 -9
1 -10 19 -3 20 8 25 6 25 -6 0 -8 -4 -12 -10 -9 -6 3 -7 -1 -4 -9 3 -9 1 -16
-5 -16 -5 0 -20 -11 -33 -25 -13 -13 -41 -28 -63 -33 -39 -8 -37 -9 60 -27
l100 -19 -66 -12 c-37 -7 -93 -20 -124 -29 l-57 -17 -72 70 -71 71 -135 26
c-74 15 -137 29 -138 30 -2 2 11 12 30 22 26 14 66 19 188 23 173 7 341 8 267
3z m-73 -285 c72 1 145 -1 161 -5 27 -5 28 -7 10 -15 l-20 -8 20 4 c11 2 25 5
30 6 35 8 57 -2 70 -32 7 -18 11 -36 8 -40 -5 -10 -88 -48 -105 -49 -10 0 -10
-2 -1 -6 17 -6 -2 -43 -22 -43 -8 0 -15 -5 -15 -12 0 -16 -13 -1 -16 20 -2 9
2 20 9 25 7 5 0 6 -18 3 -16 -2 -48 -7 -70 -10 l-40 -5 35 11 c19 7 37 15 40
18 3 4 19 7 36 7 42 0 124 41 134 67 9 25 3 36 -10 16 -7 -10 -10 -11 -10 -2
0 7 -8 4 -20 -8 -11 -11 -28 -20 -37 -20 -21 0 -80 -19 -114 -36 -14 -7 -30
-10 -34 -6 -5 4 -5 -1 -2 -10 5 -15 0 -18 -36 -19 -23 0 -52 -2 -65 -3 -12 -2
-30 4 -40 11 -9 8 -11 12 -4 8 6 -3 15 1 18 9 3 9 10 16 16 16 5 0 6 -4 3 -10
-3 -5 -2 -10 3 -10 6 0 9 11 8 25 -1 20 -5 24 -21 19 -16 -4 -17 -3 -5 5 13 9
12 11 -5 11 -16 0 -17 2 -6 9 9 6 19 4 29 -5 17 -18 78 -15 75 4 -2 6 2 12 8
12 6 0 9 -7 5 -15 -4 -10 1 -15 14 -15 21 0 130 42 130 50 0 5 -189 2 -227 -4
-13 -2 -23 1 -23 7 0 6 -3 7 -7 4 -3 -4 -13 -1 -21 6 -13 10 -15 9 -9 -5 4
-11 2 -18 -6 -18 -8 0 -7 -4 3 -10 8 -5 11 -12 8 -16 -4 -3 -22 3 -40 14 -23
14 -38 18 -48 12 -20 -13 -33 -12 -25 0 4 6 -5 10 -20 10 -17 0 -24 4 -19 12
5 8 2 9 -10 5 -10 -4 -15 -3 -11 3 4 6 35 9 70 8 34 -2 61 -6 59 -9 -2 -4 3
-10 12 -13 11 -4 15 -2 11 8 -7 17 2 28 16 19 5 -3 69 -5 141 -5z m486 -21
c-19 -6 -37 -14 -40 -17 -10 -12 -40 -19 -40 -9 0 6 -4 7 -10 4 -5 -3 -10 -2
-10 4 0 11 69 29 110 29 20 0 19 -2 -10 -11z m110 3 c0 -5 -2 -10 -4 -10 -3 0
-8 5 -11 10 -3 6 -1 10 4 10 6 0 11 -4 11 -10z m-250 -20 c-8 -5 -22 -9 -30
-9 -10 0 -8 3 5 9 27 12 43 12 25 0z m225 -10 c17 -7 15 -9 -12 -9 -17 -1 -35
-5 -38 -11 -10 -16 -21 -11 -22 10 -1 16 4 20 25 19 15 0 36 -4 47 -9z m-815
-86 c0 -41 -33 -40 -74 2 -16 15 -22 65 -10 77 12 12 84 -56 84 -79z m47 44
c-3 -8 -6 -5 -6 6 -1 11 2 17 5 13 3 -3 4 -12 1 -19z m44 -15 c12 -16 12 -17
-2 -6 -9 7 -20 9 -24 5 -5 -4 -5 -1 -1 6 9 16 11 15 27 -5z m837 -10 c-8 -10
-18 -26 -22 -37 -6 -17 -8 -18 -25 -2 -16 15 -26 50 -11 41 4 -2 20 0 36 5 16
4 31 9 33 9 2 1 -3 -7 -11 -16z m-528 3 c0 -2 -9 -6 -20 -9 -11 -3 -18 -1 -14
4 5 9 34 13 34 5z m450 -6 c0 -5 -7 -7 -15 -4 -8 4 -15 8 -15 10 0 2 7 4 15 4
8 0 15 -4 15 -10z m-524 -175 c-11 -8 -22 -12 -25 -9 -6 6 19 24 34 24 6 -1 1
-7 -9 -15z m-216 -81 c0 -11 -5 -14 -16 -10 -9 3 -20 6 -25 6 -6 0 -7 5 -4 10
10 16 45 12 45 -6z m75 -4 c-3 -5 -1 -10 6 -10 7 0 10 -2 7 -5 -7 -8 -38 5
-38 16 0 5 7 9 16 9 8 0 12 -4 9 -10z m-38 -20 c1 -11 -2 -20 -5 -20 -4 0 -8
9 -9 20 -1 11 2 20 5 20 4 0 8 -9 9 -20z m-107 -5 c0 -8 -4 -15 -10 -15 -5 0
-7 7 -4 15 4 8 8 15 10 15 2 0 4 -7 4 -15z m75 -12 c5 -14 -8 -16 -42 -7 -13
4 -21 10 -18 14 8 12 54 6 60 -7z m-95 -27 c0 -4 7 -3 15 4 8 6 19 9 25 5 16
-10 12 -23 -6 -21 -11 0 -18 -7 -19 -20 -1 -22 9 -25 33 -11 17 11 15 -4 -5
-33 l-16 -25 25 23 c15 14 28 19 32 14 3 -6 1 -12 -4 -14 -6 -2 -4 -11 5 -23
9 -11 14 -15 11 -10 -2 6 -1 17 5 25 7 12 9 12 9 1 0 -7 6 -11 14 -8 8 3 17 1
19 -6 3 -9 8 -9 18 1 17 16 26 15 33 -4 3 -8 2 -12 -3 -9 -14 8 -19 -26 -9
-54 6 -17 5 -27 -4 -33 -10 -6 -10 -8 0 -8 6 0 12 -10 13 -22 1 -18 4 -15 13
12 6 19 15 41 19 48 10 14 47 16 47 2 0 -5 3 -10 8 -10 4 0 7 11 7 25 0 25
-14 36 -16 13 0 -7 -4 -4 -9 7 -5 11 -9 14 -9 6 -1 -8 -7 -11 -17 -7 -9 4 -23
1 -30 -5 -19 -16 -18 -1 2 18 13 13 17 14 24 3 6 -10 11 -8 21 9 16 25 29 27
29 5 0 -14 2 -14 16 -3 9 7 28 14 43 15 14 1 18 0 9 -3 -10 -2 -18 -8 -18 -13
0 -5 -7 -7 -15 -4 -8 4 -15 1 -15 -5 0 -6 5 -11 11 -11 5 0 8 -4 5 -9 -4 -5
-1 -11 6 -13 17 -6 -14 -38 -36 -38 -18 0 -28 -15 -31 -44 -1 -11 -3 -25 -4
-30 0 -5 -7 -4 -13 1 -7 5 -49 10 -93 11 -82 2 -145 16 -145 33 0 5 -3 8 -7 7
-21 -5 -66 30 -79 60 -11 27 -12 43 -3 75 8 31 13 37 20 26 7 -10 8 -5 3 14
-9 38 20 71 47 54 10 -6 19 -16 19 -21z m173 27 c-7 -2 -19 -2 -25 0 -7 3 -2
5 12 5 14 0 19 -2 13 -5z m311 -18 c4 -11 -2 -15 -27 -15 l-32 0 25 14 c14 8
26 14 26 15 1 1 4 -6 8 -14z m-64 -5 c0 -5 -2 -10 -4 -10 -3 0 -8 5 -11 10 -3
6 -1 10 4 10 6 0 11 -4 11 -10z m-332 -20 c14 -23 44 -28 36 -5 -7 17 11 21
21 5 3 -5 18 -10 33 -10 15 0 34 -5 42 -11 11 -8 6 -9 -22 -7 -21 2 -38 0 -38
-4 0 -4 -16 -8 -35 -8 -19 0 -35 5 -35 11 0 5 -5 7 -12 3 -8 -5 -9 -2 -5 9 3
10 2 17 -3 17 -6 0 -10 5 -10 10 0 17 14 11 28 -10z m489 -6 c-3 -3 -12 -4
-19 -1 -8 3 -5 6 6 6 11 1 17 -2 13 -5z m-50 -10 c-3 -3 -12 -4 -19 -1 -8 3
-5 6 6 6 11 1 17 -2 13 -5z m-137 -8 c0 -9 -30 -14 -35 -6 -4 6 3 10 14 10 12
0 21 -2 21 -4z m-72 -21 c10 -9 -53 -5 -68 5 -11 7 -4 9 24 5 21 -2 41 -7 44
-10z m105 -27 c-14 -18 -22 -67 -12 -74 5 -3 9 3 10 13 0 14 2 15 6 3 3 -8 11
-19 17 -23 7 -5 3 -7 -8 -5 -10 2 -21 -3 -23 -9 -3 -7 1 -13 9 -13 7 0 3 -6
-8 -13 -12 -6 -31 -18 -43 -25 -15 -9 -21 -9 -21 -1 0 6 9 13 20 16 21 6 22 7
24 68 3 46 13 75 28 75 7 0 7 -4 1 -12z m417 -52 c0 -3 -4 -8 -10 -11 -5 -3
-10 -1 -10 4 0 6 5 11 10 11 6 0 10 -2 10 -4z m-53 -22 c-3 -3 -12 -4 -19 -1
-8 3 -5 6 6 6 11 1 17 -2 13 -5z m-462 -64 c0 -7 -10 -16 -23 -21 -20 -8 -21
-6 -13 10 6 10 8 21 5 24 -3 3 2 4 13 3 10 -2 18 -9 18 -16z m164 -109 c-8
-11 -9 -29 -4 -47 5 -16 7 -33 7 -37 -1 -4 2 -17 8 -28 6 -10 7 -19 3 -18 -4
1 -14 1 -21 0 -11 -1 -11 -3 0 -14 7 -7 22 -17 33 -22 45 -19 -26 -16 -112 5
-111 28 -173 64 -202 118 -9 17 -7 21 22 26 17 3 43 8 57 11 14 3 50 8 80 11
30 3 56 7 58 8 1 2 20 3 42 4 37 2 39 0 29 -17z m169 10 c28 -1 41 -5 37 -12
-4 -6 0 -9 11 -7 11 2 20 -4 22 -14 2 -10 -1 -18 -7 -18 -6 0 -11 5 -11 11 0
5 -6 7 -12 3 -18 -11 -48 -12 -41 -1 3 5 -3 7 -13 6 -11 -2 -35 7 -54 19 l-35
23 30 -5 c17 -2 49 -5 73 -5z m-563 -61 c3 -5 2 -10 -4 -10 -5 0 -13 5 -16 10
-3 6 -2 10 4 10 5 0 13 -4 16 -10z m520 -20 c3 -6 -1 -7 -9 -4 -18 7 -21 14
-7 14 6 0 13 -4 16 -10z m-527 -22 c7 -9 4 -23 -9 -48 -10 -19 -21 -43 -25
-52 -7 -21 -13 -21 -76 -5 -53 14 -72 27 -39 27 19 0 20 3 11 21 -16 28 -4 36
58 38 13 1 21 5 17 10 -3 5 5 12 17 14 13 2 26 5 29 6 4 0 11 -5 17 -11z m221
-66 c-8 -3 -149 65 -149 73 0 2 35 -13 78 -33 43 -20 75 -38 71 -40z m484 31
c-7 -2 -19 -2 -25 0 -7 3 -2 5 12 5 14 0 19 -2 13 -5z m-563 -28 c33 -19 21
-19 -21 0 -19 8 -27 14 -19 14 8 0 26 -6 40 -14z m540 -5 c0 -5 10 -6 23 -4
20 4 20 3 -3 -6 -17 -8 -26 -8 -28 -1 -2 6 -18 11 -35 11 -21 0 -27 3 -19 9
15 9 62 3 62 -9z m-647 -7 c-7 -2 -13 -9 -13 -14 0 -6 4 -7 10 -4 6 3 7 -1 4
-9 -8 -20 -7 -20 -32 3 -25 21 -19 31 17 30 14 0 20 -3 14 -6z m-171 -43 c8 0
18 -4 24 -8 5 -5 27 -14 49 -20 38 -11 40 -13 40 -51 0 -35 -2 -39 -23 -37
-12 2 -35 12 -49 24 -18 14 -29 18 -34 11 -9 -15 -47 49 -55 92 l-7 34 20 -22
c11 -13 27 -23 35 -23z m441 33 c-7 -2 -19 -2 -25 0 -7 3 -2 5 12 5 14 0 19
-2 13 -5z m354 1 c-3 -3 -12 -4 -19 -1 -8 3 -5 6 6 6 11 1 17 -2 13 -5z m-441
-19 c9 -8 27 -15 40 -15 14 0 22 -4 19 -10 -9 -14 8 -13 23 2 9 9 12 9 12 -1
0 -7 7 -10 18 -7 10 3 45 -1 77 -10 42 -11 83 -14 135 -10 49 4 68 3 55 -3
-11 -5 -32 -10 -47 -10 -16 -1 -28 -4 -28 -8 0 -8 -158 -10 -275 -4 -53 3 -56
4 -27 11 43 10 52 20 19 20 -15 0 -27 4 -27 10 0 5 8 7 18 4 9 -4 4 5 -13 20
-16 14 -26 25 -22 26 5 0 15 -7 23 -15z m165 -3 c-7 -2 -18 1 -23 6 -8 8 -4 9
13 5 13 -4 18 -8 10 -11z m89 -11 c0 -6 -4 -12 -8 -15 -5 -3 -9 1 -9 9 0 8 4
15 9 15 4 0 8 -4 8 -9z m185 -1 c-3 -5 -14 -10 -23 -9 -14 0 -13 2 3 9 27 11
27 11 20 0z m-610 -20 c7 -12 -2 -12 -30 0 -19 8 -19 9 2 9 12 1 25 -3 28 -9z
m36 -44 c28 0 36 -4 34 -15 -1 -9 -10 -15 -19 -15 -10 1 -16 -6 -16 -21 0 -19
-5 -21 -37 -19 -21 1 -41 2 -45 3 -13 2 -9 56 4 69 7 7 19 9 28 5 8 -3 31 -7
51 -7z m129 -23 c0 -8 -58 -58 -70 -60 -22 -4 -50 7 -50 19 0 7 5 7 14 -1 10
-9 20 -5 42 17 16 16 37 28 47 28 9 0 17 -1 17 -3z m-560 -117 c58 -12 97 -25
88 -28 -16 -7 -88 8 -168 35 -63 21 -42 19 80 -7z m153 -33 c-7 -2 -21 -2 -30
0 -10 3 -4 5 12 5 17 0 24 -2 18 -5z"/>
<path d="M1792 3510 c0 -14 2 -19 5 -12 2 6 2 18 0 25 -3 6 -5 1 -5 -13z"/>
<path d="M1856 3471 c-4 -7 -5 -15 -2 -18 9 -9 19 4 14 18 -4 11 -6 11 -12 0z"/>
<path d="M1595 3370 c-3 -5 -5 -10 -3 -11 42 -10 50 -9 38 6 -14 17 -26 19
-35 5z"/>
<path d="M1534 3359 c-3 -5 6 -9 20 -9 31 0 34 6 6 13 -11 3 -23 1 -26 -4z"/>
<path d="M1553 3325 c-40 -17 -42 -24 -7 -17 19 3 25 1 22 -8 -6 -20 30 -52
47 -43 7 4 14 13 14 18 1 6 9 10 19 10 27 1 42 14 41 38 -1 17 -2 18 -6 5 -2
-10 -8 -18 -13 -18 -5 0 -6 8 -3 18 6 15 5 16 -12 2 -11 -9 -16 -10 -11 -2 5
8 0 12 -15 12 -18 0 -20 -2 -9 -15 10 -13 11 -18 1 -28 -10 -9 -12 -9 -9 2 2
7 -3 16 -10 18 -9 4 -10 -1 -3 -21 8 -20 7 -24 -3 -20 -19 7 -26 40 -13 53 14
14 9 13 -30 -4z"/>
<path d="M1465 3280 c5 -15 4 -20 -4 -16 -7 4 -9 1 -5 -8 4 -11 19 -14 55 -12
27 2 49 6 49 10 0 3 -3 6 -7 5 -4 0 -10 7 -13 15 -4 14 -8 14 -33 1 -23 -12
-27 -12 -27 0 0 8 -5 17 -11 21 -8 4 -9 -1 -4 -16z"/>
<path d="M1590 3231 c0 -6 5 -13 10 -16 6 -4 8 -10 5 -15 -7 -11 5 -18 45 -25
18 -3 37 -8 42 -11 11 -7 10 3 -2 27 -6 10 -20 19 -31 19 -12 0 -17 -4 -13
-11 3 -6 -5 -3 -20 6 -14 9 -23 21 -20 26 3 5 0 9 -5 9 -6 0 -11 -4 -11 -9z"/>
<path d="M2366 3281 c-3 -5 0 -11 7 -14 8 -3 14 1 14 9 0 16 -13 19 -21 5z"/>
<path d="M1625 3040 c3 -5 -1 -10 -9 -10 -11 0 -13 -8 -10 -27 7 -39 13 -41
20 -5 4 20 11 29 18 25 6 -4 5 1 -3 10 -15 18 -26 23 -16 7z"/>
<path d="M1765 3000 c3 -5 8 -10 11 -10 2 0 4 5 4 10 0 6 -5 10 -11 10 -5 0
-7 -4 -4 -10z"/>
<path d="M1666 2975 c-3 -8 -1 -15 4 -15 6 0 10 7 10 15 0 8 -2 15 -4 15 -2 0
-6 -7 -10 -15z"/>
<path d="M1810 2514 c0 -8 5 -12 10 -9 6 4 8 11 5 16 -9 14 -15 11 -15 -7z"/>
<path d="M1690 2460 c0 -5 7 -7 15 -4 8 4 15 8 15 10 0 2 -7 4 -15 4 -8 0 -15
-4 -15 -10z"/>
<path d="M2077 2499 c4 -13 9 -17 15 -11 11 11 3 32 -12 32 -4 0 -6 -9 -3 -21z"/>
<path d="M1319 2453 c-11 -3 -15 -11 -12 -24 8 -28 31 -23 31 6 0 14 -1 24 -2
24 0 -1 -8 -3 -17 -6z"/>
<path d="M1286 2363 c-9 -10 -7 -73 3 -73 5 0 11 16 13 36 4 34 -3 50 -16 37z"/>
<path d="M2435 2159 c-4 -6 -5 -12 -2 -15 2 -3 7 2 10 11 7 17 1 20 -8 4z"/>
<path d="M1540 2010 c8 -5 24 -9 35 -9 l20 0 -20 9 c-11 5 -27 9 -35 9 -13 1
-13 0 0 -9z"/>
<path d="M1608 1993 c7 -3 16 -2 19 1 4 3 -2 6 -13 5 -11 0 -14 -3 -6 -6z"/>
<path d="M1658 1983 c7 -3 16 -2 19 1 4 3 -2 6 -13 5 -11 0 -14 -3 -6 -6z"/>
<path d="M1400 1320 c-9 -6 -10 -10 -3 -10 6 0 15 5 18 10 8 12 4 12 -15 0z"/>
<path d="M1560 1259 c0 -11 4 -18 10 -14 5 3 7 12 3 20 -7 21 -13 19 -13 -6z"/>
<path d="M1475 1220 c3 -5 8 -10 11 -10 2 0 4 5 4 10 0 6 -5 10 -11 10 -5 0
-7 -4 -4 -10z"/>
<path d="M1520 1220 c-13 -8 -13 -10 2 -10 9 0 20 5 23 10 8 13 -5 13 -25 0z"/>
<path d="M1585 1170 c3 -5 8 -10 11 -10 2 0 4 5 4 10 0 6 -5 10 -11 10 -5 0
-7 -4 -4 -10z"/>
<path d="M1867 986 c-4 -10 0 -12 14 -9 10 3 16 9 13 14 -8 13 -21 11 -27 -5z"/>
</g>
</svg>
