<?xml version="1.0" standalone="no"?>
<!DOCTYPE svg PUBLIC "-//W3C//DTD SVG 20010904//EN"
 "http://www.w3.org/TR/2001/REC-SVG-20010904/DTD/svg10.dtd">
<svg version="1.0" xmlns="http://www.w3.org/2000/svg"
 width="433.000000pt" height="626.000000pt" viewBox="0 0 433.000000 626.000000"
 preserveAspectRatio="xMidYMid meet">

<g transform="translate(0.000000,626.000000) scale(0.100000,-0.100000)"
fill="#000000" stroke="none">
<path d="M0 3130 l0 -3130 2165 0 2165 0 0 3130 0 3130 -2165 0 -2165 0 0
-3130z m2030 3025 c0 -8 -4 -15 -10 -15 -5 0 -10 7 -10 15 0 8 5 15 10 15 6 0
10 -7 10 -15z m50 -15 c0 -5 -4 -10 -10 -10 -5 0 -10 5 -10 10 0 6 5 10 10 10
6 0 10 -4 10 -10z m-130 -14 c0 -3 -4 -8 -10 -11 -5 -3 -10 -1 -10 4 0 6 5 11
10 11 6 0 10 -2 10 -4z m151 -43 c13 -16 12 -17 -3 -4 -10 7 -18 15 -18 17 0
8 8 3 21 -13z m-172 -9 c-14 -17 -39 -18 -39 -1 0 6 11 13 25 13 21 2 24 -1
14 -12z m119 -23 c3 -8 -1 -12 -9 -9 -7 2 -15 10 -17 17 -3 8 1 12 9 9 7 -2
15 -10 17 -17z m102 -11 c0 -5 -5 -10 -11 -10 -5 0 -7 5 -4 10 3 6 8 10 11 10
2 0 4 -4 4 -10z m-163 -136 c-3 -3 -12 -4 -19 -1 -8 3 -5 6 6 6 11 1 17 -2 13
-5z m-91 -29 c-11 -8 -24 -15 -30 -15 -5 0 -1 7 10 15 10 8 24 14 29 14 6 0 1
-6 -9 -14z m-1 -84 c-3 -6 -11 -11 -17 -11 -6 0 -6 6 2 15 14 17 26 13 15 -4z
m330 9 c3 -5 2 -10 -4 -10 -5 0 -13 5 -16 10 -3 6 -2 10 4 10 5 0 13 -4 16
-10z m-85 -36 c0 -8 -4 -12 -10 -9 -5 3 -10 10 -10 16 0 5 5 9 10 9 6 0 10 -7
10 -16z m-330 -39 c0 -8 -2 -15 -4 -15 -2 0 -6 7 -10 15 -3 8 -1 15 4 15 6 0
10 -7 10 -15z m335 -35 c3 -5 2 -10 -4 -10 -5 0 -13 5 -16 10 -3 6 -2 10 4 10
5 0 13 -4 16 -10z m-145 -37 c0 -13 -3 -13 -15 -3 -8 7 -15 16 -15 21 0 5 7 6
15 3 8 -4 15 -13 15 -21z m-100 13 c0 -9 -30 -14 -35 -6 -4 6 3 10 14 10 12 0
21 -2 21 -4z m127 -122 c-3 -3 -12 -4 -19 -1 -8 3 -5 6 6 6 11 1 17 -2 13 -5z
m153 -104 c0 -11 -4 -20 -10 -20 -5 0 -10 2 -10 4 0 2 -3 11 -6 20 -4 11 -1
16 10 16 9 0 16 -8 16 -20z m-90 -16 c0 -8 -4 -12 -10 -9 -5 3 -10 13 -10 21
0 8 5 12 10 9 6 -3 10 -13 10 -21z m-195 7 c3 -5 1 -12 -5 -16 -5 -3 -10 1
-10 9 0 18 6 21 15 7z m-30 -221 c3 -5 1 -10 -4 -10 -6 0 -11 5 -11 10 0 6 2
10 4 10 3 0 8 -4 11 -10z m53 -28 c3 -9 -2 -13 -14 -10 -9 1 -19 9 -22 16 -3
9 2 13 14 10 9 -1 19 -9 22 -16z m293 -102 c13 -8 19 -7 19 0 0 7 9 9 23 5 82
-22 106 -29 141 -42 21 -7 41 -12 44 -9 2 3 17 -3 32 -14 16 -11 32 -20 37
-20 24 0 163 -154 163 -180 0 -6 4 -10 9 -10 5 0 13 -15 17 -32 3 -18 14 -38
23 -45 10 -8 12 -12 4 -13 -7 0 -12 -8 -11 -17 1 -10 0 -29 0 -42 -2 -20 -5
-22 -14 -13 -7 7 -41 12 -81 12 -43 0 -66 4 -62 10 3 6 2 10 -4 10 -5 0 -12
-4 -15 -9 -8 -12 -66 -20 -72 -9 -3 5 -12 3 -21 -3 -11 -10 -19 -10 -34 -1
-15 10 -24 10 -42 0 -12 -7 -32 -13 -44 -13 -12 0 -25 -4 -28 -7 -12 -12 -35
4 -35 22 0 10 7 26 16 35 12 11 14 19 6 27 -12 12 -35 1 -27 -13 4 -5 1 -17
-4 -26 -7 -12 -10 -13 -11 -4 0 7 -6 11 -15 8 -8 -4 -17 -2 -20 4 -4 5 0 12 7
14 9 4 14 20 13 48 -1 23 1 47 4 52 10 18 9 35 0 35 -5 0 -9 -4 -9 -10 0 -5
-7 -10 -15 -10 -10 0 -15 7 -13 18 2 9 -3 17 -9 17 -7 0 -13 -3 -13 -7 0 -5 0
-15 0 -23 0 -8 6 -15 14 -15 18 0 29 -17 21 -31 -5 -7 -15 -5 -31 6 -13 8 -24
11 -24 5 0 -5 -7 -10 -16 -10 -10 0 -14 7 -12 18 2 9 8 16 14 15 5 -1 10 14
11 33 1 29 -1 34 -15 30 -27 -9 -41 6 -35 37 4 21 10 27 24 24 12 -3 16 0 12
9 -3 8 -15 14 -28 14 -26 0 -42 29 -23 41 17 11 5 21 -16 13 -9 -3 -16 -13
-16 -22 0 -13 -2 -14 -12 -3 -10 11 -10 14 0 18 6 3 12 12 12 22 0 14 -7 16
-35 13 -41 -5 -48 15 -7 21 21 3 19 4 -11 6 -22 0 -36 -3 -32 -8 3 -6 -6 -9
-21 -8 -22 2 -39 -12 -50 -41 -1 -1 -9 0 -18 4 -9 3 -13 10 -10 15 3 5 -1 9
-8 9 -7 1 -2 7 13 15 45 25 304 44 340 25z m-371 -34 c0 -2 -7 -6 -15 -10 -8
-3 -15 -1 -15 4 0 6 7 10 15 10 8 0 15 -2 15 -4z m130 -12 c0 -1 -4 -14 -10
-28 -5 -15 -6 -26 0 -26 5 0 8 -9 7 -20 -1 -12 -8 -20 -20 -20 -14 0 -17 5
-12 19 3 11 1 23 -6 27 -8 5 -4 13 12 25 20 15 21 19 7 19 -10 0 -18 4 -18 9
0 5 9 7 20 4 11 -3 20 -7 20 -9z m-174 -13 c0 -11 -5 -17 -13 -14 -7 3 -13 11
-13 19 0 8 6 14 13 14 7 0 13 -8 13 -19z m-39 3 c-3 -3 -12 -4 -19 -1 -8 3 -5
6 6 6 11 1 17 -2 13 -5z m261 -13 c3 -8 -1 -12 -9 -9 -7 2 -15 10 -17 17 -3 8
1 12 9 9 7 -2 15 -10 17 -17z m-321 -3 c-4 -14 29 -48 46 -48 6 0 8 -3 5 -6
-4 -3 -19 1 -36 10 -16 8 -33 12 -37 8 -5 -4 -5 1 -2 11 4 10 7 23 7 28 0 5 5
9 11 9 6 0 9 -6 6 -12z m73 -23 c0 -14 -37 -2 -48 15 -12 20 -12 21 18 5 16
-8 30 -18 30 -20z m79 -14 c-15 -5 -22 6 -14 19 6 9 10 9 16 -1 5 -8 4 -15 -2
-18z m186 9 c6 -10 -34 -45 -42 -36 -4 4 -1 12 7 17 11 8 12 12 3 16 -7 2 -13
8 -13 13 0 9 38 1 45 -10z m-380 1 c-6 -5 -21 -11 -35 -15 -21 -5 -20 -3 5 9
35 17 42 18 30 6z m245 -1 c0 -5 -4 -10 -10 -10 -5 0 -10 5 -10 10 0 6 5 10
10 10 6 0 10 -4 10 -10z m-106 -15 c-4 -8 -11 -15 -16 -15 -6 0 -5 6 2 15 7 8
14 15 16 15 2 0 1 -7 -2 -15z m285 -8 c8 -10 7 -17 -1 -25 -7 -7 -8 -12 -4
-12 5 0 3 -7 -5 -16 -10 -12 -10 -17 -1 -23 7 -4 13 -25 15 -47 1 -21 7 -42
12 -46 6 -4 -1 -8 -14 -8 -18 0 -22 3 -15 10 14 14 -5 90 -23 90 -7 0 -10 -7
-7 -15 4 -8 1 -15 -5 -15 -6 0 -11 14 -11 30 0 22 5 30 18 31 10 0 12 3 5 6
-26 10 -13 48 18 52 4 1 11 -5 18 -12z m-494 -6 c3 -5 2 -12 -3 -15 -5 -3 -9
1 -9 9 0 17 3 19 12 6z m253 -2 c-2 -6 -8 -10 -13 -10 -5 0 -11 4 -13 10 -2 6
4 11 13 11 9 0 15 -5 13 -11z m30 -28 c3 -8 -1 -12 -9 -9 -7 2 -15 10 -17 17
-3 8 1 12 9 9 7 -2 15 -10 17 -17z m-113 -1 c13 -6 15 -9 5 -9 -8 0 -22 4 -30
9 -18 12 -2 12 25 0z m223 -28 c11 -10 10 -12 -8 -9 -21 3 -40 22 -40 41 0 8
20 -5 48 -32z m12 28 c0 -5 -2 -10 -4 -10 -3 0 -8 5 -11 10 -3 6 -1 10 4 10 6
0 11 -4 11 -10z m-320 -10 c0 -5 -5 -10 -11 -10 -5 0 -7 5 -4 10 3 6 8 10 11
10 2 0 4 -4 4 -10z m25 -40 c3 -5 1 -10 -4 -10 -6 0 -11 5 -11 10 0 6 2 10 4
10 3 0 8 -4 11 -10z m199 -24 c-3 -9 -10 -13 -15 -10 -5 3 -3 11 4 19 15 16
19 13 11 -9z m76 15 c0 -12 -20 -25 -27 -18 -7 7 6 27 18 27 5 0 9 -4 9 -9z
m-110 -5 c0 -3 -4 -8 -10 -11 -5 -3 -10 -1 -10 4 0 6 5 11 10 11 6 0 10 -2 10
-4z m258 -14 c6 -18 -15 -14 -22 4 -4 10 -1 14 6 12 6 -2 14 -10 16 -16z
m-358 -16 c0 -2 -7 -7 -16 -10 -8 -3 -12 -2 -9 4 6 10 25 14 25 6z m146 -23
c-10 -10 -19 5 -10 18 6 11 8 11 12 0 2 -7 1 -15 -2 -18z m-236 -3 c0 -5 -2
-10 -4 -10 -3 0 -8 5 -11 10 -3 6 -1 10 4 10 6 0 11 -4 11 -10z m-40 -20 c0
-5 -4 -10 -10 -10 -5 0 -10 5 -10 10 0 6 5 10 10 10 6 0 10 -4 10 -10z m220 0
c0 -5 -5 -10 -11 -10 -5 0 -7 5 -4 10 3 6 8 10 11 10 2 0 4 -4 4 -10z m40 -19
c0 -6 -4 -13 -10 -16 -5 -3 -10 1 -10 9 0 9 5 16 10 16 6 0 10 -4 10 -9z m65
-1 c3 -5 1 -10 -4 -10 -6 0 -11 5 -11 10 0 6 2 10 4 10 3 0 8 -4 11 -10z m125
-16 c0 -8 -4 -14 -9 -14 -11 0 -22 26 -14 34 9 9 23 -3 23 -20z m37 0 c-9 -9
-28 6 -21 18 4 6 10 6 17 -1 6 -6 8 -13 4 -17z m83 -11 l0 -28 -20 25 c-15 20
-20 21 -20 8 0 -9 -4 -20 -10 -23 -6 -4 -10 5 -10 19 0 22 4 26 30 26 26 0 30
-4 30 -27z m-776 -1 c-25 -4 -40 -42 -21 -54 9 -6 9 -8 0 -8 -7 0 -17 10 -24
21 -8 15 -8 19 0 15 6 -4 11 -1 11 8 0 18 30 37 45 28 5 -4 0 -8 -11 -10z m66
-3 c0 -6 -4 -7 -10 -4 -5 3 -10 11 -10 16 0 6 5 7 10 4 6 -3 10 -11 10 -16z
m70 1 c0 -5 -5 -10 -11 -10 -5 0 -7 5 -4 10 3 6 8 10 11 10 2 0 4 -4 4 -10z
m380 0 c0 -5 -4 -10 -10 -10 -5 0 -10 5 -10 10 0 6 5 10 10 10 6 0 10 -4 10
-10z m-597 -27 c-7 -2 -19 -2 -25 0 -7 3 -2 5 12 5 14 0 19 -2 13 -5z m187 3
c0 -11 -19 -15 -25 -6 -3 5 1 10 9 10 9 0 16 -2 16 -4z m300 -16 c0 -5 -5 -10
-11 -10 -5 0 -7 5 -4 10 3 6 8 10 11 10 2 0 4 -4 4 -10z m140 1 c0 -6 -4 -12
-8 -15 -5 -3 -9 1 -9 9 0 8 4 15 9 15 4 0 8 -4 8 -9z m203 -11 c-3 -11 -9 -20
-14 -20 -10 0 -12 24 -2 33 13 13 21 7 16 -13z m-803 -7 c0 -10 -4 -14 -8 -8
-4 6 -11 13 -16 18 -5 4 -2 7 7 7 10 0 17 -8 17 -17z m117 -5 c-3 -8 -6 -5 -6
6 -1 11 2 17 5 13 3 -3 4 -12 1 -19z m533 12 c0 -5 -4 -10 -10 -10 -5 0 -10 5
-10 10 0 6 5 10 10 10 6 0 10 -4 10 -10z m50 -16 c0 -8 -4 -12 -10 -9 -5 3
-10 10 -10 16 0 5 5 9 10 9 6 0 10 -7 10 -16z m-540 -4 c0 -5 -4 -10 -10 -10
-5 0 -10 5 -10 10 0 6 5 10 10 10 6 0 10 -4 10 -10z m130 0 c0 -5 -4 -10 -10
-10 -5 0 -10 5 -10 10 0 6 5 10 10 10 6 0 10 -4 10 -10z m-240 -10 c0 -5 -5
-10 -11 -10 -5 0 -7 5 -4 10 3 6 8 10 11 10 2 0 4 -4 4 -10z m820 -21 c0 -5
-7 -6 -15 -3 -8 4 -15 13 -15 21 0 13 3 13 15 3 8 -7 15 -16 15 -21z m-890 12
c0 -5 -7 -12 -16 -15 -14 -5 -15 -4 -4 9 14 17 20 19 20 6z m610 -5 c0 -3 -4
-8 -10 -11 -5 -3 -10 -1 -10 4 0 6 5 11 10 11 6 0 10 -2 10 -4z m76 -21 c-3
-8 0 -16 7 -19 7 -2 8 -5 2 -5 -20 -1 -38 17 -32 34 4 9 12 13 18 10 6 -4 8
-13 5 -20z m-651 -5 c-3 -5 -10 -10 -16 -10 -5 0 -9 5 -9 10 0 6 7 10 16 10 8
0 12 -4 9 -10z m162 -12 c-3 -8 -6 -5 -6 6 -1 11 2 17 5 13 3 -3 4 -12 1 -19z
m233 12 c0 -5 -7 -10 -15 -10 -8 0 -15 5 -15 10 0 6 7 10 15 10 8 0 15 -4 15
-10z m350 0 c0 -5 -10 -10 -22 -10 -19 0 -20 2 -8 10 19 13 30 13 30 0z m505
-30 c-27 -16 -57 -30 -65 -29 -13 0 16 19 75 48 44 21 37 9 -10 -19z m-915
-29 c0 -5 -7 -12 -16 -15 -14 -5 -15 -4 -4 9 14 17 20 19 20 6z m-366 -9 c3
-5 -8 -16 -25 -26 -28 -17 -29 -17 -29 5 0 15 4 19 16 15 8 -3 12 -2 9 4 -3 6
1 10 9 10 8 0 17 -4 20 -8z m1151 -18 c-18 -13 -35 -11 -35 5 0 5 12 9 27 9
25 0 25 -1 8 -14z m-1195 -44 c0 -5 -9 -10 -21 -10 -11 0 -17 5 -14 10 3 6 13
10 21 10 8 0 14 -4 14 -10z m1427 -18 c14 -8 20 -18 16 -31 -7 -26 15 -64 33
-57 8 3 21 9 29 12 10 4 15 0 15 -14 0 -18 -5 -20 -37 -17 -21 1 -44 3 -51 4
-9 1 -13 13 -11 39 3 39 -5 62 -22 62 -5 0 -9 -5 -9 -11 0 -5 5 -7 10 -4 6 3
10 -1 10 -9 0 -9 -5 -16 -11 -16 -6 0 -8 -9 -4 -20 4 -14 2 -20 -8 -20 -17 0
-30 -27 -20 -42 3 -7 1 -8 -5 -4 -7 4 -12 1 -12 -7 0 -21 12 -28 26 -16 10 9
15 7 20 -4 3 -8 18 -21 34 -27 24 -10 27 -15 20 -34 -7 -20 -6 -22 16 -18 13
2 24 8 24 13 0 4 9 7 20 6 25 -2 25 -9 0 -32 -18 -16 -20 -26 -14 -74 4 -31
14 -66 24 -78 l17 -22 32 20 c42 25 40 61 -4 66 -16 3 -32 6 -34 9 -9 8 43 54
61 54 20 0 24 -20 8 -36 -7 -7 -4 -19 10 -36 13 -17 18 -33 13 -45 -6 -17 -5
-16 17 2 l23 20 -23 -32 c-22 -30 -39 -46 -25 -23 4 6 -5 10 -20 10 -31 0 -46
-28 -22 -42 9 -5 22 -19 28 -31 l12 -22 -25 23 c-16 15 -31 20 -43 16 -15 -6
-16 -4 -7 12 9 17 6 23 -17 38 -15 11 -34 33 -41 50 -7 17 -16 35 -18 40 -3 5
1 5 8 1 9 -5 11 -4 6 4 -6 8 -12 9 -20 2 -7 -6 -16 -8 -20 -4 -4 4 -4 -11 0
-33 5 -36 3 -43 -20 -62 -27 -20 -27 -20 -6 -35 28 -19 16 -44 -20 -44 -17 0
-30 4 -30 9 0 4 -9 8 -20 8 -10 0 -30 12 -44 26 -17 19 -31 25 -48 22 -26 -5
-53 16 -43 33 4 5 16 7 28 4 12 -3 -4 8 -36 25 l-57 30 21 29 c12 16 27 27 34
25 6 -3 18 2 25 11 11 14 11 18 1 25 -8 4 -10 13 -6 20 5 8 14 5 31 -11 17
-16 24 -18 24 -8 0 8 -9 20 -20 27 -20 12 -20 14 -3 42 9 17 24 30 31 30 9 0
12 7 9 20 -3 11 -1 18 3 15 5 -3 16 5 25 17 13 20 17 21 25 8 5 -8 10 -10 10
-5 0 6 -7 20 -15 33 -14 20 -14 21 0 16 12 -5 15 1 15 29 0 30 3 34 20 30 13
-3 20 0 20 8 0 9 3 10 8 3 4 -6 17 -16 29 -22z m96 -37 c-3 -9 -8 -14 -10 -11
-3 3 -2 9 2 15 9 16 15 13 8 -4z m52 -45 c3 -5 4 -10 1 -10 -2 0 -12 -3 -20
-6 -12 -5 -15 -2 -10 10 7 18 20 21 29 6z m40 -23 c-4 -12 -1 -35 4 -50 11
-27 -1 -38 -16 -14 -9 14 -13 57 -8 75 8 22 26 13 20 -11z m-367 -41 c-6 -14
-15 -26 -20 -26 -12 0 -10 14 6 35 8 11 12 26 9 35 -3 11 -2 11 6 -2 8 -12 8
-24 -1 -42z m332 34 c0 -5 -8 -10 -17 -10 -15 0 -16 2 -3 10 19 12 20 12 20 0z
m-720 -65 c0 -1 -12 -2 -26 -2 -17 0 -22 2 -13 7 10 7 39 3 39 -5z m700 11 c0
-9 -40 -13 -46 -5 -3 5 6 9 20 9 14 0 26 -2 26 -4z m-435 -34 c1 -11 -6 -17
-20 -17 -21 0 -21 1 -6 22 17 23 24 22 26 -5z m-351 -38 c3 -8 2 -12 -4 -9 -6
3 -10 10 -10 16 0 14 7 11 14 -7z m42 -1 c-3 -10 1 -31 9 -47 16 -31 15 -36
-9 -40 -8 -1 -29 -15 -47 -30 -24 -22 -30 -34 -27 -57 3 -19 0 -29 -8 -29 -20
0 -35 -61 -25 -97 6 -20 6 -35 0 -38 -5 -4 -9 0 -9 8 0 24 -28 41 -43 28 -11
-8 -18 -6 -32 9 -18 20 -17 20 20 20 34 0 36 2 24 17 -8 9 -13 24 -11 35 2 10
-2 18 -8 18 -6 0 -8 -4 -5 -10 3 -5 -3 -10 -15 -10 -15 0 -20 5 -18 18 2 9 10
16 17 14 9 -2 11 3 7 14 -5 14 -4 15 9 4 15 -13 20 -5 16 27 -1 7 5 10 13 7 8
-3 19 3 26 15 8 16 17 20 35 15 23 -6 25 -4 25 32 0 28 3 35 9 25 7 -12 14 -5
26 27 17 41 32 59 21 25z m315 -9 c12 -14 11 -16 -5 -13 -11 2 -21 10 -24 17
-5 17 13 15 29 -4z m456 -6 c-3 -8 -6 -5 -6 6 -1 11 2 17 5 13 3 -3 4 -12 1
-19z m-608 -19 c-7 -4 -18 -5 -26 -2 -10 4 -11 9 -2 19 9 11 15 12 26 3 11 -9
11 -14 2 -20z m710 -24 c0 -5 -6 -1 -14 9 -8 11 -15 24 -15 30 0 5 7 1 15 -10
8 -10 14 -23 14 -29z m-163 8 c-7 -7 -26 7 -26 19 0 6 6 6 15 -2 9 -7 13 -15
11 -17z m-466 7 c0 -5 -4 -10 -10 -10 -5 0 -10 5 -10 10 0 6 5 10 10 10 6 0
10 -4 10 -10z m-58 -22 c-7 -7 -12 -8 -12 -2 0 14 12 26 19 19 2 -3 -1 -11 -7
-17z m-99 -5 c-8 -23 -33 -53 -44 -53 -5 0 -1 16 8 35 17 36 48 51 36 18z
m190 -15 c6 -22 5 -22 -8 -4 -17 22 -20 40 -6 32 5 -3 11 -16 14 -28z m-673
-16 c3 -2 -6 -2 -20 0 -20 2 -25 -1 -23 -17 1 -11 -4 -23 -10 -27 -6 -4 -9
-10 -5 -13 3 -3 12 1 20 8 13 13 16 12 26 -4 17 -26 15 -29 -14 -29 -14 0 -37
9 -51 20 -22 17 -23 20 -7 20 14 0 15 3 6 12 -18 18 -15 26 11 30 16 2 21 9
18 23 -3 20 -3 20 20 0 13 -11 26 -21 29 -23z m133 6 c6 -15 18 -29 27 -32 9
-2 5 -4 -7 -5 -13 0 -23 5 -23 12 0 6 -7 3 -16 -8 -13 -17 -16 -18 -24 -5 -5
8 -11 18 -12 22 -2 4 -18 8 -35 10 -18 1 -33 8 -33 14 0 16 14 20 67 20 37 -1
45 -5 56 -28z m1096 23 c11 -7 9 -10 -8 -16 -13 -4 -25 -4 -28 -1 -4 3 2 6 13
6 16 0 17 2 4 10 -8 5 -10 10 -5 10 6 0 16 -4 24 -9z m-675 -10 c3 -5 -1 -11
-9 -15 -9 -3 -15 0 -15 9 0 16 16 20 24 6z m-64 -41 c0 -5 -7 -10 -15 -10 -8
0 -15 5 -15 10 0 6 7 10 15 10 8 0 15 -4 15 -10z m-407 -24 c3 -8 14 -15 24
-16 10 0 33 -1 51 -1 25 -1 32 -5 30 -18 -4 -21 -49 -27 -63 -8 -12 17 -63 25
-83 14 -6 -5 -12 -4 -12 2 0 6 -7 11 -15 11 -8 0 -15 6 -15 13 0 18 76 21 83
3z m117 4 c0 -5 -5 -10 -11 -10 -5 0 -7 5 -4 10 3 6 8 10 11 10 2 0 4 -4 4
-10z m310 -25 c0 -19 5 -25 21 -25 11 0 17 -4 14 -10 -10 -17 -50 -11 -75 10
-20 17 -22 25 -4 18 3 -2 10 5 15 15 14 25 29 21 29 -8z m250 5 c0 -5 -4 -10
-10 -10 -5 0 -10 5 -10 10 0 6 5 10 10 10 6 0 10 -4 10 -10z m326 -21 c3 -6 1
-16 -5 -22 -6 -6 -11 -19 -11 -29 0 -10 -5 -18 -11 -18 -9 0 -9 13 1 78 1 7
20 1 26 -9z m-1592 -15 c3 -9 6 -23 6 -32 -1 -12 -5 -10 -15 8 -8 14 -14 28
-15 33 0 13 18 7 24 -9z m372 -16 c-9 -5 -22 -7 -29 -4 -7 2 -4 5 6 5 9 1 17
6 17 12 0 5 5 7 11 3 8 -5 6 -10 -5 -16z m58 7 c8 -8 19 -15 25 -15 6 0 11 -6
11 -14 0 -8 5 -16 12 -18 7 -3 9 -12 4 -24 -7 -17 -9 -17 -22 9 -8 15 -19 27
-24 27 -6 0 -10 7 -10 15 0 7 -8 19 -17 24 -10 6 -13 11 -6 11 6 0 18 -7 27
-15z m711 5 c-3 -5 -12 -10 -18 -10 -7 0 -6 4 3 10 19 12 23 12 15 0z m-587
-11 c-23 -13 -23 -35 2 -66 31 -39 24 -45 -12 -10 -18 18 -29 35 -24 38 5 4 6
11 2 17 -6 11 20 31 39 31 6 0 2 -4 -7 -10z m127 -19 c-3 -5 -1 -10 6 -10 7 0
10 -3 6 -6 -9 -9 -28 6 -22 17 4 5 8 9 11 9 3 0 2 -4 -1 -10z m-42 -20 c3 -13
0 -20 -9 -20 -8 0 -14 9 -14 20 0 11 4 20 9 20 5 0 11 -9 14 -20z m385 -5 c6
-14 10 -25 8 -25 -2 0 -11 11 -20 25 -9 14 -13 25 -8 25 5 0 14 -11 20 -25z
m356 -6 c-3 -5 -10 -7 -15 -3 -5 3 -7 10 -3 15 3 5 10 7 15 3 5 -3 7 -10 3
-15z m-1169 -6 c11 0 23 4 26 10 4 5 22 -5 40 -22 24 -21 29 -31 18 -31 -9 0
-22 7 -29 15 -7 8 -18 15 -24 15 -6 0 -3 -5 7 -11 9 -5 17 -14 17 -18 0 -16
-32 -22 -47 -9 -13 10 -15 9 -12 -7 3 -12 14 -21 27 -23 28 -4 26 -34 -1 -38
-39 -5 -48 -13 -38 -31 10 -21 -7 -42 -28 -35 -11 4 -11 6 0 13 11 8 11 11 -4
20 -9 6 -15 15 -12 20 4 5 11 7 16 4 5 -4 9 0 9 8 0 8 10 17 22 20 l22 6 -24
26 c-13 14 -29 25 -36 25 -7 0 -17 8 -23 17 -7 13 -4 20 12 28 12 7 27 9 32 5
6 -4 19 -7 30 -7z m620 -3 c-3 -5 -12 -10 -18 -10 -7 0 -6 4 3 10 19 12 23 12
15 0z m585 1 c0 -5 -7 -11 -15 -15 -22 -8 -18 -26 5 -26 11 0 20 -4 20 -9 0
-13 -53 -6 -58 8 -2 6 -10 11 -18 11 -8 0 -14 5 -14 10 0 6 14 10 30 10 17 0
30 5 30 10 0 6 5 10 10 10 6 0 10 -4 10 -9z m-445 -11 c-3 -5 -12 -7 -20 -3
-21 7 -19 13 6 13 11 0 18 -4 14 -10z m195 -50 c9 -33 3 -70 -12 -70 -6 0 -7
11 -3 27 6 24 5 25 -11 12 -14 -11 -16 -11 -10 -1 5 8 8 33 8 55 -1 34 1 38
10 24 5 -10 14 -31 18 -47z m-114 24 c-21 -20 -28 -17 -16 6 6 11 15 18 21 15
5 -4 3 -12 -5 -21z m-542 0 c9 -8 16 -20 16 -27 0 -6 -7 -2 -15 9 -9 12 -14
14 -15 6 0 -7 -4 -11 -10 -7 -5 3 -7 12 -3 20 7 19 8 19 27 -1z m439 -39 c12
-8 16 -15 9 -15 -9 0 -11 -7 -7 -20 3 -11 2 -20 -3 -20 -9 0 -14 17 -25 80 -2
14 -2 17 0 8 2 -10 14 -25 26 -33z m561 22 c-9 -24 -23 -11 -17 14 3 12 9 17
15 11 5 -5 6 -16 2 -25z m-621 -17 c3 -11 1 -20 -4 -20 -5 0 -9 2 -9 4 0 2 -3
11 -6 20 -3 9 -2 16 4 16 5 0 12 -9 15 -20z m227 -18 c0 -7 -4 -10 -10 -7 -5
3 -10 16 -10 28 0 18 2 19 10 7 5 -8 10 -21 10 -28z m242 6 c-7 -7 -12 -19
-12 -28 0 -9 -11 -22 -25 -28 -34 -16 -40 -15 -25 3 7 8 16 13 20 10 4 -3 11
2 14 11 8 22 8 26 -4 19 -5 -3 -10 3 -10 14 0 11 8 21 18 24 24 5 39 -10 24
-25z m-782 3 c0 -5 -9 -7 -20 -4 -11 3 -20 7 -20 9 0 2 9 4 20 4 11 0 20 -4
20 -9z m440 5 c0 -2 -3 -12 -6 -20 -5 -13 -9 -14 -20 -5 -20 16 -17 29 6 29
11 0 20 -2 20 -4z m-1280 -26 c0 -5 -4 -10 -10 -10 -5 0 -10 5 -10 10 0 6 5
10 10 10 6 0 10 -4 10 -10z m418 -99 c11 -6 45 -18 74 -26 l53 -15 -44 5 c-71
9 -138 51 -191 121 -8 10 8 -2 36 -27 28 -26 60 -51 72 -58z m1129 77 c-3 -8
-6 -5 -6 6 -1 11 2 17 5 13 3 -3 4 -12 1 -19z m-63 -4 c4 -10 1 -14 -6 -12
-15 5 -23 28 -10 28 5 0 13 -7 16 -16z m203 -17 c2 -17 1 -19 -7 -7 -11 17
-14 47 -3 36 4 -3 8 -17 10 -29z m-167 -17 c0 -5 -2 -10 -4 -10 -3 0 -8 5 -11
10 -3 6 -1 10 4 10 6 0 11 -4 11 -10z m104 -15 c19 -15 19 -15 -1 -15 -11 0
-26 7 -33 15 -17 20 7 20 34 0z m-981 -45 c-3 -3 -9 4 -15 14 -8 15 -12 16
-19 5 -4 -7 -11 -11 -14 -7 -3 3 2 13 11 22 16 16 17 16 29 -6 6 -13 10 -25 8
-28z m834 18 c-3 -7 -5 -2 -5 12 0 14 2 19 5 13 2 -7 2 -19 0 -25z m-677 12
c0 -5 -7 -7 -15 -4 -8 4 -15 8 -15 10 0 2 7 4 15 4 8 0 15 -4 15 -10z m933
-10 c3 -11 1 -20 -4 -20 -5 0 -9 9 -9 20 0 11 2 20 4 20 2 0 6 -9 9 -20z
m-1068 -49 c22 -10 50 -29 62 -43 23 -24 108 -216 100 -224 -2 -3 -17 26 -33
63 -45 109 -101 175 -176 208 -23 10 -27 14 -13 14 11 0 38 -8 60 -18z m807
-1 c34 -26 47 -114 24 -158 -29 -57 -84 -83 -106 -51 -3 5 -54 21 -113 36
l-107 27 -28 -21 c-41 -31 -66 -78 -53 -101 8 -16 7 -21 -5 -26 -38 -15 -28
78 14 115 88 81 175 125 254 131 30 2 38 7 49 35 15 38 35 42 71 13z m171 -11
c4 -16 3 -18 -9 -8 -16 13 -19 29 -5 29 5 0 11 -9 14 -21z m37 5 c0 -14 -3
-14 -15 -4 -8 7 -15 14 -15 16 0 2 7 4 15 4 8 0 15 -7 15 -16z m-874 -66 c2
-9 22 -32 42 -50 30 -27 38 -42 40 -74 2 -21 7 -40 12 -42 6 -2 10 -10 10 -17
0 -8 10 -21 23 -31 12 -9 15 -14 6 -11 -29 10 -44 -8 -31 -37 6 -14 8 -27 3
-30 -10 -6 -47 69 -77 158 -13 37 -35 89 -49 113 -14 25 -25 49 -25 54 0 15
40 -14 46 -33z m918 -4 c3 -8 2 -12 -4 -9 -6 3 -10 10 -10 16 0 14 7 11 14 -7z
m-1410 -3 c3 -5 -1 -14 -8 -20 -12 -10 -13 -8 -9 8 6 23 9 25 17 12z m1404
-36 c-3 -3 -9 2 -12 12 -6 14 -5 15 5 6 7 -7 10 -15 7 -18z m-1347 -9 c5 3 9
-2 9 -10 0 -8 -4 -17 -9 -20 -9 -6 -22 17 -20 37 0 8 2 8 6 -1 2 -6 9 -10 14
-6z m298 -16 c12 -36 -1 -40 -17 -5 -14 31 -15 35 -3 35 5 0 14 -13 20 -30z
m-395 -15 c-6 -16 -24 -21 -24 -7 0 11 11 22 21 22 5 0 6 -7 3 -15z m-50 -4
c3 -5 -1 -14 -8 -20 -16 -13 -32 2 -21 19 8 12 22 13 29 1z m731 -56 c0 -14
-3 -25 -8 -25 -4 0 -5 -6 -1 -12 4 -7 3 -10 -1 -5 -11 10 -17 47 -10 66 7 19
18 6 20 -24z m-610 -12 c-4 -10 -8 -29 -7 -43 0 -16 -1 -19 -4 -7 -3 9 -9 17
-14 17 -11 0 0 43 14 52 15 10 20 2 11 -19z m1166 -24 c33 -17 79 -19 79 -3 0
8 5 14 11 14 5 0 8 -4 5 -9 -4 -6 5 -6 21 -2 16 4 42 3 58 -2 37 -12 90 -63
72 -70 -7 -3 -5 -6 5 -6 15 -1 38 -28 38 -45 0 -3 -17 -6 -37 -6 -31 0 -44 7
-72 38 -19 20 -31 29 -28 20 4 -12 1 -18 -8 -18 -8 0 -15 9 -15 19 0 24 -16
36 -23 19 -3 -8 -6 -6 -6 5 -1 13 -10 17 -35 17 -32 0 -106 25 -106 35 0 8 20
6 41 -6z m-201 -9 c0 -5 -8 -10 -17 -10 -15 0 -16 2 -3 10 19 12 20 12 20 0z
m151 -13 c-13 -13 -26 -3 -16 12 3 6 11 8 17 5 6 -4 6 -10 -1 -17z m-474 -9
c2 -18 0 -20 -7 -8 -12 18 -13 30 -2 30 4 0 9 -10 9 -22z m203 -17 c0 -5 -7
-16 -15 -24 -8 -8 -12 -16 -10 -19 2 -2 -5 -4 -16 -5 -20 -2 -18 8 9 40 16 19
32 23 32 8z m315 -1 c3 -5 -1 -10 -9 -10 -9 0 -16 5 -16 10 0 6 4 10 9 10 6 0
13 -4 16 -10z m45 -20 c8 -5 12 -12 9 -15 -8 -8 -39 5 -39 16 0 11 11 11 30
-1z m-280 -20 c-8 -14 -8 -20 0 -20 6 0 9 -4 6 -9 -3 -5 1 -11 9 -15 32 -12
13 -22 -42 -22 -32 0 -74 -4 -93 -8 -48 -12 -28 6 33 28 33 12 47 23 47 36 0
18 12 28 38 29 10 1 10 -4 2 -19z m221 -4 c1 -6 1 -15 -1 -21 -1 -5 4 -4 11 3
19 18 29 15 29 -8 0 -15 -7 -20 -29 -20 -35 0 -91 -19 -91 -31 0 -17 64 -49
100 -50 l35 -1 -34 -10 c-35 -10 -87 -43 -108 -68 -7 -8 -13 -10 -13 -4 0 6 3
14 7 17 3 4 8 20 9 36 4 33 -4 37 -69 40 -32 1 -45 -5 -74 -34 -40 -40 -53
-43 -78 -15 -14 16 -15 20 -4 24 8 2 32 9 54 15 26 7 47 21 60 40 11 17 22 26
26 20 8 -13 39 0 39 17 0 17 17 18 22 2 6 -18 78 32 78 54 0 19 29 14 31 -6z
m-1083 -6 c-8 -13 -15 -16 -19 -8 -10 15 -2 28 17 28 12 0 12 -4 2 -20z m652
-36 c0 -8 -4 -12 -10 -9 -5 3 -10 1 -10 -4 0 -16 -32 -51 -42 -45 -8 5 42 74
55 74 4 0 7 -7 7 -16z m517 0 c-3 -3 -12 -4 -19 -1 -8 3 -5 6 6 6 11 1 17 -2
13 -5z m110 -20 c-3 -3 -12 -4 -19 -1 -8 3 -5 6 6 6 11 1 17 -2 13 -5z m129
-70 c-9 -8 -16 -21 -16 -27 0 -8 -3 -8 -9 1 -4 7 -13 12 -18 10 -21 -6 -11 17
21 48 31 31 31 31 34 7 2 -13 -4 -30 -12 -39z m312 54 c37 -37 -6 -75 -104
-94 -61 -11 -64 -11 -64 8 0 15 5 18 16 14 22 -9 44 11 44 40 0 22 12 28 91
43 3 1 10 -4 17 -11z m-1918 -34 c125 -3 123 -3 110 -19 -11 -13 -10 -15 6
-14 41 4 53 -1 47 -17 -4 -12 -2 -15 8 -12 8 3 13 11 12 17 -2 7 17 11 54 11
44 0 62 -5 80 -22 13 -12 23 -28 23 -35 0 -8 7 -16 15 -19 31 -12 16 -119 -18
-128 -26 -6 -37 2 -18 14 24 14 6 38 -25 32 -16 -3 -25 -1 -21 5 3 5 -3 17
-14 27 -19 16 -22 16 -32 2 -9 -11 -16 -13 -27 -6 -13 9 -12 12 4 25 11 8 17
18 13 21 -4 4 -14 1 -24 -7 -10 -8 -14 -9 -10 -2 8 13 -47 48 -62 38 -5 -2
-12 2 -15 11 -4 9 -9 14 -13 11 -3 -4 -15 0 -27 8 -30 22 -46 18 -46 -10 0
-14 -4 -25 -10 -25 -5 0 -7 6 -4 13 2 7 -7 23 -21 35 -22 19 -25 20 -25 4 0
-13 -9 -17 -45 -18 -26 0 -45 4 -45 10 0 6 -3 22 -7 34 -5 22 -3 24 30 21 20
-2 39 0 43 4 4 4 10 4 13 0 3 -5 26 -9 51 -9z m662 -50 c15 -8 35 -14 45 -14
10 0 56 -14 103 -30 89 -32 109 -38 125 -39 6 -1 4 -5 -4 -10 -20 -13 13 -52
70 -85 26 -14 70 -47 98 -72 44 -40 51 -51 51 -83 0 -28 -7 -44 -29 -65 -41
-39 -134 -39 -223 1 -43 19 -63 24 -66 15 -5 -15 -12 -15 -36 3 -14 11 -16 18
-8 27 7 10 5 19 -8 35 -18 23 -69 48 -78 38 -3 -2 6 -9 19 -14 22 -9 22 -10 4
-12 -11 -1 -24 0 -30 1 -84 20 -116 29 -145 44 -49 25 -100 65 -100 78 0 5 9
0 19 -13 15 -18 22 -21 31 -13 9 9 7 16 -8 30 -11 11 -26 35 -34 54 -20 48 -7
74 52 99 26 11 53 27 60 36 13 16 45 12 92 -11z m773 16 c-3 -5 -12 -10 -18
-10 -7 0 -6 4 3 10 19 12 23 12 15 0z m-284 -33 c-10 -9 -11 -8 -5 6 3 10 9
15 12 12 3 -3 0 -11 -7 -18z m-1224 -13 c-3 -3 -12 -4 -19 -1 -8 3 -5 6 6 6
11 1 17 -2 13 -5z m1213 -48 c0 -3 -4 -8 -10 -11 -5 -3 -10 -1 -10 4 0 6 5 11
10 11 6 0 10 -2 10 -4z m521 -107 c16 -11 29 -27 29 -34 0 -8 8 -19 18 -24 11
-6 42 -44 71 -85 29 -42 54 -76 56 -76 8 0 -44 110 -67 143 -17 24 -18 28 -4
18 58 -47 131 -275 111 -346 -8 -30 -8 -29 -16 15 -11 60 -50 138 -71 143 -10
3 -18 12 -18 21 0 9 -7 16 -15 16 -8 0 -16 7 -16 15 -3 30 -4 34 -16 47 -7 6
-13 16 -13 22 0 5 -7 16 -15 25 -8 9 -24 27 -35 39 -13 15 -20 32 -17 44 4 13
-1 22 -16 28 -12 5 -16 9 -9 9 8 1 27 -8 43 -20z m79 -24 c14 -19 14 -19 -2
-6 -10 7 -18 18 -18 24 0 6 1 8 3 6 1 -2 9 -13 17 -24z m-105 -35 c3 -5 1 -10
-4 -10 -6 0 -11 5 -11 10 0 6 2 10 4 10 3 0 8 -4 11 -10z m-1130 -59 c61 -30
126 -72 165 -106 144 -126 211 -157 345 -158 78 0 106 5 203 36 128 42 212 48
300 22 56 -17 85 -43 135 -120 30 -47 32 -55 32 -140 0 -76 -6 -104 -34 -185
-58 -164 -104 -240 -144 -240 -10 0 -77 36 -148 81 -161 101 -291 156 -331
141 -18 -6 -27 -7 -25 0 1 6 -11 12 -28 14 -16 2 -25 0 -19 -4 6 -4 14 -17 18
-29 6 -20 4 -23 -18 -23 -20 0 -24 4 -20 18 5 14 3 14 -10 -2 -16 -20 -16 -20
-16 0 0 16 -2 17 -10 4 -8 -12 -10 -10 -10 8 0 25 -7 25 -100 8 -61 -12 -164
-15 -212 -6 -56 10 -194 75 -241 113 -33 26 -51 95 -62 227 -5 71 -2 105 19
203 14 65 32 131 41 146 27 54 46 53 170 -8z m390 -119 c-3 -3 -11 0 -18 7 -9
10 -8 11 6 5 10 -3 15 -9 12 -12z m65 -12 c11 -8 7 -9 -15 -4 -37 8 -45 14
-19 14 10 0 26 -5 34 -10z m844 -82 c17 -26 23 -54 31 -153 3 -38 12 -88 19
-110 16 -47 42 -167 51 -241 4 -28 2 -84 -4 -125 -12 -75 -40 -174 -47 -166
-3 2 0 17 6 32 6 16 15 71 20 123 13 138 -11 258 -84 422 -31 69 -56 135 -56
147 0 13 -4 23 -10 23 -5 0 -10 9 -10 20 0 11 5 20 10 20 6 0 10 7 10 15 0 24
47 18 64 -7z m-924 -478 c0 -5 -4 -10 -10 -10 -5 0 -10 5 -10 10 0 6 5 10 10
10 6 0 10 -4 10 -10z m-30 -34 c0 -3 -4 -8 -10 -11 -5 -3 -10 -1 -10 4 0 6 5
11 10 11 6 0 10 -2 10 -4z m-438 -68 c-10 -22 -11 -21 -9 9 1 21 5 29 11 23 6
-6 5 -18 -2 -32z m254 -30 c-9 -12 -16 -32 -16 -43 -1 -18 -2 -18 -11 -3 -10
18 0 46 25 74 18 19 19 -3 2 -28z m-286 -23 c0 -8 -2 -15 -4 -15 -2 0 -6 7
-10 15 -3 8 -1 15 4 15 6 0 10 -7 10 -15z m490 5 c0 -5 -5 -10 -11 -10 -5 0
-7 5 -4 10 3 6 8 10 11 10 2 0 4 -4 4 -10z m-247 -50 c-8 -9 -21 24 -15 39 5
12 8 10 12 -9 4 -14 5 -27 3 -30z m217 26 c0 -3 -4 -8 -10 -11 -5 -3 -10 -1
-10 4 0 6 5 11 10 11 6 0 10 -2 10 -4z m-448 -48 c-9 -9 -12 -7 -12 12 0 19 3
21 12 12 9 -9 9 -15 0 -24z m563 22 c-3 -5 -12 -10 -18 -10 -7 0 -6 4 3 10 19
12 23 12 15 0z m-358 -22 c-3 -8 -6 -5 -6 6 -1 11 2 17 5 13 3 -3 4 -12 1 -19z
m93 18 c0 -3 -4 -8 -10 -11 -5 -3 -10 -1 -10 4 0 6 5 11 10 11 6 0 10 -2 10
-4z m145 -18 c6 -4 0 -8 -12 -8 -16 0 -21 4 -16 15 3 9 8 12 12 8 3 -4 11 -11
16 -15z m65 -8 c0 -5 -4 -10 -10 -10 -5 0 -10 5 -10 10 0 6 5 10 10 10 6 0 10
-4 10 -10z m45 0 c3 -5 -1 -10 -10 -10 -9 0 -13 5 -10 10 3 6 8 10 10 10 2 0
7 -4 10 -10z m-145 -45 c-7 -9 -15 -13 -19 -10 -3 3 1 10 9 15 21 14 24 12 10
-5z m-355 -45 c-3 -5 -10 -10 -16 -10 -5 0 -9 5 -9 10 0 6 7 10 16 10 8 0 12
-4 9 -10z m175 -16 c0 -8 -4 -12 -10 -9 -5 3 -10 10 -10 16 0 5 5 9 10 9 6 0
10 -7 10 -16z m386 -17 c4 -4 -2 -7 -14 -7 -11 0 -23 4 -26 8 -6 10 30 9 40
-1z m185 -24 c-8 -15 -10 -15 -11 -2 0 17 10 32 18 25 2 -3 -1 -13 -7 -23z
m-743 -53 c9 -26 8 -32 -11 -46 l-22 -16 23 5 c20 5 23 2 19 -14 -3 -10 -1
-19 4 -19 5 0 9 10 9 22 0 20 4 18 41 -17 22 -22 46 -51 52 -65 7 -14 19 -25
27 -26 8 0 28 -5 43 -12 31 -13 27 -37 -4 -29 -10 3 -22 0 -26 -5 -4 -7 -1 -8
7 -3 8 5 11 4 6 -3 -4 -6 -13 -9 -20 -6 -9 3 -17 -3 -21 -16 -8 -25 -8 -25 27
-34 23 -5 26 -3 21 11 -4 10 -2 14 4 10 5 -4 19 1 29 9 16 13 16 15 2 10 -10
-3 -20 -1 -22 3 -4 7 28 8 42 2 2 0 -10 -18 -25 -38 -19 -25 -24 -38 -15 -41
6 -2 12 -8 12 -13 0 -6 -4 -8 -9 -4 -5 3 -12 2 -15 -3 -2 -4 4 -13 15 -20 14
-9 18 -9 17 -1 -2 6 3 14 10 16 7 3 12 -3 12 -14 1 -17 2 -17 13 -1 15 19 30
13 40 -16 4 -10 10 -16 13 -13 3 3 19 -3 36 -13 24 -14 37 -16 64 -8 19 5 38
7 43 4 5 -3 12 2 16 12 6 15 8 14 16 -6 5 -13 13 -20 19 -17 23 14 59 14 74 0
14 -14 19 -14 53 3 21 11 44 17 52 14 8 -3 11 0 7 7 -4 6 -2 11 3 11 15 0 14
27 -1 34 -7 3 11 3 40 0 40 -5 59 -2 85 13 17 10 65 31 104 47 40 16 87 42
105 58 36 32 47 36 27 11 -44 -57 -208 -151 -284 -165 -11 -1 -28 -10 -38 -19
-9 -9 -41 -21 -71 -28 -29 -6 -93 -28 -142 -47 -169 -67 -197 -74 -238 -63
-20 5 -36 14 -36 19 0 5 -9 7 -20 5 -11 -2 -46 9 -77 25 -32 17 -62 30 -66 30
-5 0 -23 11 -41 25 -18 14 -37 25 -42 25 -12 1 -74 57 -74 68 0 4 -9 15 -19
24 -31 27 -37 97 -12 144 27 50 28 74 3 51 -10 -10 -22 -17 -25 -17 -12 0 -8
30 6 47 33 42 68 74 75 69 4 -2 14 9 21 25 16 37 26 37 39 -1z m1097 20 c-3
-5 -10 -10 -16 -10 -5 0 -9 5 -9 10 0 6 7 10 16 10 8 0 12 -4 9 -10z m-560
-10 c3 -5 1 -10 -4 -10 -6 0 -11 5 -11 10 0 6 2 10 4 10 3 0 8 -4 11 -10z
m570 -10 c-3 -5 -11 -10 -16 -10 -6 0 -7 5 -4 10 3 6 11 10 16 10 6 0 7 -4 4
-10z m-100 -31 c-10 -15 -25 -10 -19 6 4 8 10 12 15 9 5 -3 7 -10 4 -15z m55
0 c0 -5 -10 -9 -21 -9 -18 0 -19 2 -9 15 12 15 30 12 30 -6z m97 -2 c16 -12 9
-23 -18 -30 -17 -5 -20 -2 -16 14 3 10 1 19 -4 19 -5 0 -9 4 -9 10 0 10 27 3
47 -13z m-144 -24 c-7 -3 -13 -12 -13 -20 0 -13 -3 -13 -15 -3 -22 18 -19 25
13 26 15 1 21 -1 15 -3z m57 -43 c0 -5 -43 -30 -53 -30 -2 0 -4 11 -5 25 -1
16 3 25 13 25 9 0 12 6 9 18 -4 12 0 10 15 -7 12 -13 21 -26 21 -31z m-89 -8
c15 -26 14 -28 -3 -28 -10 0 -18 7 -18 16 0 9 -5 21 -12 28 -9 9 -9 12 3 12 7
0 21 -13 30 -28z m-46 8 c3 -6 -1 -7 -9 -4 -18 7 -21 14 -7 14 6 0 13 -4 16
-10z m-35 -35 c0 -8 -4 -15 -9 -15 -5 0 -11 7 -15 15 -3 9 0 15 9 15 8 0 15
-7 15 -15z m-36 -20 c-4 -8 -10 -12 -15 -9 -11 6 -2 24 11 24 5 0 7 -7 4 -15z
m426 -38 c51 -106 32 -220 -51 -311 -28 -31 -57 -56 -64 -56 -7 0 -15 -9 -18
-19 -5 -21 -54 -57 -64 -47 -4 3 4 17 16 30 l22 23 -56 7 c-69 8 -106 0 -103
-23 2 -9 -4 -16 -12 -16 -8 0 -14 6 -12 13 3 15 5 14 -38 2 -19 -6 -63 -11
-98 -11 -34 0 -72 -3 -83 -8 -13 -4 -43 -2 -72 6 -28 7 -74 13 -102 13 -27 0
-65 4 -83 9 -20 6 -32 6 -32 0 0 -5 -15 -9 -32 -8 -31 1 -32 1 -8 9 14 4 19 9
13 10 -7 1 -17 4 -23 5 -5 1 -13 3 -17 4 -24 4 26 24 102 40 318 69 620 204
733 326 26 28 50 50 55 47 4 -2 16 -22 27 -45z m-1003 -73 c-3 -3 -12 -4 -19
-1 -8 3 -5 6 6 6 11 1 17 -2 13 -5z m343 -119 c0 -8 -4 -15 -10 -15 -5 0 -10
7 -10 15 0 8 5 15 10 15 6 0 10 -7 10 -15z m-230 -5 c0 -5 -2 -10 -4 -10 -3 0
-8 5 -11 10 -3 6 -1 10 4 10 6 0 11 -4 11 -10z m-181 -190 c3 0 -1 -5 -9 -10
-30 -20 -99 -8 -130 22 -17 15 -30 33 -30 38 0 5 37 -4 82 -20 45 -17 84 -30
87 -30z m141 10 c0 -5 -4 -10 -9 -10 -6 0 -13 5 -16 10 -3 6 1 10 9 10 9 0 16
-4 16 -10z m-80 -46 c0 -10 6 -11 23 -5 20 8 77 -10 77 -25 0 -3 -4 -3 -9 1
-5 3 -12 2 -15 -3 -7 -11 -66 -6 -79 7 -6 6 -19 11 -29 11 -21 0 -23 11 -7 27
14 14 39 6 39 -13z m470 -14 c0 -5 -4 -10 -10 -10 -5 0 -10 5 -10 10 0 6 5 10
10 10 6 0 10 -4 10 -10z m-550 -4 c0 -2 -8 -10 -17 -17 -16 -13 -17 -12 -4 4
13 16 21 21 21 13z m875 -6 c-3 -5 -11 -10 -16 -10 -6 0 -7 5 -4 10 3 6 11 10
16 10 6 0 7 -4 4 -10z m-38 -6 c-3 -3 -12 -4 -19 -1 -8 3 -5 6 6 6 11 1 17 -2
13 -5z m-41 -26 c-10 -5 -23 -5 -33 1 -15 8 -11 10 15 9 26 -1 30 -3 18 -10z"/>
<path d="M2060 5071 c0 -6 11 -22 25 -37 14 -15 25 -23 25 -17 0 5 -9 19 -19
30 -11 12 -17 24 -14 27 4 3 1 6 -5 6 -7 0 -12 -4 -12 -9z"/>
<path d="M2120 5056 c0 -9 7 -19 15 -23 25 -9 27 2 5 22 -18 17 -20 17 -20 1z"/>
<path d="M2170 5049 c0 -5 5 -7 10 -4 6 3 10 8 10 11 0 2 -4 4 -10 4 -5 0 -10
-5 -10 -11z"/>
<path d="M2190 5030 c0 -5 5 -10 10 -10 6 0 10 5 10 10 0 6 -4 10 -10 10 -5 0
-10 -4 -10 -10z"/>
<path d="M2195 5000 c3 -5 8 -10 11 -10 2 0 4 5 4 10 0 6 -5 10 -11 10 -5 0
-7 -4 -4 -10z"/>
<path d="M2420 5000 c0 -5 5 -10 11 -10 5 0 7 5 4 10 -3 6 -8 10 -11 10 -2 0
-4 -4 -4 -10z"/>
<path d="M2158 4993 c7 -3 16 -2 19 1 4 3 -2 6 -13 5 -11 0 -14 -3 -6 -6z"/>
<path d="M2382 4991 c4 -13 18 -16 19 -4 0 4 -5 9 -11 12 -7 2 -11 -2 -8 -8z"/>
<path d="M2254 4975 c-8 -21 4 -35 29 -34 l22 0 -23 11 c-13 7 -21 17 -18 25
3 7 3 13 0 13 -2 0 -7 -7 -10 -15z"/>
<path d="M2441 4971 c-7 -5 -9 -11 -5 -14 5 -3 15 1 22 9 14 16 5 18 -17 5z"/>
<path d="M2160 4960 c0 -5 5 -10 10 -10 6 0 10 5 10 10 0 6 -4 10 -10 10 -5 0
-10 -4 -10 -10z"/>
<path d="M2196 4961 c-7 -10 22 -37 30 -28 4 3 -1 13 -9 22 -9 8 -18 11 -21 6z"/>
<path d="M2130 4910 c0 -5 7 -10 16 -10 8 0 12 5 9 10 -3 6 -10 10 -16 10 -5
0 -9 -4 -9 -10z"/>
<path d="M2195 4910 c-3 -5 3 -10 15 -10 12 0 18 5 15 10 -3 6 -10 10 -15 10
-5 0 -12 -4 -15 -10z"/>
<path d="M2520 4910 c0 -5 5 -10 11 -10 5 0 7 5 4 10 -3 6 -8 10 -11 10 -2 0
-4 -4 -4 -10z"/>
<path d="M2166 4893 c-3 -3 -3 -10 0 -14 7 -12 34 -11 34 0 0 11 -26 22 -34
14z"/>
<path d="M2355 4879 c3 -5 17 -8 30 -7 30 3 24 10 -10 14 -14 1 -23 -1 -20 -7z"/>
<path d="M2240 4870 c0 -5 5 -10 11 -10 5 0 7 5 4 10 -3 6 -8 10 -11 10 -2 0
-4 -4 -4 -10z"/>
<path d="M2286 4812 c-3 -5 4 -13 15 -20 15 -10 19 -10 19 2 0 15 -27 29 -34
18z"/>
<path d="M2350 4780 c0 -5 5 -10 11 -10 5 0 7 5 4 10 -3 6 -8 10 -11 10 -2 0
-4 -4 -4 -10z"/>
<path d="M2253 4765 c-3 -9 -3 -18 0 -21 9 -9 27 6 27 22 0 19 -19 18 -27 -1z"/>
<path d="M2510 4755 c0 -8 4 -15 10 -15 5 0 7 7 4 15 -4 8 -8 15 -10 15 -2 0
-4 -7 -4 -15z"/>
<path d="M2375 4750 c-3 -5 -1 -10 4 -10 6 0 11 5 11 10 0 6 -2 10 -4 10 -3 0
-8 -4 -11 -10z"/>
<path d="M2324 4734 c3 -9 6 -18 6 -20 0 -2 7 -4 15 -4 13 0 14 4 5 20 -13 24
-35 27 -26 4z"/>
<path d="M2291 4681 c-12 -22 -5 -27 19 -11 11 7 12 12 3 21 -8 8 -14 6 -22
-10z"/>
<path d="M2607 4263 c-4 -3 -7 -11 -7 -17 0 -6 5 -5 12 2 6 6 9 14 7 17 -3 3
-9 2 -12 -2z"/>
<path d="M2595 4219 c-4 -6 -5 -12 -2 -15 2 -3 7 2 10 11 7 17 1 20 -8 4z"/>
<path d="M2752 4205 c-14 -8 -19 -15 -13 -19 13 -8 51 10 51 24 0 13 -9 11
-38 -5z"/>
<path d="M2616 4151 c-4 -7 -5 -15 -2 -18 9 -9 19 4 14 18 -4 11 -6 11 -12 0z"/>
<path d="M2542 4117 c24 -25 58 -38 81 -32 17 4 16 2 -5 -10 -37 -21 -35 -26
4 -14 17 5 49 6 71 2 35 -5 39 -4 35 13 -3 16 -11 18 -43 15 l-40 -3 25 21 25
21 -30 -11 c-37 -14 -84 -14 -98 0 -6 6 -17 11 -25 11 -11 0 -11 -2 0 -13z"/>
<path d="M2715 4120 c-3 -5 -1 -10 4 -10 6 0 11 5 11 10 0 6 -2 10 -4 10 -3 0
-8 -4 -11 -10z"/>
<path d="M2632 4003 c6 -7 23 -13 39 -13 19 0 27 4 24 13 -3 6 -21 12 -39 12
-26 0 -32 -3 -24 -12z"/>
<path d="M2007 4053 c-12 -12 -7 -22 8 -17 8 4 15 10 15 15 0 11 -14 12 -23 2z"/>
<path d="M2230 3609 c-30 -12 -63 -23 -72 -26 -33 -10 -18 -22 40 -32 31 -6
87 -19 124 -30 62 -17 69 -17 82 -2 14 16 20 39 17 72 -3 41 -103 50 -191 18z"/>
<path d="M2660 3390 c0 -13 28 -25 38 -16 3 4 0 11 -8 16 -20 13 -30 12 -30 0z"/>
<path d="M2745 3231 c-3 -5 -2 -12 3 -15 5 -3 9 1 9 9 0 17 -3 19 -12 6z"/>
<path d="M3007 3253 c-4 -3 -7 -13 -7 -20 0 -12 3 -12 15 1 8 8 15 17 15 20 0
8 -15 7 -23 -1z"/>
<path d="M1370 3175 c0 -8 2 -15 4 -15 2 0 6 7 10 15 3 8 1 15 -4 15 -6 0 -10
-7 -10 -15z"/>
<path d="M1707 3122 c8 -5 2 -12 -18 -21 -16 -7 -29 -20 -29 -30 0 -21 43 -63
87 -85 49 -25 54 -19 17 21 -30 33 -33 40 -27 80 5 40 4 43 -18 43 -15 0 -19
-3 -12 -8z"/>
<path d="M1847 3031 c-16 -6 -17 -9 -5 -19 67 -55 224 -55 202 1 -3 9 -11 17
-16 17 -6 0 -6 -5 1 -14 10 -12 6 -12 -26 -1 -32 11 -40 11 -54 -1 -14 -13
-19 -12 -42 6 -27 22 -32 22 -60 11z"/>
<path d="M2116 2945 c-8 -32 -54 -55 -111 -55 -25 0 -45 -4 -45 -8 0 -5 36
-26 79 -46 59 -28 93 -37 131 -38 78 0 133 48 99 88 -11 14 -129 84 -141 84
-3 0 -9 -11 -12 -25z"/>
<path d="M1965 2830 c3 -5 11 -10 16 -10 6 0 7 5 4 10 -3 6 -11 10 -16 10 -6
0 -7 -4 -4 -10z"/>
<path d="M1755 2789 c3 -3 -2 -15 -10 -25 -8 -10 -15 -14 -15 -7 0 7 -7 10
-17 6 -11 -4 -14 -3 -9 5 9 15 1 15 -24 0 -17 -11 -22 -10 -29 1 -11 17 -34 4
-27 -15 3 -8 1 -14 -3 -14 -5 0 -14 -12 -19 -27 -6 -16 -11 -22 -11 -15 -2 27
-41 -8 -41 -36 0 -21 -2 -24 -10 -12 -14 22 -29 0 -23 -33 4 -23 16 -33 52
-49 39 -17 53 -18 91 -9 39 9 46 8 55 -7 27 -45 74 -82 104 -82 41 0 47 19 22
68 -20 40 -73 87 -84 75 -4 -3 -19 0 -35 6 -24 10 -36 10 -64 -2 -35 -15 -83
-12 -94 4 -6 10 72 89 87 89 5 0 9 6 9 13 0 8 19 13 56 15 l57 3 -6 -35 c-5
-29 -2 -36 14 -41 10 -4 19 -10 19 -15 0 -4 20 -7 44 -7 24 1 44 6 43 12 -3
16 -21 32 -45 39 -12 4 -22 12 -22 18 0 5 6 8 14 5 10 -4 12 0 8 15 -3 14 -7
16 -13 7 -14 -23 -47 -17 -54 10 -4 15 -2 27 4 29 19 6 12 21 -8 19 -11 0 -18
-4 -16 -8z"/>
<path d="M2353 2619 c-50 -32 -39 -41 20 -19 28 11 53 20 55 20 2 0 0 5 -3 10
-10 16 -37 11 -72 -11z"/>
<path d="M1895 2550 c-10 -16 14 -49 39 -56 33 -8 101 -1 101 11 0 5 -27 20
-60 32 -71 26 -72 26 -80 13z"/>
<path d="M2230 2500 c-13 -8 -13 -10 2 -10 9 0 20 5 23 10 8 13 -5 13 -25 0z"/>
<path d="M1595 1770 c-3 -5 -1 -10 4 -10 6 0 11 5 11 10 0 6 -2 10 -4 10 -3 0
-8 -4 -11 -10z"/>
<path d="M1580 1740 c0 -5 5 -10 10 -10 6 0 10 5 10 10 0 6 -4 10 -10 10 -5 0
-10 -4 -10 -10z"/>
<path d="M1585 1665 c0 -14 5 -23 10 -22 6 2 10 12 10 22 0 10 -4 20 -10 22
-5 2 -10 -8 -10 -22z"/>
<path d="M1550 1633 c0 -13 5 -23 10 -23 13 0 13 11 0 30 -8 12 -10 11 -10 -7z"/>
<path d="M1678 1577 c-7 -8 -20 -11 -27 -9 -12 4 -12 3 0 -10 16 -17 46 -5 46
18 0 17 -2 17 -19 1z"/>
<path d="M1610 1570 c0 -5 5 -10 10 -10 6 0 10 5 10 10 0 6 -4 10 -10 10 -5 0
-10 -4 -10 -10z"/>
<path d="M1645 1504 c-22 -34 -14 -40 13 -9 12 13 17 27 13 30 -5 2 -16 -7
-26 -21z"/>
<path d="M1706 1505 c-3 -8 -13 -15 -21 -15 -10 0 -15 -7 -13 -17 4 -23 28
-29 28 -7 0 10 7 26 17 36 9 10 11 18 6 18 -6 0 -13 -7 -17 -15z"/>
<path d="M1770 1450 c0 -5 5 -10 11 -10 5 0 7 5 4 10 -3 6 -8 10 -11 10 -2 0
-4 -4 -4 -10z"/>
<path d="M2210 1260 c-9 -6 -10 -10 -3 -10 6 0 15 5 18 10 8 12 4 12 -15 0z"/>
<path d="M2250 1245 c0 -8 4 -15 10 -15 5 0 7 7 4 15 -4 8 -8 15 -10 15 -2 0
-4 -7 -4 -15z"/>
</g>
</svg>
