<?xml version="1.0" standalone="no"?>
<!DOCTYPE svg PUBLIC "-//W3C//DTD SVG 20010904//EN"
 "http://www.w3.org/TR/2001/REC-SVG-20010904/DTD/svg10.dtd">
<svg version="1.0" xmlns="http://www.w3.org/2000/svg"
 width="360.000000pt" height="240.000000pt" viewBox="0 0 360.000000 240.000000"
 preserveAspectRatio="xMidYMid meet">

<g transform="translate(0.000000,240.000000) scale(0.100000,-0.100000)"
fill="#000000" stroke="none">
<path d="M0 1200 l0 -1200 1800 0 1800 0 0 1200 0 1200 -1800 0 -1800 0 0
-1200z m2464 951 c3 -5 14 -7 25 -4 10 2 38 -1 62 -8 24 -7 46 -13 49 -14 22
-5 90 -49 113 -73 29 -31 44 -84 33 -126 l-6 -25 -34 20 c-19 11 -68 29 -108
40 -40 11 -80 23 -88 26 -15 6 -26 9 -47 11 -6 1 -9 12 -7 25 l5 22 -10 -22
c-14 -31 -35 -29 -29 2 4 16 0 29 -9 34 -12 6 -13 12 -4 30 9 16 9 21 0 21 -6
0 -9 6 -6 14 8 20 -3 27 -24 16 -12 -7 -20 -6 -25 2 -4 7 -3 8 4 4 7 -4 12 -2
12 3 0 13 87 15 94 2z m-114 -82 c0 -6 -4 -7 -10 -4 -5 3 -10 11 -10 16 0 6 5
7 10 4 6 -3 10 -11 10 -16z m-90 -19 c0 -5 -5 -10 -11 -10 -5 0 -7 5 -4 10 3
6 8 10 11 10 2 0 4 -4 4 -10z m138 -20 c11 -18 10 -20 -8 -20 -13 0 -20 7 -20
20 0 11 3 20 8 20 4 0 13 -9 20 -20z m-84 -4 c-21 -15 -30 -14 -19 3 3 6 14
11 23 11 13 0 13 -2 -4 -14z m106 -197 c0 -5 -7 -9 -15 -9 -22 0 -18 -13 13
-35 24 -17 25 -17 12 -1 -13 17 -13 18 5 15 10 -2 22 -15 25 -30 l7 -25 -58
10 c-32 6 -64 17 -71 25 -11 12 -10 13 2 6 10 -6 8 -1 -4 13 -11 12 -29 22
-40 22 -12 0 -27 4 -34 9 -8 5 22 8 72 8 47 1 86 -3 86 -8z m-157 -68 c15 -8
27 -20 27 -28 0 -7 10 -13 21 -13 16 0 19 -3 11 -13 -7 -8 -7 -18 -2 -27 16
-25 11 -29 -18 -19 -15 5 -38 8 -51 7 -19 -3 -24 2 -27 26 -1 16 -9 33 -16 37
-7 5 -11 9 -8 10 3 0 13 2 22 4 9 2 22 -3 29 -11 8 -10 8 -14 0 -14 -6 0 -11
-4 -11 -10 0 -13 11 -13 30 0 13 9 9 15 -19 42 -19 17 -30 29 -25 27 5 -3 21
-11 37 -18z m375 -56 c7 -7 -31 -55 -42 -54 -19 3 -66 -13 -66 -22 0 -5 -7 -9
-16 -9 -8 0 -12 5 -9 10 3 6 -1 10 -10 10 -10 0 -13 5 -9 13 4 6 -2 3 -15 -7
-14 -13 -18 -22 -10 -27 6 -3 -1 -6 -16 -6 -18 0 -23 2 -14 8 11 6 10 9 -4 15
-9 3 -17 10 -17 15 0 6 8 5 19 -1 25 -13 31 -13 31 2 0 6 -3 8 -6 5 -4 -3 -15
-2 -26 4 -15 8 -24 7 -38 -6 -18 -16 -18 -16 -13 3 6 23 47 31 136 26 31 -1
57 1 57 7 0 5 -12 9 -27 9 -16 0 -35 5 -43 11 -11 7 7 8 60 3 41 -3 76 -8 78
-9z m-562 -52 c-11 -11 -19 6 -11 24 8 17 8 17 12 0 3 -10 2 -21 -1 -24z m9
-42 c-3 -6 -13 -11 -22 -11 -9 0 -13 -6 -10 -14 7 -17 -13 -86 -25 -86 -4 0
-8 5 -8 12 0 6 -3 8 -7 5 -3 -4 -17 3 -30 15 -19 17 -21 24 -10 37 11 14 10
15 -8 1 -11 -8 -27 -24 -37 -35 -17 -20 -17 -20 -13 3 3 15 -1 22 -12 22 -11
0 -14 -6 -10 -23 4 -12 2 -29 -3 -37 -8 -12 -10 -11 -10 7 0 32 -10 53 -26 53
-8 0 -11 6 -8 15 4 10 10 12 18 6 16 -13 66 -1 66 16 0 10 6 13 16 9 9 -4 22
-1 30 5 9 7 19 7 34 -1 15 -8 27 -8 48 3 30 15 38 14 27 -2z m585 9 c0 -5 -9
-10 -20 -10 -11 0 -20 5 -20 10 0 6 9 10 20 10 11 0 20 -4 20 -10z m50 -30 c0
-9 9 -25 20 -35 25 -22 26 -40 3 -30 -10 4 -29 9 -42 11 -61 12 -82 50 -38 70
29 13 57 6 57 -16z m-432 -17 c-2 -15 -10 -28 -20 -31 -23 -6 -23 -11 4 -39
26 -28 38 -29 38 -5 0 27 10 33 34 20 11 -7 24 -13 29 -14 4 -1 9 -2 12 -3 3
0 1 -10 -5 -21 -9 -16 -8 -22 5 -26 8 -3 15 -10 15 -15 0 -9 -8 -8 -75 5 -16
3 -24 3 -17 0 6 -3 12 -10 12 -16 0 -6 -9 -3 -19 6 -25 22 -45 13 -31 -14 8
-15 6 -22 -11 -34 -20 -14 -23 -13 -41 10 -11 13 -23 22 -26 20 -9 -6 -47 22
-40 29 9 10 38 -7 31 -18 -3 -6 -1 -7 6 -3 9 6 9 11 0 22 -6 7 -9 20 -6 29 9
22 -12 29 -32 11 -10 -9 -25 -16 -32 -14 -8 2 -13 -2 -12 -9 2 -8 -4 -10 -14
-6 -11 4 -13 8 -5 11 7 2 10 8 6 13 -3 5 0 8 8 7 7 -2 13 4 13 12 0 10 -8 14
-21 12 -15 -2 -23 4 -27 20 -8 29 -3 32 21 17 15 -10 24 -10 34 -1 8 6 19 7
27 3 9 -6 10 -11 2 -15 -6 -4 -11 -16 -11 -28 0 -17 3 -18 15 -8 8 7 13 16 10
20 -9 14 42 63 59 57 22 -9 31 -8 31 1 0 4 4 13 8 20 13 19 27 4 25 -25z
m-437 -36 c-1 -4 -1 -14 -1 -23 0 -8 -4 -12 -10 -9 -13 8 -13 48 1 43 6 -2 10
-7 10 -11z m119 -17 c0 -5 -4 -10 -9 -10 -6 0 -13 5 -16 10 -3 6 1 10 9 10 9
0 16 -4 16 -10z m470 -10 c0 -5 -4 -10 -10 -10 -5 0 -10 5 -10 10 0 6 5 10 10
10 6 0 10 -4 10 -10z m-440 -30 c0 -11 -4 -20 -10 -20 -5 0 -10 9 -10 20 0 11
5 20 10 20 6 0 10 -9 10 -20z m466 -49 c-4 -6 -13 -11 -20 -11 -14 0 -16 -54
-2 -67 18 -18 -9 -26 -44 -13 -3 2 -8 2 -12 1 -5 0 -8 5 -8 12 0 15 -37 40
-50 32 -4 -3 -7 3 -6 12 4 22 26 29 37 12 6 -10 9 -10 9 -2 0 7 18 16 40 19
27 4 40 12 40 22 0 12 3 13 11 5 6 -6 8 -16 5 -22z m-579 -3 c-3 -8 -6 -5 -6
6 -1 11 2 17 5 13 3 -3 4 -12 1 -19z m-36 -77 c13 -10 29 -16 35 -14 6 2 19
-6 29 -17 18 -19 17 -21 -5 -40 -28 -24 -97 -27 -126 -5 -17 14 -16 14 13 4
17 -6 46 -9 65 -7 29 3 30 5 13 13 -11 5 -25 16 -32 24 -8 11 -12 12 -13 4 0
-18 -20 -16 -20 2 0 7 8 19 18 25 13 8 6 10 -32 8 -47 -2 -48 -2 -27 -19 20
-17 20 -17 1 -22 -13 -3 -24 1 -30 13 -14 26 -13 29 13 40 36 14 73 11 98 -9z
m364 -11 c8 -7 12 -16 9 -21 -7 -12 -94 -12 -94 0 0 4 -16 7 -35 5 -34 -2 -46
11 -27 30 11 12 130 0 147 -14z m155 0 c0 -5 -7 -10 -15 -10 -8 0 -15 5 -15
10 0 6 7 10 15 10 8 0 15 -4 15 -10z m-115 -10 c3 -5 1 -10 -4 -10 -6 0 -11 5
-11 10 0 6 2 10 4 10 3 0 8 -4 11 -10z m-276 -26 c-9 -11 -7 -14 14 -14 21 0
25 -4 20 -17 -4 -11 -3 -14 5 -9 7 4 12 1 12 -10 0 -14 -7 -16 -46 -10 -60 8
-67 13 -52 39 7 12 11 25 10 29 -1 4 5 5 13 2 8 -4 15 -1 15 6 0 6 5 8 10 5 8
-5 7 -11 -1 -21z m86 -54 c3 -5 -1 -10 -10 -10 -9 0 -13 5 -10 10 3 6 8 10 10
10 2 0 7 -4 10 -10z m-325 -35 c82 -8 215 -32 258 -46 49 -16 70 -73 37 -105
-9 -10 -15 -11 -15 -4 0 7 -6 5 -16 -4 -17 -17 -89 -23 -79 -6 3 6 2 10 -4 10
-5 0 -12 -6 -14 -12 -3 -7 -6 -3 -6 10 -1 12 -6 22 -12 22 -6 0 -8 -9 -4 -20
5 -15 3 -18 -9 -14 -9 3 -16 2 -16 -4 0 -22 -42 3 -76 44 -32 38 -46 46 -134
73 -54 17 -105 31 -113 31 -22 0 -29 -28 -10 -38 9 -6 13 -14 8 -22 -6 -9 -9
-9 -16 1 -7 11 -9 10 -9 -3 0 -10 5 -18 12 -18 6 0 8 -3 5 -6 -4 -4 -13 -2
-20 4 -17 14 -13 70 6 89 15 16 107 33 142 28 11 -2 49 -7 85 -10z m-163 -115
c-7 -17 -13 -26 -15 -21 -3 10 15 51 22 51 3 0 -1 -14 -7 -30z m-77 -110 c22
-11 40 -25 40 -30 0 -14 -5 -13 -47 16 -61 41 -58 47 7 14z m174 -91 c14 -11
26 -28 26 -38 0 -10 11 -23 25 -29 14 -6 25 -19 25 -28 0 -13 -7 -15 -37 -9
-49 9 -75 23 -70 38 3 7 10 11 16 10 6 -2 11 1 11 5 0 5 -16 14 -36 20 -31 9
-34 9 -23 -4 9 -11 9 -18 1 -26 -7 -7 -21 -4 -49 13 -21 13 -42 23 -46 21 -5
-1 -7 5 -5 15 4 21 53 30 72 13 10 -8 15 -7 20 5 8 21 39 19 70 -6z m-520 -22
c22 -12 42 -29 44 -37 3 -10 -4 -7 -20 7 -13 13 -38 26 -56 29 -18 4 -32 10
-32 15 0 15 23 10 64 -14z m254 -7 c18 -11 35 -27 38 -35 4 -10 14 -13 30 -9
27 7 97 -35 115 -67 5 -10 30 -33 55 -51 39 -28 74 -72 74 -93 0 -15 -27 -2
-35 17 -6 12 -29 36 -52 53 -23 16 -42 36 -42 43 -1 8 -10 12 -22 10 -14 -2
-27 6 -37 22 -11 17 -12 21 -2 13 8 -7 19 -13 25 -13 12 1 -33 40 -47 40 -5 0
-6 -6 -2 -12 4 -7 -3 -4 -16 7 l-23 20 7 -22 c5 -14 3 -23 -3 -23 -6 0 -10 3
-10 8 4 22 -5 35 -43 62 -23 17 -48 28 -55 26 -7 -3 -13 1 -13 9 0 20 19 19
58 -5z m460 -33 c26 -20 6 -87 -27 -87 -36 0 -73 69 -51 95 13 15 54 11 78 -8z
m-579 -16 c20 -11 43 -26 49 -34 10 -12 8 -14 -14 -14 -16 0 -21 2 -14 7 14 9
-37 40 -65 40 -8 0 -15 5 -15 10 0 15 16 12 59 -9z m-283 -46 c9 -19 20 -35
24 -35 5 0 6 -9 3 -20 -4 -16 0 -20 23 -20 37 0 62 -24 56 -55 -2 -14 -8 -25
-13 -25 -13 0 -49 42 -49 57 0 19 -25 16 -46 -4 -17 -17 -17 -16 -10 11 6 23
4 27 -8 23 -17 -7 -30 7 -41 43 -7 23 -7 24 11 10 18 -13 18 -13 1 5 -16 18
-16 20 5 32 13 7 24 12 25 13 1 0 10 -16 19 -35z m444 5 c0 -5 -4 -10 -9 -10
-6 0 -13 5 -16 10 -3 6 1 10 9 10 9 0 16 -4 16 -10z m-360 -18 c0 27 30 10 30
-17 0 -13 6 -25 13 -28 6 -2 8 -8 4 -13 -4 -5 -12 -3 -16 4 -4 8 -15 14 -23
16 -25 3 -47 26 -41 42 4 12 8 12 19 -3 12 -17 13 -17 14 -1z m127 -60 c7 -4
17 -19 23 -32 10 -23 10 -23 6 -2 -5 26 -7 26 35 8 28 -12 31 -16 17 -21 -10
-4 -18 -13 -18 -20 0 -19 37 -25 51 -9 10 12 13 12 24 -2 8 -11 20 -15 34 -11
15 3 21 1 21 -10 0 -9 -6 -13 -14 -10 -9 4 -16 -1 -18 -10 -2 -10 -16 -16 -41
-18 -21 -1 -34 1 -29 4 4 3 12 15 16 26 4 11 4 17 1 13 -3 -3 -22 -2 -41 2
-23 5 -34 4 -34 -4 -1 -20 -40 36 -40 58 -1 19 -2 19 -11 4 -11 -21 -34 -23
-45 -6 -5 8 -2 9 9 5 13 -5 17 -1 17 18 0 25 14 31 37 17z m153 -42 c0 -5 -5
-10 -11 -10 -5 0 -7 5 -4 10 3 6 8 10 11 10 2 0 4 -4 4 -10z m63 -33 c3 -8 2
-20 -3 -26 -5 -9 -7 -4 -7 13 0 29 2 32 10 13z m32 4 c3 -5 1 -12 -5 -16 -5
-3 -10 1 -10 9 0 18 6 21 15 7z m-424 -62 c38 -7 69 -15 69 -19 0 -4 -34 -1
-76 7 -94 18 -113 13 -87 -21 26 -35 125 -45 180 -18 35 16 44 17 78 5 21 -7
44 -18 52 -25 13 -10 12 -14 -3 -25 -17 -12 -16 -13 4 -13 19 0 20 -3 10 -30
-11 -33 -34 -50 -67 -50 -13 0 -19 5 -15 14 3 8 0 17 -7 22 -8 4 -10 3 -5 -4
4 -7 1 -12 -8 -12 -9 0 -16 -4 -16 -9 0 -4 -21 -3 -46 2 -34 8 -48 17 -55 35
-5 13 -13 21 -18 17 -5 -3 -12 -1 -16 5 -3 5 -1 10 6 10 7 0 10 3 6 6 -3 3
-15 3 -27 -1 -15 -5 -19 -12 -15 -26 4 -11 2 -19 -4 -19 -11 0 -15 12 -12 43
1 9 -2 17 -8 17 -6 0 -8 -7 -5 -15 4 -8 2 -15 -4 -15 -5 0 -12 8 -14 18 -3 10
-11 19 -19 20 -8 1 -31 5 -51 8 -31 5 -38 3 -38 -10 0 -9 -5 -16 -11 -16 -6 0
-9 -7 -5 -15 3 -8 1 -15 -5 -15 -6 0 -7 -4 -4 -10 3 -5 0 -7 -8 -4 -24 9 -49
66 -45 104 2 30 8 36 33 41 51 11 182 10 256 -2z m-190 -112 c-10 -9 -11 -8
-5 6 3 10 9 15 12 12 3 -3 0 -11 -7 -18z"/>
<path d="M2431 2084 c0 -11 3 -14 6 -6 3 7 2 16 -1 19 -3 4 -6 -2 -5 -13z"/>
<path d="M2320 1500 c0 -5 7 -7 15 -4 8 4 15 8 15 10 0 2 -7 4 -15 4 -8 0 -15
-4 -15 -10z"/>
<path d="M2235 1480 c3 -5 13 -10 21 -10 8 0 12 5 9 10 -3 6 -13 10 -21 10 -8
0 -12 -4 -9 -10z"/>
<path d="M1874 1313 c11 -11 48 -14 41 -3 -3 5 -16 10 -27 10 -12 0 -18 -3
-14 -7z"/>
<path d="M1950 1270 c0 -5 5 -10 11 -10 5 0 7 5 4 10 -3 6 -8 10 -11 10 -2 0
-4 -4 -4 -10z"/>
<path d="M1950 1110 c-21 -7 -20 -8 12 -7 21 1 38 5 38 10 0 9 -17 8 -50 -3z"/>
<path d="M1257 651 c-4 -17 -3 -21 5 -13 5 5 8 16 6 23 -3 8 -7 3 -11 -10z"/>
<path d="M787 488 c-4 -12 -4 -24 -1 -27 6 -7 24 20 24 37 0 21 -17 13 -23
-10z"/>
<path d="M1118 453 c6 -2 18 -2 25 0 6 3 1 5 -13 5 -14 0 -19 -2 -12 -5z"/>
</g>
</svg>
