<?xml version="1.0" standalone="no"?>
<!DOCTYPE svg PUBLIC "-//W3C//DTD SVG 20010904//EN"
 "http://www.w3.org/TR/2001/REC-SVG-20010904/DTD/svg10.dtd">
<svg version="1.0" xmlns="http://www.w3.org/2000/svg"
 width="626.000000pt" height="417.000000pt" viewBox="0 0 626.000000 417.000000"
 preserveAspectRatio="xMidYMid meet">

<g transform="translate(0.000000,417.000000) scale(0.100000,-0.100000)"
fill="#000000" stroke="none">
<path d="M0 2085 l0 -2085 3130 0 3130 0 0 2085 0 2085 -3130 0 -3130 0 0
-2085z m3384 1534 c-3 -5 -9 -7 -14 -4 -5 3 -11 1 -15 -5 -4 -6 -11 -8 -16 -4
-17 10 10 32 31 27 11 -3 17 -9 14 -14z m-324 -3 c0 -2 3 -12 6 -21 6 -14 3
-14 -19 -4 -27 12 -27 29 -1 29 8 0 14 -2 14 -4z m70 -6 c0 -5 -7 -10 -15 -10
-8 0 -15 5 -15 10 0 6 7 10 15 10 8 0 15 -4 15 -10z m190 0 c0 -5 -4 -10 -10
-10 -5 0 -10 5 -10 10 0 6 5 10 10 10 6 0 10 -4 10 -10z m-326 -10 c-5 -5 -27
-16 -49 -23 -28 -10 -41 -21 -43 -35 -2 -12 -8 -22 -13 -22 -5 0 -8 3 -8 8 4
26 -2 33 -17 18 -8 -9 -13 -20 -10 -25 3 -5 -2 -12 -11 -15 -14 -6 -14 -9 6
-22 13 -9 20 -22 17 -30 -3 -8 1 -17 9 -20 9 -4 15 -19 15 -36 0 -23 3 -28 13
-21 27 22 44 22 42 0 -1 -12 -7 -23 -13 -23 -7 -1 -21 -2 -32 -3 -22 -1 -28
-31 -6 -31 8 0 16 3 18 8 4 8 86 52 99 52 5 0 9 -7 9 -15 0 -8 7 -15 15 -15 8
0 15 7 15 16 0 8 -5 12 -10 9 -6 -3 -13 1 -16 10 -4 10 -14 15 -25 12 -12 -3
-16 0 -12 9 6 17 33 19 33 3 0 -6 7 -8 16 -5 10 4 13 2 8 -7 -6 -9 -4 -9 8 1
8 7 23 9 32 6 16 -6 16 -8 -1 -26 -15 -17 -15 -20 -3 -28 10 -6 16 -5 18 3 2
7 7 24 12 39 7 21 6 26 -5 22 -10 -4 -12 0 -8 15 3 12 10 21 15 21 5 0 7 4 4
9 -4 5 1 8 9 7 21 -3 31 -16 12 -16 -17 0 -22 -11 -10 -23 3 -4 12 -2 20 4 10
9 13 8 13 -5 0 -9 -4 -16 -9 -16 -5 0 -11 -7 -14 -14 -4 -10 -1 -13 9 -9 7 3
14 0 14 -5 0 -6 14 -18 32 -26 38 -19 40 -19 36 -3 -3 12 3 17 23 17 5 0 8 -4
4 -9 -3 -5 -1 -12 5 -16 5 -3 10 -4 10 -1 0 2 3 12 7 22 4 11 3 15 -5 10 -6
-3 -14 -1 -18 5 -5 8 2 10 24 7 17 -2 29 -1 26 4 -3 4 0 8 5 8 6 0 11 7 11 16
0 14 3 14 15 4 13 -11 13 -15 3 -21 -10 -7 -10 -9 0 -9 8 0 11 -9 7 -27 -2
-16 1 -11 8 10 11 34 15 37 26 23 7 -8 10 -24 7 -34 -4 -12 -1 -22 8 -25 11
-5 13 2 10 28 -4 31 -1 34 31 45 19 6 33 15 31 18 -2 4 2 13 10 20 12 11 14 8
14 -18 0 -17 -4 -29 -9 -25 -5 3 -13 0 -16 -6 -5 -7 1 -9 15 -7 13 2 24 11 26
21 1 11 5 21 8 24 5 6 52 -25 49 -32 -4 -6 2 -6 24 1 36 11 48 21 51 43 3 20
1 21 -17 12 -25 -14 -41 -14 -41 0 0 6 7 9 15 5 8 -3 14 -2 12 2 -9 28 66 -1
81 -31 6 -12 11 -16 11 -9 1 7 5 11 10 8 5 -4 7 2 4 13 -3 10 0 22 6 25 6 4
11 2 11 -4 0 -6 10 -15 23 -21 13 -6 28 -20 34 -32 33 -64 42 -91 44 -125 3
-42 -19 -113 -38 -125 -7 -4 -13 -14 -13 -22 0 -7 -26 -28 -57 -46 -32 -18
-60 -34 -62 -35 -2 -2 13 -23 33 -47 20 -24 36 -49 36 -54 0 -6 12 -19 28 -29
34 -22 53 -46 47 -61 -2 -6 1 -13 8 -16 7 -2 1 -10 -13 -17 -14 -7 -28 -19
-32 -26 -5 -6 -28 -25 -53 -41 -51 -32 -54 -38 -23 -47 22 -5 22 -6 3 -20 -11
-9 -14 -16 -7 -16 6 0 12 -7 12 -15 0 -16 30 -49 67 -74 12 -8 19 -20 16 -28
-3 -7 0 -13 6 -13 6 0 11 -7 11 -15 0 -8 5 -15 10 -15 6 0 10 5 10 10 0 6 5
10 11 10 6 0 7 -5 2 -12 -4 -7 -6 -21 -5 -31 2 -10 -6 -21 -21 -26 -14 -6 -28
-14 -31 -20 -4 -6 -13 -8 -21 -4 -8 3 -15 1 -15 -5 0 -16 -62 -48 -92 -47 -16
1 -28 -3 -28 -8 0 -5 -16 -6 -36 -2 -31 5 -36 4 -31 -9 7 -17 -31 -32 -55 -23
-9 4 -8 6 3 6 9 1 20 12 23 26 4 14 11 25 16 25 25 0 7 18 -23 24 -33 6 -34 8
-30 49 2 33 1 38 -7 25 -15 -24 -36 -23 -43 3 -3 12 -10 18 -16 14 -15 -9 -14
-52 2 -58 7 -3 5 -6 -6 -6 -10 -1 -17 -7 -16 -13 3 -24 -13 -58 -27 -58 -8 0
-31 -16 -53 -35 -38 -35 -71 -46 -71 -23 0 17 106 118 125 118 19 0 20 17 1
35 -11 12 -15 10 -24 -11 -7 -14 -20 -24 -32 -24 -11 0 -23 -6 -26 -14 -3 -8
-11 -13 -18 -10 -7 3 -53 -9 -102 -27 -126 -45 -242 -79 -270 -79 -19 0 -29
13 -60 78 -38 82 -69 122 -91 122 -8 0 -13 8 -11 17 2 14 14 16 68 14 36 -1
71 -7 78 -13 9 -8 16 -8 24 0 7 7 33 12 58 12 48 0 69 -13 85 -55 7 -19 7 -19
18 3 5 12 16 22 24 22 7 0 13 8 14 18 0 9 3 12 5 5 3 -7 12 -9 20 -6 18 7 18
-11 -1 -27 -13 -11 -13 -14 1 -27 12 -13 18 -13 27 -3 10 10 9 11 -3 5 -13 -8
-13 -7 -1 9 8 9 20 15 26 12 7 -2 18 0 26 4 8 6 17 4 22 -3 5 -7 6 -3 2 11 -4
15 -2 22 7 22 10 0 9 3 -2 10 -11 8 -8 9 13 4 21 -5 27 -3 27 10 0 9 7 16 15
16 22 0 18 18 -5 25 -23 7 -27 25 -5 25 8 0 15 5 15 11 0 5 -5 7 -10 4 -6 -3
-13 1 -16 9 -5 12 -15 14 -47 9 -27 -4 -38 -3 -34 4 14 22 -22 21 -36 0 -15
-22 -15 -22 -10 6 6 31 1 34 -21 11 -12 -12 -16 -12 -16 -2 0 8 -9 14 -20 14
-15 0 -20 -7 -21 -26 0 -23 -1 -23 -8 -5 -5 11 -4 25 1 32 11 14 -9 76 -21 69
-4 -3 -17 4 -31 14 -18 13 -30 16 -48 9 -14 -5 -21 -5 -17 0 3 5 -4 13 -16 16
-13 4 -18 12 -15 22 4 11 2 13 -9 10 -8 -4 -17 -2 -20 3 -4 6 1 10 9 10 19 0
20 19 2 42 -10 13 -15 15 -24 6 -8 -8 -12 -9 -12 -1 0 6 8 14 17 17 14 6 15 9
4 16 -9 5 -27 1 -47 -11 -19 -10 -34 -14 -34 -9 0 6 -12 11 -27 11 -18 1 -21
3 -10 6 9 2 15 9 12 14 -3 5 0 6 8 3 15 -5 47 20 47 37 0 5 -7 9 -15 9 -8 0
-12 -6 -9 -14 7 -18 -8 -27 -26 -15 -8 5 -10 9 -4 9 6 0 12 15 12 33 0 17 0
35 1 40 1 4 12 0 27 -9 15 -10 23 -23 19 -32 -8 -21 51 -72 127 -109 69 -34
94 -41 82 -22 -4 7 6 5 22 -4 43 -24 97 -47 119 -51 49 -10 147 -38 229 -66
132 -44 221 -37 281 22 16 17 40 34 53 39 26 10 47 51 39 73 -4 9 -25 24 -47
33 -27 12 -38 23 -35 32 5 12 3 12 -10 1 -14 -12 -20 -10 -38 12 -24 28 -66
56 -82 53 -5 -1 -23 -8 -40 -15 -30 -13 -158 -17 -225 -7 -19 3 -39 6 -44 6
-4 1 -6 9 -3 20 3 14 0 17 -14 14 -11 -3 -19 -1 -19 4 0 5 -17 9 -37 9 -81 1
-163 17 -163 31 0 12 -2 12 -15 -1 -8 -8 -15 -24 -15 -37 0 -18 -2 -20 -16 -8
-13 10 -17 10 -25 -2 -5 -8 -9 -21 -9 -28 0 -12 -3 -12 -12 -3 -10 10 -10 14
0 21 7 4 10 15 6 24 -3 9 -10 15 -14 12 -5 -3 -14 1 -22 8 -7 8 -19 12 -25 10
-7 -3 -18 5 -24 15 -7 11 -19 18 -26 15 -7 -3 -13 -1 -13 5 0 5 -18 22 -39 36
-22 15 -47 43 -56 61 -8 19 -19 37 -24 39 -5 3 -12 26 -16 51 -10 72 15 133
83 196 31 30 62 54 67 55 14 1 42 12 89 33 43 19 84 25 70 11z m176 0 c0 -5
-5 -10 -11 -10 -5 0 -7 5 -4 10 3 6 8 10 11 10 2 0 4 -4 4 -10z m45 -10 c3 -5
1 -10 -4 -10 -6 0 -11 5 -11 10 0 6 2 10 4 10 3 0 8 -4 11 -10z m190 0 c-3 -5
2 -10 12 -10 17 -1 17 -2 -2 -16 -18 -13 -20 -13 -27 3 -10 28 -9 33 8 33 8 0
12 -4 9 -10z m-73 -62 c-3 -11 42 -5 50 7 4 6 8 0 8 -12 0 -12 -5 -25 -10 -28
-8 -5 -7 -11 1 -21 6 -7 15 -11 20 -8 5 3 9 -2 9 -12 0 -14 -2 -15 -17 -3 -26
20 -33 32 -28 47 5 14 -11 16 -20 2 -10 -16 -35 -12 -29 4 3 8 0 24 -6 35 -6
12 -8 27 -4 33 7 11 29 -27 26 -44z m-267 32 c3 -6 -4 -10 -17 -10 -18 0 -20
2 -8 10 19 12 18 12 25 0z m145 0 c0 -5 -7 -10 -15 -10 -8 0 -15 5 -15 10 0 6
7 10 15 10 8 0 15 -4 15 -10z m33 -38 c-8 -2 -20 1 -26 7 -8 8 -8 11 1 11 7 0
12 8 12 18 1 13 4 11 15 -8 12 -22 12 -25 -2 -28z m268 15 c14 -32 14 -34 -7
-50 -30 -22 -34 -21 -32 7 1 14 5 23 9 20 4 -2 9 5 12 15 3 13 0 18 -7 15 -7
-3 -13 2 -13 11 0 27 22 16 38 -18z m83 27 c9 -3 16 -11 16 -16 0 -6 -7 -4
-16 3 -15 12 -16 11 -9 -11 7 -22 6 -23 -8 -12 -9 8 -26 11 -39 8 -13 -3 -17
-3 -10 0 6 3 9 10 6 16 -4 6 1 8 15 3 12 -4 21 -2 21 4 0 13 3 13 24 5z m-654
-18 c0 -24 -17 -28 -23 -6 -3 13 0 20 9 20 8 0 14 -6 14 -14z m215 -2 c-9 -9
-19 -13 -23 -10 -3 4 0 11 8 16 24 15 33 11 15 -6z m300 -4 c-3 -5 -13 -10
-21 -10 -8 0 -12 5 -9 10 3 6 13 10 21 10 8 0 12 -4 9 -10z m-421 -20 c10 0
17 -3 13 -6 -10 -10 -57 5 -57 18 0 9 3 9 12 0 7 -7 21 -12 32 -12z m161 -10
c-6 -9 -9 -9 -16 1 -10 17 0 34 13 21 6 -6 7 -16 3 -22z m-82 6 c4 -10 0 -12
-14 -9 -22 6 -26 23 -5 23 8 0 16 -6 19 -14z m578 -5 c0 -3 2 -14 4 -23 4 -22
-4 -22 -30 -2 -19 16 -19 16 5 10 25 -6 25 -6 3 5 -13 7 -23 15 -23 20 0 9 40
0 41 -10z m-262 -18 c-8 -9 -16 -10 -22 -4 -13 13 0 31 19 24 11 -4 12 -8 3
-20z m135 1 c-15 -8 -33 -22 -40 -32 -13 -16 -13 -16 -14 1 0 9 11 23 25 29
14 6 25 15 25 19 0 5 7 6 15 2 12 -4 10 -9 -11 -19z m-279 6 c-3 -5 -10 -10
-16 -10 -5 0 -9 5 -9 10 0 6 7 10 16 10 8 0 12 -4 9 -10z m-370 -20 c-3 -5
-11 -10 -16 -10 -6 0 -7 5 -4 10 3 6 11 10 16 10 6 0 7 -4 4 -10z m100 -10
c-10 -11 -22 -20 -27 -20 -4 0 -3 9 4 20 7 11 19 20 27 20 11 0 10 -5 -4 -20z
m209 -6 c-4 -37 -19 -50 -39 -34 -19 16 -20 31 0 24 11 -4 13 -2 9 9 -3 10 1
17 13 20 10 3 19 5 19 6 1 0 0 -11 -2 -25z m-268 4 c4 -6 2 -14 -4 -16 -6 -2
-8 -10 -5 -18 3 -8 0 -14 -5 -14 -6 0 -10 14 -10 30 1 31 11 39 24 18z m354 2
c0 -5 -4 -10 -10 -10 -5 0 -10 5 -10 10 0 6 5 10 10 10 6 0 10 -4 10 -10z
m-238 -19 c9 -11 14 -22 11 -25 -9 -9 -43 14 -43 29 0 20 12 19 32 -4z m278
15 c0 -3 -4 -8 -10 -11 -5 -3 -10 -1 -10 4 0 6 5 11 10 11 6 0 10 -2 10 -4z
m220 -12 c0 -8 -5 -12 -10 -9 -6 4 -8 11 -5 16 9 14 15 11 15 -7z m-305 -4
c-3 -5 1 -10 9 -10 33 0 24 -20 -19 -41 -28 -14 -44 -28 -41 -36 4 -9 -2 -8
-19 3 -14 9 -25 19 -25 22 0 3 3 2 7 -1 3 -4 12 1 20 11 12 16 13 16 7 0 -8
-24 -2 -23 27 5 14 12 23 30 21 40 -2 9 2 17 8 17 6 0 8 -4 5 -10z m-495 -425
c0 -22 -4 -30 -15 -30 -5 0 -15 -4 -22 -8 -6 -4 -22 -2 -35 3 -21 10 -20 10 6
5 26 -6 28 -4 17 9 -7 9 -17 14 -21 11 -5 -3 -11 -1 -14 4 -9 13 19 7 38 -8
14 -12 16 -11 16 8 0 12 6 21 15 21 8 0 15 -7 15 -15z m257 -7 c-3 -8 -6 -5
-6 6 -1 11 2 17 5 13 3 -3 4 -12 1 -19z m453 -48 c0 -5 -5 -10 -11 -10 -7 0
-9 -12 -4 -36 5 -31 4 -36 -9 -31 -8 3 -18 2 -22 -4 -3 -6 -19 -7 -36 -4 -28
7 -29 6 -19 -14 10 -18 9 -21 -6 -22 -49 -3 -93 7 -150 33 -28 14 -19 41 12
36 14 -3 26 2 34 14 13 21 67 25 74 6 3 -10 9 -8 24 5 14 12 29 15 51 11 24
-5 33 -2 38 10 7 18 24 22 24 6z m87 -37 c39 -25 45 -36 26 -50 -24 -18 -38
-16 -22 3 12 14 9 20 -16 40 -17 13 -35 24 -42 24 -6 0 -15 4 -18 10 -8 13 35
-3 72 -27z m-906 -36 c-10 -9 -11 -8 -5 6 3 10 9 15 12 12 3 -3 0 -11 -7 -18z
m83 -9 c-3 -4 -12 -8 -20 -8 -12 0 -12 4 -2 20 8 13 15 16 19 8 4 -7 5 -16 3
-20z m-380 -57 c6 -14 -6 -13 -48 5 -14 5 -17 4 -12 -4 9 -16 -16 -16 -31 -1
-9 9 -8 19 3 41 l15 29 34 -28 c18 -15 36 -34 39 -42z m466 30 c0 -11 5 -23
10 -26 6 -3 10 -14 9 -23 0 -12 -3 -11 -9 5 -6 16 -15 21 -27 17 -13 -4 -14
-3 -5 3 7 5 10 17 6 26 -3 10 -1 17 5 17 6 0 11 -9 11 -19z m-372 -23 c-2 -6
-12 -12 -22 -14 -24 -3 -34 -14 -13 -14 10 0 17 -2 17 -4 0 -2 3 -12 7 -22 4
-11 3 -15 -5 -10 -6 3 -13 2 -17 -4 -4 -7 -12 -7 -26 0 -17 10 -23 7 -20 -12
0 -4 -8 -6 -19 -5 -24 2 -26 13 -5 21 9 3 21 19 26 35 7 21 18 31 37 34 15 2
31 5 35 6 5 0 7 -4 5 -11z m1210 -10 c-2 -6 -10 -14 -16 -16 -7 -2 -10 2 -6
12 7 18 28 22 22 4z m-656 -70 c-7 -7 -12 -8 -12 -2 0 6 3 14 7 17 3 4 9 5 12
2 2 -3 -1 -11 -7 -17z m-562 -8 c0 -5 -4 -10 -10 -10 -5 0 -10 5 -10 10 0 6 5
10 10 10 6 0 10 -4 10 -10z m155 -45 c-84 -40 -108 -64 -129 -128 -27 -79 -23
-84 69 -91 43 -3 49 -18 17 -43 -20 -15 -136 -18 -127 -3 4 6 11 8 16 5 5 -4
9 -2 9 2 0 5 -9 14 -21 21 -11 7 -27 28 -35 47 -12 29 -12 38 1 67 15 36 60
88 76 88 5 0 22 8 36 18 28 18 117 50 143 51 8 0 -17 -15 -55 -34z m269 -42
c-5 -5 -12 -12 -16 -18 -4 -6 -8 -2 -8 8 0 9 7 17 17 17 9 0 12 -3 7 -7z
m1246 -69 c-8 -19 -6 -26 10 -34 13 -7 21 -7 25 0 11 18 23 1 17 -25 -2 -15 0
-25 7 -25 6 0 11 -7 11 -15 0 -8 -4 -15 -10 -15 -5 0 -10 -7 -10 -15 0 -8 -4
-15 -10 -15 -5 0 -10 5 -10 10 0 6 -13 5 -33 -3 -27 -12 -34 -12 -45 0 -7 7
-10 18 -7 23 3 5 -12 17 -34 26 -38 15 -55 34 -31 34 5 0 13 15 18 33 8 28 12
32 40 30 23 -2 32 2 37 18 5 16 10 18 20 9 10 -8 11 -18 5 -36z m-1025 -6 c-3
-18 -13 -39 -22 -45 -24 -18 -28 -8 -9 22 9 14 14 25 11 25 -5 0 17 29 23 30
1 0 0 -15 -3 -32z m775 13 c0 -10 -61 -34 -68 -26 -3 3 0 5 6 5 7 0 11 3 11 8
-1 4 -1 10 0 15 2 10 51 9 51 -2z m0 -108 c-6 -21 -22 -51 -36 -68 l-26 -30 7
29 c5 24 3 28 -12 22 -16 -5 -16 -4 -3 6 35 30 70 81 71 106 l2 27 4 -27 c2
-14 -1 -44 -7 -65z m-1145 5 c54 -28 91 -64 71 -71 -8 -3 -16 -1 -18 4 -2 5
-22 11 -45 12 -23 0 -39 5 -37 9 3 4 0 8 -5 8 -6 0 -11 -8 -12 -17 0 -14 -2
-15 -6 -3 -3 8 -21 29 -40 47 -22 20 -29 33 -21 36 21 7 70 -4 113 -25z m1288
-84 c43 -8 61 -31 51 -68 -8 -35 -92 -69 -222 -90 -24 -4 -38 0 -52 14 -20 20
-29 67 -11 56 5 -3 14 0 20 8 9 11 8 15 -5 20 -13 5 -14 9 -4 21 12 14 82 32
175 44 6 0 27 -2 48 -5z m-1156 -67 c12 -7 23 -65 16 -83 -2 -7 -12 -10 -22
-7 -14 3 -17 -3 -18 -31 -1 -25 3 -36 13 -36 8 0 14 -4 14 -10 0 -6 -9 -5 -24
1 -22 10 -29 7 -61 -24 -20 -19 -49 -41 -66 -47 -26 -11 -32 -10 -44 6 -8 11
-15 15 -15 10 0 -5 -9 -1 -19 8 -18 16 -20 16 -28 1 -6 -9 -14 -18 -19 -18 -5
-1 -8 -7 -6 -13 1 -7 -4 -14 -13 -18 -10 -4 -15 1 -15 15 0 13 -4 18 -12 13
-7 -5 -9 -2 -5 9 4 11 2 14 -7 11 -19 -7 -32 16 -15 27 8 5 10 9 4 9 -5 0 5 9
23 20 17 11 32 24 32 29 0 5 9 13 20 16 11 4 18 11 15 16 -4 5 -2 9 2 9 5 0
33 16 63 37 80 53 151 72 187 50z m831 -43 c2 -10 9 -23 16 -29 45 -36 47
-117 4 -167 -15 -18 -28 -31 -29 -28 -10 66 -9 90 5 90 9 0 16 7 16 15 0 8 5
15 10 15 6 0 10 12 10 26 0 19 -4 25 -14 21 -9 -4 -17 2 -21 13 -7 21 -35 17
-35 -5 0 -7 -7 -18 -15 -25 -12 -10 -13 -15 -3 -28 12 -14 10 -14 -9 -1 -13 8
-23 17 -23 22 0 4 -4 5 -10 2 -5 -3 -10 1 -10 9 0 9 -5 16 -12 16 -19 0 1 14
22 15 11 1 20 -3 20 -9 0 -6 5 -5 12 2 10 10 10 15 -2 23 -11 8 -6 9 19 5 32
-6 33 -5 27 20 -5 19 -3 25 6 22 7 -3 15 -13 16 -24z m-1108 -34 c0 -5 -2 -10
-4 -10 -3 0 -8 5 -11 10 -3 6 -1 10 4 10 6 0 11 -4 11 -10z m917 -37 c-4 -3 0
-15 10 -25 9 -10 13 -21 9 -25 -11 -11 -46 -14 -46 -3 0 6 7 10 15 10 12 0 13
4 5 19 -13 25 -13 31 2 31 6 0 8 -3 5 -7z m48 -62 c-4 -17 -11 -28 -17 -25 -6
4 -6 10 1 17 6 6 11 20 11 31 0 10 3 17 6 13 3 -3 3 -19 -1 -36z m-290 11 c-3
-3 -11 0 -18 7 -9 10 -8 11 6 5 10 -3 15 -9 12 -12z m213 -22 c10 0 25 -7 35
-14 16 -12 16 -14 1 -20 -23 -9 -27 -8 -20 9 4 11 -2 15 -24 15 -24 0 -28 3
-23 17 4 11 8 12 11 5 2 -7 11 -12 20 -12z m-213 -12 c-19 -11 -30 -5 -21 11
4 6 14 7 22 4 15 -5 14 -7 -1 -15z m360 -18 c-3 -4 3 -14 12 -21 9 -8 14 -9
11 -4 -4 6 3 11 15 12 12 0 16 -1 10 -4 -7 -3 -13 -13 -13 -24 0 -10 -5 -19
-12 -19 -6 0 -8 3 -4 7 4 4 -12 12 -35 18 -24 5 -44 17 -47 25 -3 12 -2 13 6
1 12 -17 42 -7 42 14 0 9 5 13 10 10 6 -4 8 -10 5 -15z m-79 -27 c-10 -10 -19
5 -10 18 6 11 8 11 12 0 2 -7 1 -15 -2 -18z m-876 -1 c0 -13 -6 -18 -22 -16
-13 1 -26 3 -30 3 -20 2 -5 20 20 24 15 2 28 5 30 6 1 0 2 -7 2 -17z m878 -40
c-10 -12 -10 -14 0 -8 14 9 16 -3 2 -24 -8 -13 -10 -12 -10 3 0 9 -4 17 -10
17 -5 0 -10 -4 -10 -9 0 -6 -8 -9 -17 -9 -10 0 -30 -3 -46 -7 -24 -6 -26 -5
-20 11 8 24 23 34 48 34 17 0 17 -2 5 -10 -13 -8 -12 -10 3 -10 9 0 25 9 34
19 20 24 40 17 21 -7z m72 4 c0 -3 -4 -8 -10 -11 -5 -3 -10 -1 -10 4 0 6 5 11
10 11 6 0 10 -2 10 -4z m239 -62 c72 -27 84 -41 56 -64 -21 -18 -185 -234
-185 -244 0 -5 6 -4 13 3 10 8 17 7 25 -1 9 -9 12 -7 12 11 0 15 -4 20 -12 15
-9 -5 -9 -2 1 9 7 9 21 17 30 17 9 0 36 27 60 61 48 69 115 109 139 85 21 -21
4 -42 -56 -67 -52 -21 -59 -27 -87 -83 -23 -46 -36 -62 -55 -64 -13 -2 -36
-17 -50 -32 -19 -21 -33 -27 -49 -23 -12 3 -21 1 -21 -6 0 -6 6 -10 13 -9 8 2
12 -10 12 -34 1 -25 -4 -38 -13 -38 -7 0 -12 6 -11 13 1 6 1 20 0 29 -2 27
-31 10 -31 -18 0 -16 -8 -27 -23 -33 -13 -5 -29 -16 -36 -25 -7 -9 -25 -16
-40 -15 -14 0 -20 3 -14 6 10 3 10 10 1 26 -15 29 -34 47 -41 40 -4 -3 -5 4
-2 16 3 16 -16 41 -73 99 -84 86 -185 153 -302 201 -89 36 -194 56 -186 35 3
-7 0 -16 -6 -20 -7 -4 -8 -3 -4 4 4 8 0 12 -11 12 -15 0 -16 2 -3 11 12 8 9 9
-12 5 -38 -9 -128 12 -128 30 0 11 23 14 118 15 64 0 138 0 163 -1 26 -1 50 3
53 9 4 6 21 5 48 -5 22 -8 67 -15 99 -17 55 -2 58 -3 63 -31 9 -42 75 -101
138 -122 54 -19 144 -23 211 -10 68 13 155 111 143 161 -4 14 -24 35 -49 49
l-42 26 37 0 c20 0 69 -12 107 -26z m-584 6 c3 -5 1 -10 -4 -10 -6 0 -11 5
-11 10 0 6 2 10 4 10 3 0 8 -4 11 -10z m-693 -12 c7 -7 19 -13 26 -14 36 -3
40 -5 36 -22 -3 -11 5 -23 23 -34 15 -9 38 -25 50 -35 l22 -18 -31 -27 c-29
-25 -32 -26 -58 -13 -15 8 -30 21 -33 29 -3 8 -26 24 -52 35 -51 23 -64 43
-41 66 18 18 22 40 6 30 -5 -3 -10 -1 -10 4 0 15 46 14 62 -1z m1068 -38 c0
-5 -11 -10 -25 -10 -14 0 -25 5 -25 10 0 6 11 10 25 10 14 0 25 -4 25 -10z
m30 -14 c0 -3 -4 -8 -10 -11 -5 -3 -10 -1 -10 4 0 6 5 11 10 11 6 0 10 -2 10
-4z m-142 -31 c11 -23 10 -24 -13 -13 -26 11 -30 20 -18 31 11 12 20 8 31 -18z
m-503 -28 c43 -13 113 -38 123 -43 2 -1 -1 -12 -7 -23 -11 -20 -10 -20 34 -14
37 5 45 3 45 -10 0 -16 -9 -20 -67 -32 -31 -6 -31 -7 -12 -26 45 -45 11 -85
-85 -102 -75 -13 -145 -2 -217 32 -51 25 -69 26 -69 6 0 -12 7 -14 26 -9 37 9
23 -12 -19 -29 -33 -14 -81 -11 -71 4 3 5 2 9 -3 9 -4 0 -9 11 -9 25 -2 20 2
24 15 20 21 -6 48 32 32 48 -6 6 -11 16 -11 22 0 5 7 1 15 -9 13 -17 15 -17
21 -3 3 9 3 21 -1 27 -8 13 8 13 40 -2 19 -9 28 -9 37 0 7 7 26 12 44 12 33 0
50 20 33 37 -6 6 -5 14 5 22 8 7 12 19 9 27 -3 8 0 14 7 14 6 0 8 5 4 12 -5 7
-1 9 12 5 10 -3 42 -12 69 -20z m265 -147 c-6 -11 -19 -24 -29 -30 -27 -14
-37 27 -13 51 24 23 57 7 42 -21z m101 -94 c-30 -36 -75 1 -65 53 l7 33 35
-35 c30 -30 33 -38 23 -51z m598 30 c10 -12 8 -13 -9 -9 -25 7 -37 23 -17 23
8 0 20 -6 26 -14z m116 -56 c3 -5 2 -10 -4 -10 -5 0 -13 5 -16 10 -3 6 -2 10
4 10 5 0 13 -4 16 -10z m-370 -30 c3 -5 2 -10 -4 -10 -5 0 -13 5 -16 10 -3 6
-2 10 4 10 5 0 13 -4 16 -10z m-14 -63 c-8 -8 -11 -7 -11 4 0 20 13 34 18 19
3 -7 -1 -17 -7 -23z m448 12 c33 2 34 1 19 -21 -19 -29 -58 -37 -54 -11 2 10
-4 24 -13 31 -11 9 -11 11 -1 6 8 -4 30 -7 49 -5z m-1341 -36 c88 -22 102 -28
77 -33 l-30 -6 35 -9 35 -8 -50 -6 c-55 -7 -75 -4 -75 11 0 5 4 7 9 3 5 -3 12
-1 15 4 3 5 -8 14 -24 21 -36 15 -151 29 -144 18 7 -10 3 -10 -35 3 -17 6 -31
15 -31 20 0 18 113 8 218 -18z m872 23 c0 -2 -8 -10 -17 -17 -16 -13 -17 -12
-4 4 13 16 21 21 21 13z m144 -63 c-2 -31 -6 -58 -8 -60 -2 -3 -19 -5 -36 -5
-28 -1 -30 -3 -17 -13 14 -10 12 -16 -21 -48 -21 -20 -40 -37 -44 -37 -3 0
-11 14 -18 30 -7 17 -16 30 -21 30 -5 0 -9 5 -9 12 0 6 -8 20 -17 30 -17 19
-16 19 12 12 27 -7 29 -6 17 9 -12 13 -10 19 7 34 12 9 21 23 21 30 0 13 20
17 68 15 12 -1 22 3 22 8 0 5 7 7 15 4 8 -4 15 -1 15 6 0 6 4 9 9 6 5 -3 7
-31 5 -63z m-196 51 c-4 -3 -3 -18 1 -32 6 -20 3 -32 -12 -47 -19 -20 -19 -20
-12 14 4 18 9 41 10 50 5 22 4 21 12 21 3 0 4 -3 1 -6z m-845 -54 c4 -16 0
-20 -19 -20 -14 0 -24 6 -24 14 0 8 -6 17 -12 19 -7 3 1 6 18 6 24 1 33 -4 37
-19z m654 -2 c-3 -8 -6 -5 -6 6 -1 11 2 17 5 13 3 -3 4 -12 1 -19z m152 -31
c1 -5 -4 -5 -11 -1 -7 4 -8 3 -4 -4 12 -20 15 -51 6 -57 -5 -3 -14 11 -21 30
-7 19 -20 35 -29 35 -11 0 -12 2 -2 8 8 5 10 16 5 28 -6 16 -2 15 24 -6 18
-14 32 -29 32 -33z m-434 13 c3 -5 2 -10 -4 -10 -5 0 -13 5 -16 10 -3 6 -2 10
4 10 5 0 13 -4 16 -10z m-480 -30 c-3 -5 1 -10 9 -10 9 0 16 -5 16 -10 0 -7
-6 -7 -20 0 -15 8 -20 8 -20 -1 0 -7 -3 -10 -6 -6 -9 9 3 37 16 37 6 0 8 -4 5
-10z m-45 -27 c0 -5 -5 -15 -10 -23 -7 -12 -10 -12 -10 -1 0 7 -6 11 -15 7 -8
-3 -15 -1 -15 3 0 10 17 19 38 20 6 1 12 -2 12 -6z m1430 -13 c0 -11 -42 -34
-80 -44 -23 -7 -22 -4 10 23 34 30 70 41 70 21z m-1545 -20 c3 -6 -4 -10 -17
-10 -13 0 -30 -6 -37 -12 -11 -11 -11 -9 -2 10 12 23 45 30 56 12z m201 -5 c3
-8 3 -19 0 -24 -10 -16 -36 -1 -36 20 0 22 28 26 36 4z m817 -2 c-7 -2 -19 -2
-25 0 -7 3 -2 5 12 5 14 0 19 -2 13 -5z m316 -6 c6 -8 13 -27 17 -43 4 -23 0
-34 -20 -53 -29 -28 -27 -66 6 -89 13 -10 18 -23 16 -45 -2 -26 -7 -32 -25
-30 -13 2 -24 -4 -27 -15 -3 -9 -20 -32 -38 -51 -29 -31 -30 -35 -15 -46 22
-16 21 -53 -2 -119 -27 -76 -72 -138 -139 -189 -59 -45 -86 -60 -112 -62 -26
-2 -122 -34 -136 -46 -10 -8 -18 -6 -34 9 -22 20 -64 37 -55 22 12 -20 -18
-20 -31 -1 -17 23 -64 29 -64 7 0 -8 -16 -16 -39 -20 -21 -3 -44 -13 -51 -21
-9 -11 -31 -14 -94 -11 -70 2 -92 8 -159 40 -42 21 -90 48 -105 61 -36 30 -71
103 -54 114 6 4 9 17 5 29 -3 12 -9 19 -14 16 -5 -3 -9 0 -9 6 0 6 -4 9 -9 6
-9 -6 -20 43 -13 62 5 16 22 15 22 0 0 -7 11 -26 24 -41 14 -16 27 -34 29 -40
2 -6 18 -10 35 -9 21 1 35 -3 38 -12 3 -7 24 -17 46 -20 38 -6 40 -8 22 -21
-14 -11 -15 -14 -4 -15 9 0 11 -3 4 -10 -11 -11 -54 -2 -54 12 0 5 -4 6 -10 3
-16 -10 -12 -25 8 -25 9 0 28 -9 42 -20 l25 -20 -27 0 c-14 0 -28 5 -30 11 -2
5 -15 12 -28 13 -14 2 -33 7 -42 11 -10 4 -18 5 -18 2 0 -13 178 -83 187 -74
1 2 -7 14 -19 27 -17 18 -18 22 -5 17 20 -7 21 -3 7 23 -7 13 -6 19 6 24 9 3
12 2 9 -5 -4 -5 0 -21 9 -34 15 -23 15 -24 -1 -19 -10 4 -4 -3 12 -13 63 -41
156 -32 103 9 -22 17 -21 17 22 2 25 -9 66 -17 92 -18 46 -1 47 0 43 27 -4 22
-2 27 15 27 14 0 19 -4 14 -12 -5 -8 -2 -9 9 -5 18 7 67 -11 67 -24 0 -4 -6
-10 -12 -12 -7 -3 3 -6 22 -6 20 -1 42 5 49 12 10 8 15 9 18 1 2 -7 16 -9 36
-5 25 6 31 12 29 27 -2 10 -8 22 -13 25 -5 3 -7 13 -3 22 4 12 -3 18 -28 26
-28 8 -30 9 -8 10 34 1 54 -14 47 -33 -4 -10 -1 -16 9 -16 11 0 13 6 9 20 -8
25 0 25 64 -2 47 -19 54 -20 68 -6 16 17 9 42 -10 35 -7 -2 -24 2 -39 10 -20
9 -27 20 -26 37 2 22 6 23 43 20 22 -3 54 -5 72 -7 17 -1 29 -5 27 -9 -11 -17
16 -16 37 2 21 17 22 19 6 20 -17 0 -17 2 -3 15 8 9 13 22 10 30 -4 9 0 12 14
8 21 -5 34 9 39 41 2 13 -1 16 -12 12 -8 -3 -15 -1 -15 4 0 6 5 10 11 10 5 0
7 5 4 10 -14 23 -96 -6 -130 -46 -8 -10 -119 -62 -190 -89 -11 -4 -35 -7 -52
-6 -32 2 -45 -12 -20 -22 6 -3 1 -6 -13 -6 -15 -1 -32 -7 -39 -13 -10 -9 -12
-10 -7 -1 10 18 -23 31 -69 28 -49 -4 -95 4 -95 16 0 5 7 9 15 9 12 0 12 3 -2
20 -10 11 -28 20 -41 20 -14 0 -39 17 -65 44 -37 38 -45 42 -67 33 -42 -16
-76 -16 -87 2 -25 41 -31 141 -11 190 16 37 18 51 7 51 -5 0 -9 5 -9 11 0 8 5
7 15 -1 13 -10 19 -10 33 4 10 9 22 16 27 16 5 0 0 -6 -11 -14 -26 -19 -27
-76 -1 -76 10 0 15 -4 12 -10 -9 -14 2 -12 30 6 28 18 45 12 45 -17 0 -19 1
-19 22 -5 28 20 38 20 38 1 0 -24 36 -37 54 -19 15 14 16 14 16 0 0 -9 -5 -16
-11 -16 -8 0 -8 -5 1 -15 7 -8 20 -15 28 -15 13 0 13 -3 4 -12 -10 -10 -15
-10 -21 1 -5 7 -14 11 -19 7 -16 -9 -3 -36 17 -36 9 0 25 -7 35 -15 14 -11 23
-12 33 -4 10 9 13 8 14 -2 0 -8 4 -4 10 9 6 15 5 30 -1 43 -8 13 -7 19 0 19 6
0 13 -7 16 -15 4 -8 10 -12 15 -9 5 3 6 -2 3 -10 -3 -9 -1 -16 5 -16 6 0 11
17 11 40 0 29 4 40 15 40 8 0 15 6 15 13 0 8 4 7 10 -3 8 -12 10 -10 10 8 0
29 24 24 28 -5 5 -31 41 -37 48 -8 7 28 -3 48 -18 39 -7 -4 -8 -2 -4 5 4 6 12
9 17 6 5 -4 9 -2 9 3 0 5 11 14 25 20 23 11 34 4 18 -11 -3 -4 -8 -19 -9 -34
-2 -21 -1 -24 6 -13 6 9 10 10 10 3 0 -7 11 -10 28 -9 15 2 29 0 32 -4 3 -4
14 1 24 11 19 19 19 19 -7 19 -19 0 -25 4 -21 15 4 8 12 15 20 15 8 0 14 3 15
8 0 4 2 17 5 29 2 12 -1 25 -6 28 -19 12 -11 26 9 15 11 -5 32 -15 48 -21 28
-10 28 -10 8 9 -11 10 -26 17 -32 14 -8 -2 -13 5 -13 20 0 13 -6 30 -12 37
-11 11 -10 13 2 9 8 -3 16 -17 18 -31 2 -15 8 -25 13 -21 5 3 16 0 24 -6 20
-16 76 -5 109 21 14 11 40 40 57 65 32 47 40 52 58 31z m-864 -40 c33 3 56 -1
69 -10 14 -10 27 -11 57 -3 44 11 54 6 44 -24 -4 -13 -13 -20 -24 -18 -10 2
-25 -3 -35 -11 -9 -8 -19 -11 -23 -7 -4 3 2 13 13 22 18 14 17 15 -16 8 -32
-6 -33 -5 -21 10 13 15 12 17 -13 13 -15 -2 -32 -10 -37 -18 -8 -12 -9 -12 -9
0 0 11 -4 9 -15 -5 -14 -19 -14 -18 -15 4 0 13 -6 22 -16 22 -12 0 -15 -7 -12
-23 4 -20 1 -23 -19 -19 -24 5 -31 27 -10 35 8 3 6 9 -8 20 -11 8 -24 13 -29
10 -5 -4 -6 -1 -2 5 4 8 16 7 39 -2 18 -8 54 -12 82 -9z m467 -5 c-3 -17 -7
-20 -13 -10 -13 19 -11 35 4 35 9 0 12 -9 9 -25z m-938 3 c-4 -8 -8 -15 -10
-15 -2 0 -4 7 -4 15 0 8 4 15 10 15 5 0 7 -7 4 -15z m323 -17 c-3 -7 -5 -2 -5
12 0 14 2 19 5 13 2 -7 2 -19 0 -25z m583 22 c0 -5 -4 -10 -10 -10 -5 0 -10 5
-10 10 0 6 5 10 10 10 6 0 10 -4 10 -10z m-720 -23 c0 -7 -4 -6 -10 3 -8 13
-10 12 -10 -4 0 -11 -3 -17 -6 -13 -4 3 -4 13 0 22 6 18 26 11 26 -8z m665 13
c3 -5 1 -10 -4 -10 -6 0 -11 5 -11 10 0 6 2 10 4 10 3 0 8 -4 11 -10z m252
-12 c-3 -8 -6 -5 -6 6 -1 11 2 17 5 13 3 -3 4 -12 1 -19z m-230 -18 c2 -22
-12 -27 -23 -9 -5 9 5 22 21 29 1 0 1 -9 2 -20z m181 -18 c2 -7 -3 -12 -12
-12 -9 0 -16 7 -16 16 0 17 22 14 28 -4z m-878 -36 c0 -2 -7 -7 -16 -10 -8 -3
-12 -2 -9 4 6 10 25 14 25 6z m365 -42 c-8 -6 -11 -15 -7 -19 4 -5 2 -5 -5 -2
-6 4 -9 16 -6 27 4 15 0 20 -13 21 -18 0 -18 1 1 9 28 11 53 -19 30 -36z
m-328 16 c2 -20 -8 -26 -20 -13 -4 3 -2 12 4 20 15 17 14 17 16 -7z m573 -10
c0 -5 -2 -10 -4 -10 -3 0 -8 5 -11 10 -3 6 -1 10 4 10 6 0 11 -4 11 -10z
m-439 -33 c-10 -9 -11 -8 -5 6 3 10 9 15 12 12 3 -3 0 -11 -7 -18z m229 9 c0
-8 -4 -17 -9 -21 -12 -7 -24 12 -16 25 9 15 25 12 25 -4z m-456 -15 c11 -12
14 -21 7 -26 -6 -3 -11 -1 -11 6 0 6 -8 18 -17 25 -10 7 -13 14 -7 14 6 0 19
-9 28 -19z m523 -2 l28 13 -22 -21 c-20 -19 -43 -28 -43 -17 0 2 -3 13 -6 23
-5 14 -4 15 4 4 9 -12 15 -13 39 -2z m176 -14 c-3 -9 -8 -14 -10 -11 -3 3 -2
9 2 15 9 16 15 13 8 -4z m-23 -14 c0 -10 -7 -21 -15 -25 -8 -3 -15 0 -15 6 0
7 -5 6 -15 -2 -23 -19 -18 -3 7 20 27 25 38 25 38 1z m-480 -30 c-5 -11 -10
-29 -10 -40 0 -17 -6 -19 -40 -18 -43 2 -43 2 15 46 48 36 48 36 35 12z m390
9 c0 -5 -5 -10 -11 -10 -5 0 -7 5 -4 10 3 6 8 10 11 10 2 0 4 -4 4 -10z m-465
-104 c9 -13 24 -26 34 -29 21 -5 34 -62 21 -87 -13 -25 -62 -19 -77 10 -6 13
-21 28 -32 32 -25 9 -26 28 -6 68 19 36 39 38 60 6z m455 10 c0 -3 -4 -8 -10
-11 -5 -3 -10 -1 -10 4 0 6 5 11 10 11 6 0 10 -2 10 -4z m-360 -100 c0 -8 -4
-17 -9 -21 -6 -3 -9 4 -8 15 1 23 17 28 17 6z m810 -41 c-7 -8 -16 -15 -21
-15 -5 0 -9 7 -9 15 0 9 9 15 21 15 18 0 19 -2 9 -15z m-734 -7 c27 -12 38
-38 22 -53 -4 -4 -4 -13 -2 -20 4 -9 -1 -12 -13 -10 -74 15 -74 15 -68 37 4
11 9 28 10 37 2 9 4 17 4 19 2 5 20 1 47 -10z m129 2 c3 -5 -1 -10 -9 -10 -8
0 -18 5 -21 10 -3 6 1 10 9 10 8 0 18 -4 21 -10z m-33 -77 c0 -10 1 -24 1 -30
-1 -7 4 -10 11 -6 6 4 18 8 26 10 10 1 9 -3 -4 -13 -19 -13 -18 -14 12 -14 23
0 32 -5 32 -16 0 -11 -5 -14 -17 -9 -10 4 -39 13 -65 21 -27 8 -49 19 -49 24
-1 6 -2 16 -3 23 -4 20 4 27 30 27 16 0 25 -6 26 -17z m243 -12 c3 -5 1 -12
-5 -16 -5 -3 -10 1 -10 9 0 18 6 21 15 7z m85 -11 c0 -5 -4 -10 -10 -10 -5 0
-10 5 -10 10 0 6 5 10 10 10 6 0 10 -4 10 -10z m-185 -30 c3 -5 2 -10 -4 -10
-5 0 -13 5 -16 10 -3 6 -2 10 4 10 5 0 13 -4 16 -10z m218 -10 c3 -11 0 -23
-5 -27 -7 -4 -8 -1 -3 7 6 10 4 12 -8 7 -9 -3 -19 -1 -23 5 -4 7 -3 8 5 4 6
-4 14 0 17 8 8 21 11 20 17 -4z m-58 -10 c-3 -5 -12 -10 -18 -10 -7 0 -6 4 3
10 19 12 23 12 15 0z m-161 -9 c4 -5 -3 -7 -14 -4 -23 6 -26 13 -6 13 8 0 17
-4 20 -9z m251 -21 c3 -5 2 -10 -4 -10 -5 0 -13 5 -16 10 -3 6 -2 10 4 10 5 0
13 -4 16 -10z m392 -22 c-3 -7 -5 -2 -5 12 0 14 2 19 5 13 2 -7 2 -19 0 -25z
m-204 -68 c3 -11 1 -18 -4 -14 -5 3 -9 12 -9 20 0 20 7 17 13 -6z m-119 -40
c4 -25 3 -31 -4 -20 -9 14 -10 13 -10 -15 0 -3 5 -5 10 -5 15 0 12 -34 -6 -56
-8 -10 -13 -14 -10 -8 3 6 -2 23 -10 39 -9 18 -11 31 -5 35 9 5 18 33 20 64 2
17 8 1 15 -34z m56 30 c0 -5 -5 -10 -11 -10 -5 0 -7 5 -4 10 3 6 8 10 11 10 2
0 4 -4 4 -10z m88 -56 c9 -16 8 -21 -4 -21 -8 0 -14 10 -14 25 0 28 2 27 18
-4z m207 -44 c7 -22 6 -23 -9 -11 -9 7 -16 23 -16 34 0 26 15 12 25 -23z
m-135 9 c0 -6 -4 -7 -10 -4 -5 3 -10 11 -10 16 0 6 5 7 10 4 6 -3 10 -11 10
-16z m66 -43 c-1 -19 -4 -38 -8 -41 -5 -6 -5 39 1 68 3 20 8 3 7 -27z m84 -16
c0 -13 -5 -18 -14 -14 -8 3 -12 12 -9 20 8 21 23 17 23 -6z m334 -8 c3 -5 -1
-9 -9 -9 -8 0 -12 4 -9 9 3 4 7 8 9 8 2 0 6 -4 9 -8z"/>
<path d="M2835 3430 c3 -5 8 -10 11 -10 2 0 4 5 4 10 0 6 -5 10 -11 10 -5 0
-7 -4 -4 -10z"/>
<path d="M2855 3410 c-3 -5 -1 -10 4 -10 6 0 11 5 11 10 0 6 -2 10 -4 10 -3 0
-8 -4 -11 -10z"/>
<path d="M3620 3391 c0 -6 4 -13 10 -16 6 -3 7 1 4 9 -7 18 -14 21 -14 7z"/>
<path d="M2860 3370 c0 -5 5 -10 11 -10 5 0 7 5 4 10 -3 6 -8 10 -11 10 -2 0
-4 -4 -4 -10z"/>
<path d="M2962 3335 c-7 -8 -9 -15 -3 -15 19 0 22 -34 5 -47 -14 -10 -15 -16
-6 -25 9 -9 12 -9 12 1 0 7 5 9 12 5 7 -4 8 -3 4 4 -4 7 -4 18 0 24 11 18 10
61 -1 64 -6 2 -16 -3 -23 -11z"/>
<path d="M3140 3339 c0 -5 5 -7 10 -4 6 3 10 8 10 11 0 2 -4 4 -10 4 -5 0 -10
-5 -10 -11z"/>
<path d="M3023 3319 c4 -13 7 -28 7 -34 0 -5 11 -11 25 -11 26 -2 29 5 14 46
l-9 25 4 -27 c2 -19 -1 -25 -11 -21 -7 3 -13 11 -13 18 0 8 -5 17 -12 21 -8 5
-9 0 -5 -17z"/>
<path d="M3090 3319 c0 -5 5 -7 10 -4 6 3 10 8 10 11 0 2 -4 4 -10 4 -5 0 -10
-5 -10 -11z"/>
<path d="M3230 3319 c0 -5 5 -7 10 -4 6 3 10 8 10 11 0 2 -4 4 -10 4 -5 0 -10
-5 -10 -11z"/>
<path d="M3286 3317 c3 -10 9 -15 12 -12 3 3 0 11 -7 18 -10 9 -11 8 -5 -6z"/>
<path d="M2924 3293 c2 -13 0 -23 -6 -23 -5 0 -6 -5 -2 -11 13 -22 28 9 15 33
l-12 23 5 -22z"/>
<path d="M3100 3285 c0 -8 5 -15 10 -15 6 0 10 7 10 15 0 8 -4 15 -10 15 -5 0
-10 -7 -10 -15z"/>
<path d="M3150 3268 c0 -19 2 -20 10 -8 13 19 13 30 0 30 -5 0 -10 -10 -10
-22z"/>
<path d="M3220 3276 c0 -2 8 -10 18 -17 15 -13 16 -12 3 4 -13 16 -21 21 -21
13z"/>
<path d="M3395 3270 c3 -5 8 -10 11 -10 2 0 4 5 4 10 0 6 -5 10 -11 10 -5 0
-7 -4 -4 -10z"/>
<path d="M3005 3260 c3 -5 8 -10 11 -10 2 0 4 5 4 10 0 6 -5 10 -11 10 -5 0
-7 -4 -4 -10z"/>
<path d="M3370 3260 c0 -5 5 -10 11 -10 5 0 7 5 4 10 -3 6 -8 10 -11 10 -2 0
-4 -4 -4 -10z"/>
<path d="M3291 3244 c0 -11 3 -14 6 -6 3 7 2 16 -1 19 -3 4 -6 -2 -5 -13z"/>
<path d="M3100 3240 c0 -5 5 -10 11 -10 5 0 7 5 4 10 -3 6 -8 10 -11 10 -2 0
-4 -4 -4 -10z"/>
<path d="M2985 3207 c7 -16 37 -19 32 -3 -2 6 -11 12 -20 14 -11 2 -15 -1 -12
-11z"/>
<path d="M3040 3208 c0 -15 18 -17 36 -3 18 14 17 14 -8 13 -16 -1 -28 -6 -28
-10z"/>
<path d="M2947 3196 c-4 -10 -1 -13 8 -9 8 3 12 9 9 14 -7 12 -11 11 -17 -5z"/>
<path d="M3157 3196 c-4 -10 -5 -21 -2 -24 9 -9 17 6 13 25 -3 17 -4 17 -11
-1z"/>
<path d="M3200 3196 c0 -8 5 -18 10 -21 6 -3 10 3 10 14 0 12 -4 21 -10 21 -5
0 -10 -6 -10 -14z"/>
<path d="M3040 3145 c0 -8 5 -15 10 -15 6 0 10 7 10 15 0 8 -4 15 -10 15 -5 0
-10 -7 -10 -15z"/>
<path d="M2926 3134 c-4 -9 -4 -19 -1 -22 2 -3 7 3 11 12 4 9 4 19 1 22 -2 3
-7 -3 -11 -12z"/>
<path d="M3240 3101 c0 -5 5 -13 10 -16 6 -3 10 -2 10 4 0 5 -4 13 -10 16 -5
3 -10 2 -10 -4z"/>
<path d="M3620 3040 c-12 -7 -7 -12 24 -25 46 -19 60 -11 27 16 -26 22 -30 22
-51 9z"/>
<path d="M2825 2950 c-3 -5 1 -10 9 -10 9 0 16 5 16 10 0 6 -4 10 -9 10 -6 0
-13 -4 -16 -10z"/>
<path d="M3215 2780 c3 -6 -1 -10 -9 -10 -10 0 -13 -6 -10 -15 8 -20 21 -19
33 4 8 14 7 20 -5 25 -8 3 -12 2 -9 -4z"/>
<path d="M3286 2723 c-6 -14 -5 -15 5 -6 7 7 10 15 7 18 -3 3 -9 -2 -12 -12z"/>
<path d="M3200 2722 c0 -5 7 -15 15 -22 8 -7 15 -9 15 -6 0 4 -7 14 -15 22 -8
9 -15 11 -15 6z"/>
<path d="M3382 2665 c0 -16 2 -22 5 -12 2 9 2 23 0 30 -3 6 -5 -1 -5 -18z"/>
<path d="M3347 2646 c-4 -10 -1 -13 8 -9 8 3 12 9 9 14 -7 12 -11 11 -17 -5z"/>
<path d="M3301 2545 c-1 -5 3 -17 9 -25 5 -9 5 -19 -2 -27 -8 -10 -6 -13 6
-13 10 0 14 5 11 10 -3 6 -1 10 4 10 6 0 11 5 11 12 0 6 -3 8 -7 4 -4 -3 -13
4 -20 16 -7 13 -12 19 -12 13z"/>
<path d="M3520 2471 c0 -5 5 -13 10 -16 6 -3 10 -2 10 4 0 5 -4 13 -10 16 -5
3 -10 2 -10 -4z"/>
<path d="M2405 2790 c-3 -5 -2 -10 4 -10 5 0 13 5 16 10 3 6 2 10 -4 10 -5 0
-13 -4 -16 -10z"/>
<path d="M2447 2574 c-4 -4 -7 -19 -6 -33 l0 -26 10 24 c10 26 8 47 -4 35z"/>
<path d="M3900 2380 c0 -5 5 -10 11 -10 5 0 7 5 4 10 -3 6 -8 10 -11 10 -2 0
-4 -4 -4 -10z"/>
<path d="M3903 2339 c-48 -14 -53 -32 -6 -24 78 13 93 17 98 26 8 11 -50 10
-92 -2z"/>
<path d="M2716 2203 c-11 -11 -6 -22 15 -33 28 -16 33 -8 11 18 -11 12 -22 19
-26 15z"/>
<path d="M2590 1960 c-12 -8 -10 -10 8 -10 13 0 20 4 17 10 -7 12 -6 12 -25 0z"/>
<path d="M2957 1876 c-6 -16 16 -40 26 -29 4 3 7 15 7 25 0 21 -25 24 -33 4z"/>
<path d="M3036 1811 c-3 -5 1 -12 10 -15 27 -11 37 -7 24 9 -14 17 -26 19 -34
6z"/>
<path d="M3160 1790 c-24 -8 -24 -8 7 -9 17 -1 35 4 38 9 7 11 -9 11 -45 0z"/>
<path d="M2796 1744 c-3 -8 -12 -14 -21 -14 -24 0 -17 -17 9 -22 18 -4 31 2
45 19 26 29 26 28 -3 29 -14 1 -27 -4 -30 -12z"/>
<path d="M2946 1716 l-30 -25 28 -7 c37 -9 144 0 157 13 16 16 -20 33 -79 39
-39 4 -52 1 -76 -20z"/>
<path d="M3720 1480 c0 -5 5 -10 11 -10 5 0 7 5 4 10 -3 6 -8 10 -11 10 -2 0
-4 -4 -4 -10z"/>
<path d="M3750 1459 c0 -5 -8 -5 -17 -2 -16 6 -16 4 -5 -9 12 -15 15 -15 33 0
23 20 23 19 4 19 -8 0 -15 -4 -15 -8z"/>
<path d="M3265 651 c4 -8 -1 -14 -14 -18 -24 -6 -28 -20 -6 -20 8 0 15 4 15 9
0 4 6 7 13 6 17 -4 15 24 -2 30 -9 3 -11 0 -6 -7z"/>
<path d="M2940 590 c20 -13 33 -13 25 0 -3 6 -14 10 -23 10 -15 0 -15 -2 -2
-10z"/>
<path d="M2930 816 c0 -8 5 -18 10 -21 6 -3 10 1 10 9 0 8 -4 18 -10 21 -5 3
-10 -1 -10 -9z"/>
</g>
</svg>
