<?xml version="1.0" standalone="no"?>
<!DOCTYPE svg PUBLIC "-//W3C//DTD SVG 20010904//EN"
 "http://www.w3.org/TR/2001/REC-SVG-20010904/DTD/svg10.dtd">
<svg version="1.0" xmlns="http://www.w3.org/2000/svg"
 width="131.000000pt" height="240.000000pt" viewBox="0 0 131.000000 240.000000"
 preserveAspectRatio="xMidYMid meet">

<g transform="translate(0.000000,240.000000) scale(0.100000,-0.100000)"
fill="#000000" stroke="none">
<path d="M0 1200 l0 -1200 655 0 655 0 0 135 0 135 -25 -10 c-14 -5 -37 -16
-53 -23 -15 -8 -49 -18 -77 -22 -27 -4 -66 -15 -86 -26 -34 -17 -38 -17 -43
-2 -4 9 -9 13 -12 10 -4 -3 -13 0 -21 8 -28 29 -91 13 -105 -26 -9 -22 -106
-43 -172 -36 -32 3 -56 2 -56 -4 0 -5 -7 -9 -15 -9 -7 0 -18 -8 -23 -17 -9
-16 -19 -16 -143 4 -90 14 -138 17 -147 10 -18 -14 -15 8 4 23 12 11 30 11 92
2 92 -14 148 -15 117 -2 -32 13 -125 31 -200 38 l-70 7 40 24 40 23 100 -15
c55 -9 109 -19 120 -22 11 -3 -9 8 -45 25 -38 18 -75 29 -88 27 -21 -4 -22 -3
-9 10 12 12 26 11 106 -12 99 -29 141 -28 224 2 27 9 89 16 177 18 119 3 149
7 250 37 l115 34 3 936 c2 830 0 936 -13 942 -24 9 -252 9 -267 0 -7 -4 -25
-7 -40 -6 -14 1 -29 -2 -33 -8 -3 -5 -13 -10 -21 -10 -8 0 -27 -9 -43 -20 -15
-12 -40 -23 -57 -25 -43 -5 -188 -36 -196 -41 -5 -3 -8 -1 -8 5 0 19 46 41
113 55 65 14 117 35 87 36 -8 0 -29 -4 -46 -9 -28 -8 -31 -7 -27 9 15 57 -200
24 -333 -52 -34 -18 -51 -34 -47 -41 4 -7 -1 -6 -10 2 -14 11 -20 11 -32 1 -8
-7 -15 -9 -15 -4 1 24 161 120 255 155 l90 32 323 -2 322 -3 0 51 0 51 -655 0
-655 0 0 -1200z m765 818 c60 -26 85 -50 96 -90 12 -47 2 -66 -27 -50 -11 5
-51 15 -91 22 -39 6 -80 13 -90 15 -10 2 -26 4 -35 4 -11 1 -18 9 -18 21 0 11
-5 20 -11 20 -6 0 -9 9 -6 20 3 11 1 23 -4 26 -5 3 -7 9 -4 14 3 5 -7 11 -22
13 -16 3 19 4 77 2 58 -2 119 -10 135 -17z m-225 -48 c0 -5 -2 -10 -4 -10 -3
0 -8 5 -11 10 -3 6 -1 10 4 10 6 0 11 -4 11 -10z m44 -36 c3 -8 -1 -14 -8 -14
-8 0 -16 9 -19 19 -6 23 18 18 27 -5z m-83 1 c19 6 21 5 13 -5 -15 -15 -46 -9
-51 10 -4 12 -3 12 5 1 6 -8 18 -11 33 -6z m75 -110 c-15 -11 -16 -15 -5 -16
8 -1 21 -2 29 -3 8 0 16 -9 18 -20 4 -16 0 -18 -35 -12 -58 11 -74 17 -68 26
6 10 -12 23 -39 27 -45 7 -24 13 45 13 67 -1 72 -2 55 -15z m188 -29 c-3 -14
-10 -24 -14 -21 -5 3 -20 -6 -34 -20 -14 -14 -26 -22 -26 -16 0 5 -8 8 -17 6
-10 -1 -24 3 -32 9 -8 6 -12 7 -9 1 3 -5 0 -16 -8 -23 -12 -11 -14 -9 -14 7 0
18 38 38 85 45 30 4 27 16 -5 16 -45 0 -33 10 21 16 24 3 46 7 48 10 9 9 12
-5 5 -30z m-264 -26 c0 -5 -4 -10 -9 -10 -6 0 -13 5 -16 10 -3 6 1 10 9 10 9
0 16 -4 16 -10z m-32 -28 c-11 -13 -10 -14 9 -4 12 7 25 17 28 22 10 16 28 12
22 -5 -4 -8 -2 -17 3 -20 19 -12 9 -24 -19 -23 -15 1 -33 -2 -38 -5 -6 -4 -14
4 -17 18 -4 14 -11 25 -16 25 -6 0 -10 4 -10 9 0 4 11 6 25 3 22 -4 24 -7 13
-20z m392 17 c0 -6 10 -19 23 -30 l22 -18 -37 -1 c-24 0 -38 5 -38 13 0 8 -3
7 -10 -3 -8 -12 -10 -12 -16 4 -4 11 -2 21 6 26 10 6 8 9 -6 13 -10 2 -2 5 19
6 21 0 37 -4 37 -10z m-267 -29 c-3 -11 -7 -20 -9 -20 -2 0 -4 9 -4 20 0 11 4
20 9 20 5 0 7 -9 4 -20z m72 -18 c-6 -7 -34 11 -29 19 3 5 11 3 19 -4 7 -6 12
-13 10 -15z m81 -38 c-17 -12 -16 -13 3 -23 27 -15 41 -14 35 3 -3 8 -1 16 4
20 14 9 52 -5 52 -20 0 -18 29 -32 54 -26 12 3 18 1 14 -3 -4 -5 -3 -14 3 -22
6 -7 8 -13 4 -13 -4 0 -2 -7 5 -15 13 -15 5 -20 -27 -16 -6 1 -14 -3 -18 -9
-3 -5 -11 -10 -18 -10 -6 0 -2 7 9 15 10 8 16 15 12 16 -5 1 -12 3 -18 4 -5 1
-17 3 -25 4 -19 1 -20 21 -1 21 8 0 18 4 21 10 4 6 -6 9 -22 9 -55 -3 -63 -8
-57 -38 4 -20 1 -30 -10 -34 -8 -3 -18 -2 -21 3 -4 6 -19 10 -36 10 -16 0 -29
4 -29 9 0 5 10 7 23 4 19 -4 20 -3 5 7 -10 6 -15 17 -11 27 5 12 2 15 -9 11
-14 -6 -16 7 -10 59 2 12 59 22 76 14 5 -2 1 -10 -8 -17z m-166 -5 c-13 -8
-12 -12 4 -24 23 -17 42 -19 51 -5 10 16 28 11 21 -6 -4 -9 -1 -23 5 -30 6 -8
10 -14 8 -15 -33 -7 -37 -6 -32 7 6 17 -1 18 -27 4 -16 -8 -18 -7 -14 4 3 8 1
17 -5 21 -7 3 -11 -2 -11 -14 0 -23 -28 -28 -60 -11 -15 8 -21 6 -29 -7 -10
-17 -10 -17 -11 -1 0 11 -5 15 -15 12 -11 -5 -12 -11 -5 -24 6 -10 10 -25 10
-32 0 -7 -6 -2 -13 12 -7 14 -21 24 -30 24 -26 -3 -20 4 18 20 27 12 33 19 28
33 -6 15 -4 16 9 5 13 -10 17 -10 22 3 3 8 13 15 23 15 10 0 27 7 37 15 11 8
22 12 25 9 3 -3 -1 -9 -9 -15z m-53 -85 c-3 -3 -12 -4 -19 -1 -8 3 -5 6 6 6
11 1 17 -2 13 -5z m25 -36 c-9 -9 -12 -7 -12 12 0 19 3 21 12 12 9 -9 9 -15 0
-24z m-115 7 c0 -18 -19 -15 -25 3 -2 7 3 12 11 12 7 0 14 -7 14 -15z m416
-44 c15 -15 -17 -25 -60 -18 -20 4 -40 12 -45 19 -6 10 -8 10 -8 1 0 -7 -4
-13 -10 -13 -5 0 -7 7 -3 16 5 14 16 15 61 11 30 -3 59 -10 65 -16z m-280 -9
c-13 -2 -23 -7 -23 -12 0 -4 9 -6 20 -3 24 6 26 -10 3 -28 -11 -10 -14 -10 -9
-1 4 6 3 12 -3 12 -5 0 -17 3 -27 7 -13 5 -15 3 -9 -7 5 -8 3 -11 -6 -8 -8 3
-13 13 -13 22 2 20 -15 20 -40 1 -19 -15 -19 -15 2 -15 19 0 21 -2 10 -14 -9
-10 -17 -11 -25 -4 -37 30 6 57 87 55 30 0 45 -3 33 -5z m91 -4 c-5 -7 2 -9
20 -6 19 4 24 2 17 -5 -5 -5 -20 -11 -33 -13 -13 -2 -33 -6 -45 -10 -17 -5
-21 -2 -18 13 2 10 4 21 4 24 1 3 15 6 31 7 19 0 28 -3 24 -10z m-124 -58 c-8
-5 -24 -9 -35 -9 -16 1 -16 2 5 9 35 11 48 11 30 0z m252 -66 c29 -15 54 -36
64 -55 17 -34 12 -79 -10 -79 -8 0 -16 -6 -19 -14 -3 -7 -17 -16 -31 -18 -14
-3 -23 -1 -20 3 5 9 -11 13 -31 9 -5 -1 -6 2 -2 7 5 4 19 8 30 8 13 0 22 6 22
15 0 17 -5 17 -132 7 -46 -4 -96 -13 -113 -22 -29 -15 -31 -15 -39 7 -26 68
-43 103 -54 110 -9 5 -8 12 5 24 12 12 40 18 105 21 48 3 90 7 93 9 9 10 87
-9 132 -32z m-135 -150 c-3 -3 -12 -4 -19 -1 -8 3 -5 6 6 6 11 1 17 -2 13 -5z
m-90 -101 c4 -12 -25 -26 -38 -17 -5 3 -9 10 -9 15 0 6 5 7 10 4 6 -3 10 -1
10 5 0 14 22 8 27 -7z m211 0 c-3 -19 5 -20 57 -9 l30 6 -31 -12 c-17 -7 -29
-17 -28 -23 2 -5 -7 -15 -21 -21 -18 -9 -24 -9 -22 0 1 6 -12 11 -30 11 -17 1
-29 -3 -27 -7 3 -4 -2 -8 -10 -8 -9 0 -21 9 -28 19 -11 18 -13 18 -24 3 -16
-22 -22 -14 -15 20 6 27 7 27 34 13 15 -8 25 -10 22 -5 -4 6 5 10 19 10 19 0
24 -4 19 -16 -4 -12 0 -15 18 -12 13 1 25 9 25 16 3 28 4 32 9 32 3 0 5 -8 3
-17z m-308 -2 c0 -5 9 -13 20 -16 11 -3 20 -13 20 -21 0 -12 7 -14 29 -9 28 6
61 -13 61 -36 0 -15 -37 -10 -56 8 -15 16 -17 16 -29 0 -15 -21 -25 -22 -25
-2 0 8 -6 12 -13 9 -20 -7 -50 31 -42 55 6 21 35 30 35 12z m372 -113 c21 -17
30 -49 18 -68 -5 -8 -10 -11 -10 -6 0 5 -8 2 -17 -6 -20 -17 -66 -31 -57 -17
3 5 1 9 -5 9 -5 0 -18 3 -28 7 -16 6 -16 5 -5 -10 12 -14 11 -17 -11 -22 -14
-4 -36 -1 -49 6 -12 7 -27 12 -31 11 -5 -1 -6 2 -3 7 11 17 -15 24 -103 32
-56 4 -91 3 -99 -4 -11 -9 -10 -12 2 -19 9 -5 16 -14 16 -19 0 -6 -4 -7 -10
-4 -5 3 -10 0 -11 -7 0 -7 -5 -2 -10 11 -12 31 -7 46 26 67 53 35 352 59 387
32z m-4 -216 c-4 -33 -32 -41 -59 -16 -26 23 -24 52 4 56 36 6 59 -10 55 -40z
m-308 18 c10 -6 4 -9 -23 -7 -20 1 -37 5 -37 10 0 10 42 9 60 -3z m150 -10
c11 -11 29 -20 39 -20 19 0 38 -17 29 -25 -2 -2 -23 -7 -46 -11 -34 -5 -42 -4
-42 9 0 8 6 18 13 20 6 3 -2 4 -19 2 -43 -4 -62 8 -45 29 18 22 47 20 71 -4z
m-65 -32 c39 -18 30 -28 -25 -28 -35 0 -50 4 -50 13 0 29 31 35 75 15z m11
-57 c-3 -5 -15 -7 -25 -4 -11 3 -34 -2 -50 -10 -17 -9 -33 -12 -36 -7 -3 5 7
13 22 18 35 13 96 15 89 3z m-191 -45 c-16 -7 -32 -11 -35 -9 -8 7 24 23 45
22 15 0 13 -3 -10 -13z m300 -7 c5 -5 24 -9 42 -9 48 0 110 -27 95 -42 -8 -8
-15 -6 -27 6 -15 15 -63 22 -123 18 -17 -1 -22 3 -18 13 6 16 -28 21 -59 9
-13 -6 -14 -9 -3 -16 9 -7 7 -8 -7 -2 -11 4 -45 10 -75 14 -42 5 -50 8 -36 15
11 5 35 4 56 -1 28 -8 39 -7 49 4 14 14 87 8 106 -9z m-110 -39 c3 -5 -1 -10
-9 -10 -8 0 -18 5 -21 10 -3 6 1 10 9 10 8 0 18 -4 21 -10z m-115 -34 c0 -2
-7 -7 -16 -10 -8 -3 -12 -2 -9 4 6 10 25 14 25 6z m117 -11 c12 1 20 -2 17 -7
-3 -4 -10 -6 -15 -3 -12 8 2 -27 17 -42 17 -17 6 -53 -16 -53 -10 0 -27 -3
-37 -7 -16 -6 -17 -5 -4 11 13 15 13 19 0 27 -21 13 -29 11 -29 -8 0 -15 -2
-16 -10 -3 -6 10 -10 11 -10 3 0 -7 -7 -13 -15 -13 -8 0 -15 7 -15 15 0 8 -5
15 -11 15 -5 0 -8 4 -4 9 3 6 15 8 26 6 29 -6 67 14 49 25 -20 13 -4 43 17 32
10 -4 28 -7 40 -7z m130 -7 c-3 -8 -6 -5 -6 6 -1 11 2 17 5 13 3 -3 4 -12 1
-19z m108 12 c3 -5 1 -10 -4 -10 -6 0 -11 5 -11 10 0 6 2 10 4 10 3 0 8 -4 11
-10z m-367 -16 c15 -3 29 -9 30 -15 2 -5 9 -6 14 -3 7 4 8 2 4 -4 -4 -6 -13
-9 -21 -6 -8 3 -24 -1 -37 -10 -25 -18 -42 -21 -33 -6 3 5 1 18 -4 28 -11 20
-4 35 11 26 4 -3 21 -8 36 -10z m342 -10 c0 -8 -7 -17 -15 -20 -8 -4 -12 -10
-9 -15 3 -5 -2 -9 -10 -9 -9 0 -16 -3 -16 -8 0 -4 -16 -12 -35 -18 -28 -9 -33
-9 -24 2 15 18 -26 40 -45 24 -11 -8 -15 -5 -18 14 -3 15 0 27 8 30 9 3 11 0
7 -11 -5 -12 -2 -15 9 -11 9 4 21 1 27 -5 8 -8 11 -7 11 5 0 9 11 18 25 20 13
3 22 2 20 -3 -3 -4 -1 -10 4 -14 5 -3 14 3 20 12 6 11 11 13 11 5 0 -7 5 -10
11 -7 6 4 8 14 5 22 -3 8 -1 11 4 8 6 -3 10 -13 10 -21z m28 -112 c9 -6 10
-16 2 -39 -9 -26 -16 -30 -41 -28 -16 1 -29 -1 -29 -5 0 -15 -82 -18 -116 -4
-19 8 -39 12 -44 9 -6 -4 -10 -2 -10 2 0 5 -9 9 -20 9 -11 0 -20 -4 -20 -9 0
-5 -7 -4 -16 4 -15 13 -77 20 -101 11 -7 -2 -13 -14 -13 -25 0 -20 0 -20 -15
-1 -25 33 -18 52 23 63 53 15 108 13 122 -4 18 -21 97 -19 140 4 36 19 116 27
138 13z"/>
<path d="M738 1623 c7 -3 16 -2 19 1 4 3 -2 6 -13 5 -11 0 -14 -3 -6 -6z"/>
<path d="M440 1090 c0 -5 5 -10 11 -10 5 0 7 5 4 10 -3 6 -8 10 -11 10 -2 0
-4 -4 -4 -10z"/>
<path d="M478 193 c7 -3 16 -2 19 1 4 3 -2 6 -13 5 -11 0 -14 -3 -6 -6z"/>
</g>
</svg>
